<svg width="512" height="512" viewBox="0 0 512 512" fill="none" xmlns="http://www.w3.org/2000/svg">
<rect width="512" height="512" rx="64" fill="url(#paint0_linear_104_141)"/>
<path d="M363.303 191.215C363.303 191.215 396.777 265.557 319.134 307.388C241.491 349.219 344.887 411.344 392.142 352.605C439.397 293.865 363.303 191.215 363.303 191.215Z" fill="#FEFEFE"/>
<path d="M170.974 194.855C170.974 194.855 129.974 313.761 248.2 379.391C366.425 445.02 196.175 493.786 124.063 401.892C51.9517 309.998 170.974 194.855 170.974 194.855Z" fill="white"/>
<path d="M179.717 222.6C197.884 87.5151 316.106 48.1364 316.106 48.1364C316.106 48.1364 290.045 176.103 382.654 264.234C475.263 352.366 261.899 473.353 299.917 426.913C337.934 380.474 161.551 357.686 179.717 222.6Z" fill="white"/>
<defs>
<linearGradient id="paint0_linear_104_141" x1="24.32" y1="11.52" x2="483.84" y2="504.32" gradientUnits="userSpaceOnUse">
<stop stop-color="#CF77C0"/>
<stop stop-color="#F95F69"/>
<stop offset="1" stop-color="#9463BC"/>
</linearGradient>
</defs>
</svg>
