<svg width="46" height="26" viewBox="0 0 46 26" fill="none" xmlns="http://www.w3.org/2000/svg">
<path d="M3.39622 0.36084L3.4179 15.4294H5.34754L5.32586 18.2588H0.36084V0.36084H3.39622Z" fill="black"/>
<path d="M9.08758 18.2588H6.03052V0.36084H9.08758V18.2588Z" fill="black"/>
<path d="M9.85718 0.36084H14.4753C15.7003 0.36084 16.5025 0.989598 16.5025 2.62654V6.65926C16.5025 7.86257 15.7111 8.41545 15.3209 8.53469C15.7979 8.65394 16.741 9.18513 16.741 10.6269V15.5486C16.741 17.359 15.9713 18.2696 14.4536 18.2696H9.85718V0.36084ZM12.9142 2.6157V7.72164H13.1311C13.3695 7.72164 13.4888 7.58072 13.4888 7.26634V3.04932C13.4888 2.73494 13.4454 2.6157 13.1311 2.6157H12.9142ZM12.9142 9.93314V15.928H13.2069C13.5213 15.928 13.5647 15.7871 13.5647 15.4727V10.421C13.5647 10.0632 13.4888 9.94398 13.2069 9.94398H12.9142V9.93314Z" fill="black"/>
<path d="M20.4702 18.2588H17.4131V0.36084H22.1505C23.2128 0.36084 24.0476 1.03296 24.0476 2.50729V6.7243C24.0476 7.9493 23.473 8.43713 22.9635 8.65394C23.473 8.87075 24.0909 9.38027 24.0909 10.3126V17.4132C24.0909 17.7709 24.1343 18.0419 24.2319 18.2046V18.2804H21.2182C21.0989 18.107 21.023 17.8685 21.023 17.5324V10.8221C21.023 10.5619 20.9797 10.4101 20.687 10.4101H20.4485V18.2588H20.4702ZM20.4702 7.84089H20.7086C20.9255 7.84089 21.0447 7.69996 21.0447 7.42895V3.02764C21.0447 2.73494 21.0013 2.6157 20.7303 2.6157H20.4702V7.84089Z" fill="black"/>
<path d="M28.5357 15.0391H27.5059L27.3324 18.2696H24.709L26.1942 0.36084H30.0426L31.6578 18.2588H28.6983L28.5357 15.0391ZM28.0262 5.60772L27.6685 12.4156H28.3948L28.0262 5.60772Z" fill="black"/>
<path d="M35.322 18.2588H32.2649V0.36084H37.0131C38.0755 0.36084 38.9102 1.03296 38.9102 2.50729V6.7243C38.9102 7.9493 38.3357 8.43713 37.8261 8.65394C38.3357 8.87075 38.9536 9.38027 38.9536 10.3126V17.4132C38.9536 17.7709 38.9969 18.0419 39.0945 18.2046V18.2804H36.0808C35.9616 18.107 35.8857 17.8685 35.8857 17.5324V10.8221C35.8857 10.5619 35.8423 10.4101 35.5496 10.4101H35.3111V18.2588H35.322ZM35.322 7.84089H35.5605C35.7773 7.84089 35.8965 7.69996 35.8965 7.42895V3.02764C35.8965 2.73494 35.8531 2.6157 35.5821 2.6157H35.322V7.84089Z" fill="black"/>
<path d="M41.1542 11.2123L39.1812 0.36084H42.2165L42.7477 6.55085L43.2789 0.36084H45.9999L44.1787 11.2123V18.2588H41.1433V11.2123H41.1542Z" fill="black"/>
<path d="M3.39622 0.36084L3.4179 15.4294H5.34754L5.32586 18.2588H0.36084V0.36084H3.39622Z" fill="black"/>
<path d="M9.08758 18.2588H6.03052V0.36084H9.08758V18.2588Z" fill="black"/>
<path d="M9.85718 0.36084H14.4753C15.7003 0.36084 16.5025 0.989598 16.5025 2.62654V6.65926C16.5025 7.86257 15.7111 8.41545 15.3209 8.53469C15.7979 8.65394 16.741 9.18513 16.741 10.6269V15.5486C16.741 17.359 15.9713 18.2696 14.4536 18.2696H9.85718V0.36084ZM12.9142 2.6157V7.72164H13.1311C13.3695 7.72164 13.4888 7.58072 13.4888 7.26634V3.04932C13.4888 2.73494 13.4454 2.6157 13.1311 2.6157H12.9142ZM12.9142 9.93314V15.928H13.2069C13.5213 15.928 13.5647 15.7871 13.5647 15.4727V10.421C13.5647 10.0632 13.4888 9.94398 13.2069 9.94398H12.9142V9.93314Z" fill="black"/>
<path d="M20.4702 18.2588H17.4131V0.36084H22.1505C23.2128 0.36084 24.0476 1.03296 24.0476 2.50729V6.7243C24.0476 7.9493 23.473 8.43713 22.9635 8.65394C23.473 8.87075 24.0909 9.38027 24.0909 10.3126V17.4132C24.0909 17.7709 24.1343 18.0419 24.2319 18.2046V18.2804H21.2182C21.0989 18.107 21.023 17.8685 21.023 17.5324V10.8221C21.023 10.5619 20.9797 10.4101 20.687 10.4101H20.4485V18.2588H20.4702ZM20.4702 7.84089H20.7086C20.9255 7.84089 21.0447 7.69996 21.0447 7.42895V3.02764C21.0447 2.73494 21.0013 2.6157 20.7303 2.6157H20.4702V7.84089Z" fill="black"/>
<path d="M28.5357 15.0391H27.5059L27.3324 18.2696H24.709L26.1942 0.36084H30.0426L31.6578 18.2588H28.6983L28.5357 15.0391ZM28.0262 5.60772L27.6685 12.4156H28.3948L28.0262 5.60772Z" fill="black"/>
<path d="M35.322 18.2588H32.2649V0.36084H37.0131C38.0755 0.36084 38.9102 1.03296 38.9102 2.50729V6.7243C38.9102 7.9493 38.3357 8.43713 37.8261 8.65394C38.3357 8.87075 38.9536 9.38027 38.9536 10.3126V17.4132C38.9536 17.7709 38.9969 18.0419 39.0945 18.2046V18.2804H36.0808C35.9616 18.107 35.8857 17.8685 35.8857 17.5324V10.8221C35.8857 10.5619 35.8423 10.4101 35.5496 10.4101H35.3111V18.2588H35.322ZM35.322 7.84089H35.5605C35.7773 7.84089 35.8965 7.69996 35.8965 7.42895V3.02764C35.8965 2.73494 35.8531 2.6157 35.5821 2.6157H35.322V7.84089Z" fill="black"/>
<path d="M41.1542 11.2123L39.1812 0.36084H42.2165L42.7477 6.55085L43.2789 0.36084H45.9999L44.1787 11.2123V18.2588H41.1433V11.2123H41.1542Z" fill="black"/>
<path d="M17.2397 22.6166V19.668H18.0094V21.8795H19.2453V22.6166H17.2397Z" fill="#FC4C02"/>
<path d="M19.5706 22.6166V19.668H20.3402V22.6166H19.5706Z" fill="#FC4C02"/>
<path d="M20.7847 22.6166V19.668H21.9338C22.736 19.668 23.0829 19.939 23.0829 20.4377C23.0829 20.7846 22.9528 20.9905 22.7251 21.1098C22.9962 21.2182 23.1588 21.4133 23.1588 21.7711C23.1588 22.3239 22.8119 22.6275 22.0639 22.6275H20.7847V22.6166ZM21.5218 20.2534V20.8171H21.9663C22.2265 20.8171 22.3566 20.7304 22.3566 20.5244C22.3566 20.3401 22.2482 20.2534 21.9663 20.2534H21.5218ZM21.5218 21.3808V21.9662H21.9229C22.2807 21.9662 22.3891 21.8686 22.3891 21.6735C22.3891 21.4784 22.2698 21.3808 21.9229 21.3808H21.5218Z" fill="#FC4C02"/>
<path d="M24.1886 21.6191V22.6056H23.4514V19.657H24.6439C25.4786 19.657 25.8038 20.0256 25.8038 20.5784C25.8038 20.9579 25.6521 21.1855 25.3811 21.3156C25.6195 21.4132 25.7388 21.6191 25.7388 21.9877V22.4539C25.7388 22.5298 25.7605 22.584 25.8038 22.6165H25.0342C24.9908 22.584 24.9691 22.5189 24.9691 22.443V22.0094C24.9691 21.7167 24.8607 21.63 24.5572 21.63H24.1886V21.6191ZM24.1886 20.2966V20.9795H24.6222C24.8932 20.9795 25.0342 20.8495 25.0342 20.6326C25.0342 20.4267 24.9149 20.2966 24.6222 20.2966H24.1886Z" fill="#FC4C02"/>
<path d="M27.8201 22.0963H26.8336L26.671 22.6166H25.9121L26.942 19.668H27.7117L28.7524 22.6166H27.9935L27.8201 22.0963ZM27.3214 20.5244L27.0287 21.4892H27.6249L27.3214 20.5244Z" fill="#FC4C02"/>
<path d="M29.6957 21.6191V22.6056H28.9585V19.657H30.151C30.9857 19.657 31.3109 20.0256 31.3109 20.5784C31.3109 20.9579 31.1591 21.1855 30.8881 21.3156C31.1266 21.4132 31.2459 21.6191 31.2459 21.9877V22.4539C31.2459 22.5298 31.2676 22.584 31.3109 22.6165H30.5412C30.4979 22.584 30.4762 22.5189 30.4762 22.443V22.0094C30.4762 21.7167 30.3678 21.63 30.0642 21.63H29.6957V21.6191ZM29.6957 20.2966V20.9795H30.1293C30.4003 20.9795 30.5412 20.8495 30.5412 20.6326C30.5412 20.4267 30.422 20.2966 30.1293 20.2966H29.6957Z" fill="#FC4C02"/>
<path d="M32.3191 22.6166V21.4675L31.4084 19.668H32.2107L32.7202 20.7304L33.2514 19.668H34.0427L33.0996 21.4892V22.6275H32.3191V22.6166Z" fill="#FC4C02"/>
<path d="M17.1638 24.774V24.4596C17.1638 23.5382 17.6733 23.072 18.443 23.072C19.191 23.072 19.7222 23.5273 19.7222 24.4596V24.774C19.7222 25.7063 19.2019 26.1508 18.443 26.1508C17.63 26.1399 17.1638 25.7063 17.1638 24.774ZM18.9308 24.7306V24.4921C18.9308 23.9935 18.7791 23.7441 18.443 23.7441C18.0961 23.7441 17.9552 24.0043 17.9552 24.4813V24.7198C17.9552 25.2076 18.0961 25.457 18.443 25.457C18.7791 25.4678 18.9308 25.2293 18.9308 24.7306Z" fill="#FC4C02"/>
<path d="M20.8063 25.0448V26.0855H20.0691V23.1368H22.0638V23.809H20.8063V24.3835H22.0096V25.0556H20.8063V25.0448Z" fill="#FC4C02"/>
<path d="M23.137 24.8065V24.4379C23.137 23.5273 23.6356 23.072 24.427 23.072C25.1967 23.072 25.652 23.4514 25.6954 24.2211V24.3079H24.904V24.2645C24.8823 23.9176 24.7522 23.7441 24.4378 23.7441C24.0909 23.7441 23.9392 23.9826 23.9392 24.4813V24.7415C23.9392 25.2185 24.1018 25.4461 24.4378 25.4461C24.7522 25.4461 24.8823 25.2618 24.9148 24.9041V24.8499H25.717V24.9258C25.6845 25.7605 25.2292 26.1399 24.4162 26.1399C23.5814 26.1399 23.137 25.7171 23.137 24.8065Z" fill="#FC4C02"/>
<path d="M25.9338 24.774V24.4596C25.9338 23.5382 26.4433 23.072 27.213 23.072C27.961 23.072 28.4922 23.5273 28.4922 24.4596V24.774C28.4922 25.7063 27.9719 26.1508 27.213 26.1508C26.4 26.1399 25.9338 25.7063 25.9338 24.774ZM27.7009 24.7306V24.4921C27.7009 23.9935 27.5491 23.7441 27.213 23.7441C26.8661 23.7441 26.7252 24.0043 26.7252 24.4813V24.7198C26.7252 25.2076 26.8661 25.457 27.213 25.457C27.5491 25.4678 27.7009 25.2293 27.7009 24.7306Z" fill="#FC4C02"/>
<path d="M29.544 24.3079V26.0749H28.8394V23.1262H29.544L30.6281 24.8716V23.1262H31.3327V26.0749H30.6497L29.544 24.3079Z" fill="#FC4C02"/>
<path d="M33.5114 25.4028C33.4464 25.8147 33.2079 26.1508 32.6875 26.1508C32.0046 26.1508 31.6902 25.7388 31.6902 24.7957V24.4379C31.6902 23.5165 32.1889 23.072 32.9911 23.072C33.7608 23.072 34.1727 23.4623 34.1835 24.1886V24.2103H33.4138C33.403 23.9176 33.2838 23.7441 32.9694 23.7441C32.6116 23.7441 32.4599 23.9718 32.4599 24.4705V24.7632C32.4599 25.3052 32.6116 25.4895 32.9585 25.4895C33.2512 25.4895 33.403 25.2835 33.4247 25.0233H32.9043V24.5138H34.1727V26.0966H33.5765L33.5114 25.4028Z" fill="#FC4C02"/>
<path d="M35.3111 25.0884V26.0749H34.574V23.1262H35.7664C36.6012 23.1262 36.9264 23.4948 36.9264 24.0477C36.9264 24.4271 36.7746 24.6548 36.5036 24.7848C36.7421 24.8824 36.8614 25.0884 36.8614 25.457V25.9231C36.8614 25.999 36.883 26.0532 36.9264 26.0857H36.1459C36.1025 26.0532 36.0808 25.9882 36.0808 25.9123V25.4786C36.0808 25.1859 35.9724 25.0992 35.6689 25.0992H35.3111V25.0884ZM35.3111 23.7658V24.4488H35.7448C36.0158 24.4488 36.1567 24.3187 36.1567 24.1019C36.1567 23.8959 36.0375 23.7658 35.7448 23.7658H35.3111Z" fill="#FC4C02"/>
<path d="M39.3764 26.0855H37.2625V23.1368H39.333V23.7764H37.9996V24.2751H39.2029V24.9255H37.9996V25.4242H39.3764V26.0855Z" fill="#FC4C02"/>
<path d="M39.5498 25.0666H40.3412V25.0774C40.3412 25.3593 40.4821 25.5111 40.8073 25.5111C41.0783 25.5111 41.1976 25.381 41.1976 25.2184C41.1976 24.9799 40.894 24.9365 40.558 24.8606C40.1135 24.7631 39.6148 24.6221 39.6148 23.9825C39.6148 23.4622 39.9943 23.0828 40.7423 23.0828C41.5011 23.0828 41.8914 23.4297 41.8914 24.0476H41.1325C41.1217 23.7982 41.0025 23.6898 40.7206 23.6898C40.4604 23.6898 40.3629 23.8091 40.3629 23.9609C40.3629 24.1777 40.6447 24.221 40.9808 24.2969C41.4252 24.3945 41.9347 24.5463 41.9456 25.1967C41.9456 25.7712 41.5445 26.1615 40.7748 26.1615C39.8642 26.1398 39.5606 25.7604 39.5498 25.0666Z" fill="#FC4C02"/>
<path d="M42.0757 25.0666H42.8671V25.0774C42.8671 25.3593 43.008 25.5111 43.3332 25.5111C43.6042 25.5111 43.7235 25.381 43.7235 25.2184C43.7235 24.9799 43.4199 24.9365 43.0839 24.8606C42.6394 24.7631 42.1407 24.6221 42.1407 23.9825C42.1407 23.4622 42.5202 23.0828 43.2682 23.0828C44.027 23.0828 44.4173 23.4297 44.4173 24.0476H43.6584C43.6476 23.7982 43.5283 23.6898 43.2465 23.6898C42.9863 23.6898 42.8887 23.8091 42.8887 23.9609C42.8887 24.1777 43.1706 24.221 43.5067 24.2969C43.9511 24.3945 44.4606 24.5463 44.4715 25.1967C44.4715 25.7712 44.0704 26.1615 43.3007 26.1615C42.3901 26.1398 42.0865 25.7604 42.0757 25.0666Z" fill="#FC4C02"/>
</svg>
