<svg width="27" height="28" viewBox="0 0 27 28" fill="none" xmlns="http://www.w3.org/2000/svg">
<path d="M13.2375 5.8096L13.8478 4.79466C14.2244 4.16032 15.0646 3.94646 15.7238 4.30894C16.3831 4.67142 16.6053 5.47974 16.2286 6.11407L10.3481 15.9082H14.6012C15.9799 15.9082 16.7522 17.4668 16.1533 18.547H3.68399C2.92303 18.547 2.31274 17.9599 2.31274 17.2276C2.31274 16.4954 2.92303 15.9082 3.68399 15.9082H7.1799L11.6553 8.4448L10.2576 6.11045C9.88091 5.47612 10.1032 4.67504 10.7624 4.30532C11.4217 3.94284 12.2543 4.1567 12.6385 4.79103L13.2375 5.8096ZM7.9484 19.9063L6.62989 22.1065C6.25318 22.7409 5.41311 22.9547 4.75386 22.5923C4.09461 22.2298 3.87234 21.4215 4.24905 20.7871L5.22852 19.156C6.33606 18.8261 7.23641 19.0799 7.9484 19.9063ZM19.3026 15.9154H22.8701C23.631 15.9154 24.2413 16.5027 24.2413 17.2349C24.2413 17.967 23.631 18.5543 22.8701 18.5543H20.8885L22.2259 20.7871C22.6026 21.4215 22.3804 22.2225 21.7211 22.5923C21.0618 22.9547 20.2293 22.7409 19.8451 22.1065C17.5923 18.3476 15.9008 15.5348 14.7783 13.6608C13.6293 11.7542 14.4505 9.84032 15.2604 9.1915C16.1608 10.6776 17.5056 12.9214 19.3026 15.9154Z" fill="black"/>
</svg>
