<svg width="149" height="296" viewBox="0 0 149 296" fill="none" xmlns="http://www.w3.org/2000/svg">
<path d="M0.686218 292.387C0.472244 292.213 0.440262 291.898 0.614807 291.684L3.45912 288.197C3.63367 287.983 3.94862 287.951 4.16261 288.125C4.3766 288.3 4.40857 288.615 4.23402 288.829L1.70575 291.929L4.80539 294.457C5.01938 294.631 5.05136 294.946 4.87682 295.16C4.70227 295.374 4.38731 295.406 4.17332 295.232L0.686218 292.387ZM140.003 1C140.492 0.895359 140.492 0.896563 140.492 0.898796C140.493 0.900917 140.493 0.904181 140.494 0.908415C140.496 0.916882 140.499 0.929454 140.502 0.9461C140.509 0.979392 140.52 1.02898 140.533 1.09461C140.561 1.22588 140.601 1.42134 140.653 1.67899C140.757 2.19429 140.908 2.95838 141.097 3.95533C141.475 5.94921 142.002 8.87459 142.604 12.604C143.806 20.0627 145.304 30.7381 146.485 43.6106C148.846 69.3523 149.942 103.894 144.872 139.071C139.803 174.244 128.563 210.09 106.223 238.403C83.8704 266.732 50.4325 287.484 1.05276 292.497L0.951752 291.503C50.072 286.516 83.2592 265.893 105.438 237.784C127.629 209.66 138.827 174.006 143.883 138.929C148.938 103.856 147.846 69.3977 145.489 43.7019C144.311 30.8556 142.816 20.203 141.616 12.7632C141.017 9.04337 140.49 6.12696 140.115 4.14135C139.927 3.14855 139.776 2.38847 139.673 1.87704C139.621 1.62133 139.581 1.42777 139.554 1.29838C139.541 1.23368 139.531 1.18502 139.524 1.15265C139.52 1.13646 139.518 1.12435 139.516 1.11633C139.515 1.11233 139.515 1.10941 139.514 1.1074C139.514 1.1055 139.514 1.10464 140.003 1Z" fill="#6752A3" fill-opacity="0.5"/>
</svg>
