<svg width="109" height="424" viewBox="0 0 109 424" fill="none" xmlns="http://www.w3.org/2000/svg">
<path d="M51.8613 422.481C51.5955 422.406 51.4408 422.13 51.5158 421.864L52.7374 417.533C52.8124 417.267 53.0886 417.113 53.3544 417.188C53.6202 417.263 53.7748 417.539 53.6999 417.805L52.614 421.655L56.4638 422.74C56.7295 422.815 56.8842 423.092 56.8092 423.357C56.7343 423.623 56.4581 423.778 56.1923 423.703L51.8613 422.481ZM0.993073 1C1.42249 0.743869 1.42331 0.745247 1.4249 0.747905C1.42644 0.750503 1.42879 0.754443 1.43188 0.759629C1.43805 0.770002 1.44726 0.785482 1.45947 0.806035C1.48389 0.84714 1.52032 0.908536 1.56849 0.989939C1.66483 1.15275 1.80815 1.39559 1.99633 1.71621C2.3727 2.35745 2.92853 3.30983 3.64698 4.55534C5.08389 7.04635 7.1713 10.7099 9.77441 15.402C14.9806 24.786 22.2499 38.2844 30.5038 54.7446C47.0108 87.6633 67.4603 132.437 83.2213 179.842C98.9797 227.24 110.065 277.309 107.81 320.807C105.555 364.318 89.9426 401.324 52.2413 422.436L51.7527 421.564C89.0539 400.676 104.567 364.057 106.812 320.755C109.057 277.441 98.0157 227.51 82.2724 180.158C66.5318 132.813 46.1045 88.0867 29.6099 55.1929C21.3631 38.7469 14.1005 25.2609 8.89997 15.8871C6.29974 11.2002 4.21508 7.54154 2.78076 5.05501C2.06361 3.81175 1.50904 2.86154 1.1339 2.22239C0.946342 1.90282 0.803635 1.66101 0.707886 1.49921C0.660019 1.41832 0.623886 1.35742 0.599762 1.31682C0.5877 1.29651 0.578636 1.28128 0.572609 1.27115C0.569595 1.26609 0.567352 1.26234 0.565842 1.2598C0.564369 1.25732 0.56366 1.25613 0.993073 1Z" fill="#6752A3" fill-opacity="0.5"/>
</svg>
