<svg width="95" height="295" viewBox="0 0 95 295" fill="none" xmlns="http://www.w3.org/2000/svg">
<path d="M59.3617 293.481C59.6273 293.405 59.7814 293.129 59.7058 292.863L58.4745 288.535C58.3989 288.269 58.1224 288.115 57.8568 288.191C57.5912 288.266 57.4371 288.543 57.5127 288.809L58.6072 292.656L54.7598 293.75C54.4942 293.826 54.3402 294.103 54.4157 294.368C54.4913 294.634 54.7679 294.788 55.0335 294.712L59.3617 293.481ZM94.2266 1C93.8513 0.669603 93.8505 0.67051 93.849 0.672212C93.8475 0.673841 93.8454 0.676338 93.8425 0.679591C93.8368 0.686097 93.8283 0.695772 93.8171 0.708598C93.7946 0.734249 93.7611 0.772499 93.7169 0.82319C93.6285 0.92457 93.4972 1.07571 93.3248 1.27533C92.9801 1.67457 92.4715 2.26774 91.8147 3.04462C90.5011 4.59837 88.5948 6.88698 86.2221 9.82867C81.4767 15.7119 74.8651 24.208 67.3975 34.6625C52.4642 55.5688 34.0991 84.3188 20.3924 115.675C6.6891 147.023 -2.3803 181.025 1.33778 212.418C5.05999 243.846 21.5939 272.61 58.9816 293.437L59.4682 292.563C22.3556 271.89 6.01461 243.404 2.33084 212.301C-1.35708 181.162 7.63647 147.352 21.3087 116.075C34.9774 84.8062 53.3003 56.1187 68.2112 35.2437C75.6657 24.8076 82.2652 16.3271 87.0004 10.4565C89.368 7.52122 91.2693 5.23855 92.5783 3.69024C93.2328 2.9161 93.7392 2.32555 94.0817 1.92883C94.253 1.73047 94.3833 1.58057 94.4706 1.48041C94.5143 1.43032 94.5472 1.39268 94.5692 1.36762C94.5802 1.35509 94.5884 1.34571 94.5938 1.3395C94.5966 1.3364 94.5986 1.33412 94.5999 1.33257C94.6012 1.33108 94.6018 1.3304 94.2266 1Z" fill="#6752A3" fill-opacity="0.5"/>
</svg>
