<svg width="48" height="44" viewBox="0 0 48 44" fill="none" xmlns="http://www.w3.org/2000/svg">
<path fill-rule="evenodd" clip-rule="evenodd" d="M16.4987 43.972C16.1837 43.972 15.8777 43.83 15.6747 43.568C5.83972 30.839 -2.69829 18.404 0.798711 6.189C1.92371 2.255 4.64071 0 8.25171 0C11.8867 0 16.0147 2.29 19.0237 5.975C21.2417 8.691 22.6067 11.852 23.0237 15.095C26.5327 9.848 32.7207 7.064 37.9167 7.064C41.1617 7.064 43.8337 8.127 45.4407 10.056C46.9067 11.817 47.4107 14.216 46.8987 16.997C44.5987 29.493 31.4217 36.839 16.9547 43.868C16.8077 43.939 16.6527 43.972 16.4987 43.972Z" fill="#FD6085"/>
<path d="M22.5666 31.5079C22.5666 33.1179 21.2595 34.4269 19.6465 34.4269C18.0345 34.4269 16.7266 33.1179 16.7266 31.5079C16.7266 29.8949 18.0345 28.5859 19.6465 28.5859C21.2595 28.5869 22.5666 29.8949 22.5666 31.5079Z" fill="white"/>
<path d="M40.1515 13.2267C40.1515 14.8377 38.8445 16.1457 37.2315 16.1457C35.6195 16.1457 34.3125 14.8377 34.3125 13.2267C34.3125 11.6137 35.6195 10.3047 37.2315 10.3047C38.8445 10.3047 40.1515 11.6137 40.1515 13.2267Z" fill="white"/>
</svg>
