<svg width="177" height="155" viewBox="0 0 177 155" fill="none" xmlns="http://www.w3.org/2000/svg">
<path d="M141.012 120.114C139.96 118.072 138.943 116.033 138.06 113.954C137.985 113.778 137.571 113.601 137.717 113.478C138.44 112.873 142.701 108.398 143.317 107.806C146.361 104.88 149.16 101.765 151.594 98.3001C156.064 91.9377 159.456 85.0448 160.053 77.1147C160.208 75.0543 159.793 73.1325 158.006 71.8229C155.371 69.8918 153.418 73.2762 152.562 75.3457C150.769 79.6845 149.317 84.1276 146.674 88.0612C146.429 88.4256 145.982 88.6549 145.627 88.9467C145.479 88.8619 145.327 88.777 145.18 88.6915C148.771 81.7247 150.964 74.4034 150.829 66.5335C150.775 63.3959 150.479 60.2791 148.973 57.4365C148.147 55.8779 146.929 54.9234 145.195 54.9852C141.529 55.1174 141.03 60.0773 140.814 62.8105C140.486 66.9435 140.46 71.2054 139.606 75.2709C139.054 77.8946 138.432 80.6641 136.527 82.8178C136.696 81.8884 135.328 81.9031 136.581 80.0257C137.096 76.8912 137.896 73.7674 138.073 70.6212C138.459 63.7239 137.402 57.0538 134.046 50.9909C132.456 48.1155 130.668 45.3676 127.587 43.789C124.724 42.3214 122.17 44.48 122.234 47.2463C122.273 49.0175 122.824 50.9357 123.676 52.4804C127.691 59.7566 128.377 67.5041 126.922 75.6255C126.737 76.652 126.523 77.6729 126.323 78.6957C125.907 77.6446 125.492 76.5919 125.078 75.5392C122.27 69.8987 117.539 67.0917 111.507 66.2126C106.153 65.4327 100.969 66.1741 95.9922 68.4103C94.3016 69.17 92.5771 70.6395 91.8986 72.3958C91.0613 74.5624 92.0609 77.3084 94.7959 77.2948C96.0525 77.2892 97.3336 77.19 98.5648 76.9278C102.404 76.1125 106.234 75.9992 109.976 77.0665C118.124 79.3922 120.373 90.5136 116.511 97.2336C112.831 103.64 106.426 107.57 99.3307 109.112C96.2883 109.772 93.1661 109.974 90.0607 110.048C84.7488 110.173 78.8001 110.089 73.9238 112.519C69.9612 114.493 64.4163 122.293 72.6507 122.823C73.9607 122.907 75.3004 122.741 76.6164 122.763C78.9691 122.804 81.3219 122.896 83.6746 122.947C87.8024 123.184 91.9213 123.562 96.0458 123.837C102.773 125.144 108.444 128.914 115.29 128.288C115.561 128.619 115.942 129.526 116.2 129.867C116.307 130.005 116.406 130.149 116.509 130.29C116.641 130.47 116.772 130.647 116.9 130.829C118.424 133.015 119.644 135.387 120.676 137.874C120.687 137.885 120.697 137.891 120.708 137.901C120.884 138.047 121.054 138.183 121.229 138.316C121.597 138.601 121.967 138.871 122.341 139.109C123.933 140.133 127.63 141.754 130.648 140.419C130.765 140.394 130.88 140.371 130.997 140.347C131.184 140.204 131.37 140.057 131.556 139.906C131.847 139.705 132.129 139.469 132.399 139.192C137.245 134.879 140.719 128.32 141.012 120.114Z" fill="#FF6585"/>
<path d="M122.346 143.419C122.241 143.363 122.155 143.277 122.099 143.169L114.886 129.126C114.794 128.947 114.8 128.735 114.901 128.562C115.001 128.388 115.183 128.279 115.384 128.27C124.712 127.885 137.495 113.706 137.624 113.562C137.749 113.422 137.936 113.35 138.124 113.37C138.2 113.378 138.271 113.401 138.336 113.435C138.434 113.487 138.516 113.566 138.571 113.666L145.036 125.154C145.101 125.269 145.125 125.404 145.105 125.535C142.144 143.959 122.796 143.493 122.6 143.487C122.51 143.485 122.423 143.46 122.346 143.419Z" fill="#F9D555"/>
<path d="M148.359 81.3438C148.359 81.3438 148.395 81.5901 148.385 82.0217C148.392 82.4614 148.329 83.0686 148.22 83.8007C148.15 84.16 148.074 84.5514 147.974 84.9605C147.884 85.3743 147.757 85.7978 147.603 86.2279C147.456 86.6613 147.297 87.1074 147.123 87.556C146.937 87.9979 146.717 88.4328 146.508 88.872C146.283 89.3037 146.079 89.7477 145.829 90.1564C145.579 90.5641 145.318 90.9579 145.063 91.3359C144.809 91.714 144.553 92.0727 144.307 92.4091C144.055 92.7421 143.775 93.0289 143.532 93.3011C143.043 93.8454 142.602 94.2715 142.289 94.5626C141.975 94.8539 141.78 95.0072 141.78 95.0072C141.78 95.0072 141.851 94.7636 142.002 94.3614C142.153 93.9594 142.377 93.3953 142.684 92.7502C142.838 92.4292 143.004 92.0808 143.179 91.7131C143.342 91.3398 143.52 90.9498 143.712 90.5535C143.904 90.1572 144.106 89.7504 144.326 89.3453C144.526 88.9307 144.728 88.5101 144.931 88.0889C145.145 87.6736 145.36 87.2586 145.571 86.85C145.762 86.4337 145.962 86.0278 146.163 85.6374C146.367 85.2473 146.566 84.871 146.735 84.5054C146.911 84.1426 147.094 83.8039 147.264 83.4892C147.56 82.849 147.866 82.3208 148.046 81.9437C148.245 81.562 148.359 81.3438 148.359 81.3438Z" fill="#074785"/>
<path d="M137.625 74.3516C137.625 74.3516 137.696 74.5965 137.749 75.0348C137.819 75.4784 137.847 76.1032 137.848 76.8604C137.835 77.2357 137.813 77.6421 137.775 78.0718C137.745 78.5026 137.691 78.9544 137.598 79.4127C137.516 79.8741 137.423 80.3496 137.316 80.8305C137.208 81.3112 137.043 81.7824 136.901 82.2613C136.743 82.7342 136.596 83.2119 136.418 83.6699C136.228 84.1222 136.024 84.5614 135.824 84.9836C135.625 85.4067 135.422 85.8102 135.225 86.1896C135.03 86.5697 134.783 86.9002 134.58 87.2148C134.168 87.8413 133.789 88.3411 133.516 88.6843C133.244 89.0277 133.071 89.2132 133.071 89.2132C133.071 89.2132 133.108 88.956 133.203 88.5276C133.298 88.0983 133.443 87.4937 133.66 86.7961C133.759 86.4429 133.895 86.074 134.004 85.6703C134.113 85.2671 134.234 84.8459 134.37 84.4154C134.505 83.9848 134.647 83.5418 134.809 83.0986C134.945 82.6473 135.084 82.1893 135.223 81.7301C135.373 81.2753 135.524 80.8212 135.672 80.3735C135.802 79.9213 135.941 79.479 136.084 79.0512C136.233 78.6246 136.365 78.2101 136.481 77.8135C136.601 77.4177 136.736 77.0454 136.854 76.6997C137.053 76.0035 137.277 75.421 137.402 75.0095C137.544 74.5912 137.625 74.3516 137.625 74.3516Z" fill="#074785"/>
<path d="M23.0808 57.4492C25.3613 57.1778 27.6211 56.8806 29.8376 56.4484C30.0259 56.412 30.405 56.6563 30.4246 56.4666C30.5215 55.5282 31.8457 49.4927 31.991 48.6516C32.7119 44.4904 33.7273 40.4278 35.2367 36.4717C38.0079 29.2066 41.8218 22.5378 48.06 17.6056C49.6808 16.324 51.5054 15.592 53.5912 16.3403C56.6667 17.4435 54.9544 20.9558 53.7184 22.8233C51.1263 26.7377 48.2566 30.4272 46.4763 34.8197C46.3114 35.2267 46.3715 35.7252 46.328 36.1825C46.4815 36.2581 46.6365 36.3359 46.7904 36.4106C50.554 29.5357 55.3945 23.6209 61.9917 19.328C64.6219 17.617 67.3708 16.1179 70.5697 15.7755C72.3231 15.5874 73.7961 16.0627 74.7155 17.5346C76.6572 20.6467 72.8263 23.8359 70.6817 25.5443C67.4399 28.1288 63.9226 30.5357 61.0316 33.5192C59.1661 35.4448 57.2191 37.5104 56.5003 40.2942C57.176 39.6342 57.9295 40.7761 58.7841 38.6871C61.0934 36.5059 63.2342 34.0942 65.7429 32.1873C71.2428 28.0074 77.3619 25.1501 84.2643 24.5381C87.5379 24.2471 90.8155 24.191 93.8479 25.8608C96.6661 27.4116 96.3069 30.7368 93.9786 32.232C92.4886 33.1905 90.5905 33.8074 88.834 33.9659C80.5567 34.7106 73.7524 38.4782 67.8359 44.2286C67.0889 44.9568 66.3633 45.7059 65.6274 46.4438C66.7315 46.2006 67.8352 45.9545 68.9399 45.7089C75.1859 44.8793 80.1597 47.2291 84.2642 51.7361C87.9067 55.7364 90.1934 60.4474 91.1257 65.8238C91.4422 67.6499 91.1895 69.9015 90.1142 71.447C88.7873 73.3533 85.9517 74.0615 84.4323 71.7873C83.7337 70.7428 83.0989 69.6256 82.6272 68.4585C81.1545 64.8208 79.1047 61.583 76.1261 59.0793C69.6387 53.6285 59.1639 57.9889 55.7556 64.95C52.5061 71.5853 52.8336 79.0918 55.5267 85.8353C56.6818 88.7264 58.262 91.4268 59.9395 94.0418C62.8088 98.5138 66.2066 103.397 66.9221 108.798C67.5037 113.187 64.1432 122.147 59.0957 115.619C58.2927 114.581 57.6801 113.378 56.9258 112.3C55.5755 110.373 54.1819 108.475 52.8236 106.553C50.317 103.265 47.6981 100.063 45.162 96.799C40.3146 91.9557 34.0168 89.3651 30.7033 83.3416C30.2783 83.3023 29.3128 83.4938 28.8866 83.4714C28.7116 83.4596 28.5372 83.4587 28.3625 83.4523C28.1396 83.4437 27.9196 83.4333 27.6974 83.4296C25.033 83.3898 22.3843 83.706 19.7457 84.2427C19.7301 84.2402 19.7199 84.2348 19.7057 84.2312C19.4859 84.1677 19.2783 84.1022 19.0705 84.0321C18.6274 83.8863 18.1971 83.7311 17.7906 83.5542C16.0514 82.8081 12.6382 80.6513 12.056 77.4036C12.0113 77.2921 11.9659 77.1842 11.9199 77.0739C11.9342 76.8391 11.9513 76.6025 11.9729 76.3638C11.9766 76.0095 12.0146 75.6443 12.0931 75.2655C12.9528 68.8344 16.4439 62.284 23.0808 57.4492Z" fill="#FF6585"/>
<path d="M14.2143 85.9586C14.3187 86.0141 14.4388 86.0376 14.5596 86.0231L30.2346 84.1418C30.4339 84.1177 30.6067 83.9944 30.6936 83.8138C30.781 83.6334 30.7695 83.4213 30.6646 83.2505C25.7632 75.3044 30.3601 56.7751 30.4074 56.5883C30.4532 56.4054 30.4085 56.2107 30.2866 56.0659C30.2374 56.008 30.1785 55.9611 30.1141 55.9269C30.0168 55.8752 29.9047 55.8513 29.7912 55.8606L16.6527 56.9325C16.5205 56.9429 16.3953 56.9986 16.2986 57.0889C2.68553 69.853 13.9008 85.6276 14.016 85.7863C14.0686 85.8597 14.1368 85.9174 14.2143 85.9586Z" fill="#F9D555"/>
<path d="M51.1039 29.6636C51.1039 29.6636 50.8804 29.7723 50.5276 30.0216C50.1599 30.2623 49.6917 30.6543 49.1455 31.1537C48.8869 31.4128 48.6055 31.6955 48.3223 32.0071C48.0297 32.313 47.7501 32.6558 47.4793 33.0234C47.2025 33.3878 46.9222 33.7699 46.6474 34.1646C46.3854 34.5661 46.1481 34.9918 45.9012 35.4111C45.6693 35.8391 45.4156 36.2567 45.2166 36.6923C45.0189 37.128 44.8383 37.5644 44.6677 37.9871C44.497 38.4099 44.3427 38.8225 44.2018 39.2149C44.0667 39.6098 43.9851 40.0019 43.8962 40.3563C43.7192 41.0662 43.6123 41.6697 43.5469 42.0925C43.4812 42.5158 43.463 42.7629 43.463 42.7629C43.463 42.7629 43.6252 42.5676 43.8742 42.2177C44.1227 41.8675 44.4651 41.3663 44.8274 40.7504C45.0078 40.4439 45.2035 40.1111 45.4102 39.7601C45.6282 39.4158 45.8521 39.0506 46.0729 38.6695C46.2936 38.2883 46.5178 37.8933 46.7305 37.4844C46.9625 37.0871 47.1976 36.6836 47.4331 36.2797C47.6573 35.8698 47.8811 35.4597 48.1019 35.0564C48.3399 34.6649 48.5642 34.2719 48.7753 33.8869C48.9844 33.4995 49.1848 33.1237 49.3935 32.7797C49.5958 32.4309 49.7739 32.0895 49.9397 31.7727C50.3046 31.1691 50.5711 30.6198 50.7829 30.2592C50.9869 29.8802 51.1039 29.6636 51.1039 29.6636Z" fill="#074785"/>
<path d="M62.8926 34.643C62.8926 34.643 62.6501 34.7215 62.2572 34.9228C61.8506 35.113 61.3175 35.4399 60.6888 35.8624C60.3849 36.0831 60.0602 36.3285 59.7259 36.6006C59.3855 36.8669 59.0415 37.1644 58.7136 37.4977C58.3772 37.8239 58.0354 38.1675 57.6966 38.5249C57.3586 38.8835 57.0606 39.2841 56.7432 39.6698C56.4399 40.0656 56.126 40.4545 55.8459 40.8581C55.5779 41.2695 55.3279 41.6838 55.0897 42.0857C54.8507 42.4877 54.6301 42.882 54.4259 43.2577C54.22 43.6318 54.084 44.021 53.9369 44.3653C53.6483 45.0575 53.4459 45.6513 53.3141 46.0693C53.1818 46.4871 53.1251 46.7345 53.1251 46.7345C53.1251 46.7345 53.3174 46.5598 53.6193 46.2412C53.9219 45.9224 54.3423 45.464 54.7983 44.8932C55.0358 44.6138 55.2652 44.2945 55.5391 43.9785C55.8119 43.662 56.0931 43.326 56.3743 42.973C56.6554 42.62 56.9428 42.2541 57.2198 41.8722C57.5175 41.5065 57.8199 41.1356 58.1223 40.7633C58.4149 40.3839 58.7072 40.005 58.9948 39.6314C59.2974 39.2709 59.5858 38.9081 59.8604 38.5503C60.1307 38.1883 60.4006 37.8469 60.6639 37.5286C60.9248 37.2077 61.1579 36.8877 61.3784 36.5961C61.8436 36.0412 62.201 35.5299 62.4725 35.1964C62.74 34.8446 62.8926 34.643 62.8926 34.643Z" fill="#074785"/>
<path fill-rule="evenodd" clip-rule="evenodd" d="M70.6685 108.806C70.5544 108.746 70.4603 108.648 70.4057 108.522C64.2439 94.3563 59.2157 80.7742 65.2909 70.3194C67.6177 66.3135 71.3682 65.1763 75.323 67.2777C80.1237 69.8286 84.6263 77.2593 83.0643 84.8921C88.468 79.1772 97.3485 78.6172 102.108 81.146C105.947 83.186 107.11 86.8676 105.22 90.9953C100.183 101.991 86.1889 105.721 71.063 108.863C70.9254 108.892 70.786 108.869 70.6685 108.806Z" fill="#A089E4"/>
<path d="M94.6763 90.6723C97.5017 92.0541 98.1098 95.1393 96.8096 98.0497C96.1447 99.5409 93.8963 98.69 94.5629 97.1945C95.2919 95.5645 95.3064 94.0488 93.8027 93.0685C92.1518 91.9911 90.5795 92.8928 89.9498 94.7127C89.418 96.2591 87.1731 95.3957 87.7067 93.8582C88.7935 90.7181 91.8304 89.2765 94.6763 90.6723Z" fill="#074785"/>
<path d="M72.3761 79.3895C75.1552 80.8584 75.6799 83.9624 74.302 86.8381C73.5959 88.3112 71.3754 87.3946 72.0837 85.916C72.8551 84.3053 72.9127 82.7891 71.4374 81.7653C69.8175 80.6381 68.2254 81.495 67.5476 83.2978C66.971 84.8307 64.757 83.8993 65.3303 82.3763C66.5009 79.2632 69.5754 77.9111 72.3761 79.3895Z" fill="#074785"/>
<path d="M77.8287 87.2487C78.0538 86.5962 78.5625 86.0977 79.2726 86.2254C79.8554 86.331 80.4242 87.0206 80.1992 87.6764C79.8731 88.6191 79.3187 90.2619 80.139 91.0396C81.303 92.1404 82.7632 90.6754 83.3643 89.6163C84.1658 88.2022 86.3199 89.2584 85.5127 90.6883C84.1738 93.0478 81.7593 94.6894 79.2353 93.451C76.9623 92.3394 77.074 89.4383 77.8287 87.2487Z" fill="#074785"/>
<path fill-rule="evenodd" clip-rule="evenodd" d="M129.09 111.309C125.327 117.572 117.049 121.35 109.864 120.27C107.45 119.906 106.843 123.651 109.266 124.017C118.259 125.371 127.89 120.622 132.542 112.88C133.801 110.787 130.335 109.237 129.09 111.309Z" fill="white"/>
<path fill-rule="evenodd" clip-rule="evenodd" d="M135.455 104.343C133.228 103.328 131.655 106.78 133.881 107.794C136.107 108.808 137.681 105.355 135.455 104.343Z" fill="white"/>
<path fill-rule="evenodd" clip-rule="evenodd" d="M103.946 118.607C101.72 117.594 100.148 121.046 102.373 122.059C104.599 123.074 106.171 119.622 103.946 118.607Z" fill="white"/>
<path fill-rule="evenodd" clip-rule="evenodd" d="M41.1238 82.5138C36.0198 77.2852 34.4655 68.319 37.3345 61.6427C38.2987 59.4 34.8306 57.8626 33.8621 60.1134C30.2701 68.4684 32.4203 78.9894 38.7277 85.454C40.4325 87.2029 42.812 84.244 41.1238 82.5138Z" fill="white"/>
<path fill-rule="evenodd" clip-rule="evenodd" d="M46.2376 90.4374C47.7845 88.5401 44.8451 86.1424 43.2986 88.04C41.7523 89.935 44.6932 92.3335 46.2376 90.4374Z" fill="white"/>
<path fill-rule="evenodd" clip-rule="evenodd" d="M40.4337 56.3413C41.9793 54.4466 39.0391 52.0491 37.495 53.9447C35.9471 55.8402 38.8871 58.2369 40.4337 56.3413Z" fill="white"/>
<path d="M77.6788 99.0645C77.5624 98.7063 78.8068 95.206 78.3572 95.0003C77.9066 94.7953 75.8169 97.8106 75.5003 97.9147C74.8658 98.1229 71.7141 96.8342 71.5195 97.2592C71.3254 97.6832 74.1598 99.4395 74.3608 100.062C74.4739 100.409 73.2315 103.921 73.6821 104.128C74.1304 104.333 76.2084 101.323 76.5377 101.217C77.1504 101.016 80.3338 102.301 80.5295 101.874C80.7244 101.447 77.8714 99.6647 77.6788 99.0645Z" fill="white"/>
<path d="M127.723 99.1727C127.591 98.765 129.006 94.7824 128.495 94.5492C127.983 94.3155 125.605 97.7473 125.243 97.8642C124.522 98.1007 120.936 96.6352 120.714 97.1193C120.493 97.6012 123.718 99.5995 123.948 100.308C124.076 100.703 122.662 104.7 123.175 104.935C123.685 105.169 126.051 101.743 126.424 101.622C127.121 101.393 130.744 102.854 130.967 102.369C131.189 101.884 127.942 99.8562 127.723 99.1727Z" fill="#074785"/>
<path d="M21.059 67.157C20.9266 66.7494 22.3422 62.7668 21.8306 62.5333C21.3185 62.2996 18.9399 65.7314 18.5794 65.8486C17.8577 66.0851 14.2715 64.6196 14.05 65.1037C13.8288 65.586 17.0542 67.5839 17.2841 68.2923C17.4119 68.6878 15.9983 72.685 16.5109 72.919C17.0214 73.1533 19.3873 69.727 19.7603 69.6061C20.4571 69.3771 24.0804 70.839 24.3032 70.3536C24.5249 69.869 21.2775 67.8405 21.059 67.157Z" fill="#074785"/>
<path d="M113.477 112.74C113.051 113.542 112.055 113.847 111.252 113.42C110.45 112.994 110.145 111.998 110.571 111.196C110.998 110.393 111.994 110.088 112.796 110.514C113.599 110.941 113.904 111.937 113.477 112.74Z" fill="white"/>
<path d="M88.0551 118.044C87.6294 118.846 86.633 119.151 85.8302 118.725C85.0279 118.299 84.7235 117.302 85.1495 116.5C85.5761 115.698 86.5726 115.393 87.3744 115.819C88.1773 116.245 88.4817 117.242 88.0551 118.044Z" fill="white"/>
<path d="M138.594 127.951C138.168 128.752 137.172 129.058 136.369 128.631C135.567 128.205 135.263 127.208 135.689 126.407C136.115 125.604 137.111 125.299 137.914 125.725C138.716 126.152 139.021 127.148 138.594 127.951Z" fill="white"/>
<path d="M128.196 138.818C127.77 139.62 126.774 139.925 125.971 139.498C125.169 139.072 124.864 138.076 125.29 137.274C125.717 136.471 126.713 136.166 127.515 136.592C128.317 137.018 128.622 138.015 128.196 138.818Z" fill="white"/>
<path d="M146.282 101.279C145.856 102.081 144.86 102.386 144.057 101.959C143.254 101.533 142.95 100.537 143.376 99.7348C143.802 98.9325 144.799 98.6268 145.601 99.0531C146.403 99.4794 146.708 100.476 146.282 101.279Z" fill="white"/>
<path d="M156.54 81.9663C156.114 82.7676 155.117 83.0733 154.315 82.6467C153.512 82.2204 153.208 81.2241 153.634 80.4223C154.06 79.6195 155.057 79.3143 155.859 79.7406C156.661 80.1669 156.966 81.1635 156.54 81.9663Z" fill="white"/>
<path d="M145.672 66.3647C145.246 67.1665 144.25 67.4718 143.447 67.0452C142.645 66.6189 142.341 65.6226 142.767 64.8208C143.193 64.018 144.189 63.7127 144.992 64.139C145.794 64.5656 146.099 65.5624 145.672 66.3647Z" fill="white"/>
<path d="M125.602 86.4194C125.176 87.2207 124.179 87.5262 123.377 87.0999C122.575 86.6735 122.27 85.6773 122.696 84.8755C123.123 84.0726 124.119 83.7674 124.921 84.1937C125.724 84.62 126.029 85.6166 125.602 86.4194Z" fill="white"/>
<path d="M133.274 59.771C132.848 60.5728 131.851 60.8777 131.049 60.4514C130.247 60.0251 129.942 59.0288 130.368 58.227C130.795 57.4242 131.791 57.119 132.593 57.5453C133.395 57.9716 133.7 58.9687 133.274 59.771Z" fill="white"/>
<path d="M108 72.4507C107.574 73.2525 106.578 73.5577 105.776 73.1311C104.973 72.7048 104.669 71.7085 105.095 70.9067C105.521 70.1044 106.517 69.7986 107.32 70.225C108.122 70.6513 108.427 71.6478 108 72.4507Z" fill="white"/>
<path d="M101.266 88.6225C100.84 89.4243 99.844 89.7296 99.0412 89.303C98.2389 88.8767 97.9344 87.8804 98.3604 87.0786C98.7868 86.2763 99.7831 85.9705 100.585 86.3968C101.388 86.8239 101.692 87.8202 101.266 88.6225Z" fill="white"/>
<path d="M74.477 74.021C74.051 74.8228 73.0549 75.128 72.2521 74.7014C71.4503 74.2754 71.1456 73.2783 71.5714 72.477C71.998 71.6742 72.9945 71.3692 73.7963 71.7953C74.5991 72.2219 74.9036 73.2181 74.477 74.021Z" fill="white"/>
<path d="M83.1489 57.7006C82.7228 58.5024 81.7268 58.8077 80.924 58.3811C80.1222 57.9551 79.8172 56.9585 80.2433 56.1567C80.6698 55.3539 81.6664 55.0489 82.4682 55.475C83.271 55.9015 83.5755 56.8978 83.1489 57.7006Z" fill="white"/>
<path d="M56.5083 53.685C56.0822 54.4868 55.0862 54.7921 54.2834 54.3655C53.4811 53.9392 53.1766 52.9429 53.6026 52.1411C54.0292 51.3383 55.0253 51.033 55.8276 51.4593C56.6304 51.8859 56.9349 52.8822 56.5083 53.685Z" fill="white"/>
<path d="M45.1255 71.6069C44.6994 72.4087 43.7034 72.7139 42.9005 72.2874C42.0982 71.861 41.7938 70.8648 42.2198 70.063C42.6464 69.2601 43.6424 68.9549 44.4448 69.3812C45.2476 69.8078 45.552 70.8041 45.1255 71.6069Z" fill="white"/>
<path d="M46.3598 26.0678C45.9338 26.8696 44.9377 27.1749 44.1349 26.7483C43.3326 26.322 43.0281 25.3257 43.4542 24.5239C43.8808 23.7211 44.8768 23.4158 45.6791 23.8421C46.4819 24.2687 46.7864 25.265 46.3598 26.0678Z" fill="white"/>
<path d="M55.7348 100.318C55.3088 101.12 54.3127 101.425 53.5099 100.998C52.7076 100.572 52.4031 99.5757 52.8292 98.7739C53.2558 97.9711 54.2518 97.6658 55.0541 98.0922C55.8569 98.5187 56.1614 99.515 55.7348 100.318Z" fill="white"/>
<path d="M77.3208 31.4741C76.8947 32.2759 75.8987 32.5811 75.0959 32.1545C74.2935 31.7282 73.9893 30.7314 74.4151 29.9301C74.8417 29.1273 75.8378 28.8221 76.6401 29.2484C77.4429 29.675 77.7474 30.6713 77.3208 31.4741Z" fill="white"/>
<path d="M61.7036 28.9585C61.2775 29.7603 60.2815 30.0655 59.4787 29.6389C58.6764 29.2126 58.3719 28.2163 58.7979 27.4145C59.2245 26.6117 60.2211 26.3067 61.0229 26.7328C61.8252 27.1591 62.1302 28.1556 61.7036 28.9585Z" fill="white"/>
</svg>
