<svg width="101" height="79" viewBox="0 0 101 79" fill="none" xmlns="http://www.w3.org/2000/svg">
<path fill-rule="evenodd" clip-rule="evenodd" d="M100.827 53.0319C101.893 59.513 97.9219 65.6139 92.003 66.5867L19.9291 78.4429C14.0091 79.4167 8.29393 74.9111 7.22765 68.429L0.173288 25.5433C-0.893506 19.0612 3.07737 12.9624 8.99734 11.9886L81.0707 0.132365C86.9907 -0.841421 92.7064 3.66413 93.7721 10.1452L100.827 53.0319Z" fill="#29AEFD"/>
<path fill-rule="evenodd" clip-rule="evenodd" d="M92.728 53.7662C93.0314 55.6085 91.8655 57.335 90.1238 57.6217L18.8463 69.3468C17.105 69.6334 15.4477 68.3719 15.1437 66.5286L8.28252 24.8164C7.97859 22.974 9.14551 21.247 10.8862 20.9609L82.1632 9.23578C83.9055 8.94964 85.5628 10.2116 85.8652 12.055L92.728 53.7662Z" fill="#074785"/>
<path fill-rule="evenodd" clip-rule="evenodd" d="M89.4405 51.3746C89.7257 53.1107 88.6065 54.7396 86.9405 55.0136L22.7509 65.5722C21.0849 65.8462 19.5028 64.662 19.2181 62.9269L18.7008 59.7839C18.4151 58.0488 19.5343 56.4199 21.2003 56.1459L85.3899 45.5862C87.0559 45.3123 88.638 46.4975 88.9226 48.2326L89.4405 51.3746Z" fill="#FFA4AC"/>
<path fill-rule="evenodd" clip-rule="evenodd" d="M86.3112 39.2907C86.5963 41.0258 85.4538 42.6588 83.7578 42.9378L21.3414 53.2058C19.6454 53.4848 18.0399 52.3036 17.7548 50.5675L14.3953 30.1434C14.1097 28.4083 15.2527 26.7753 16.9477 26.4963L79.364 16.2283C81.06 15.9493 82.6661 17.1304 82.9522 18.8656L86.3112 39.2907Z" fill="#F9D555"/>
<path fill-rule="evenodd" clip-rule="evenodd" d="M45.0882 35.5594C46.1951 42.2905 41.839 48.612 35.3574 49.6767C28.8763 50.743 22.7256 46.1506 21.6172 39.4195C20.5102 32.6883 24.8668 26.3679 31.3479 25.3021C37.8295 24.2363 43.9812 28.8283 45.0882 35.5594Z" fill="#074785"/>
<path fill-rule="evenodd" clip-rule="evenodd" d="M41.2225 36.2689C41.9233 40.5295 39.1656 44.5298 35.0631 45.2048C30.9611 45.8797 27.068 42.9726 26.3666 38.7131C25.6658 34.4515 28.4235 30.4521 32.5255 29.7772C36.628 29.1017 40.5221 32.0073 41.2225 36.2689Z" fill="white"/>
<path fill-rule="evenodd" clip-rule="evenodd" d="M77.1038 30.5662C78.2117 37.2983 73.8551 43.6198 67.3735 44.6845C60.892 45.7508 54.7407 41.1584 53.6328 34.4273C52.5258 27.6961 56.8825 21.3757 63.3635 20.3099C69.8451 19.2441 75.9968 23.8361 77.1038 30.5662Z" fill="#074785"/>
<path d="M81.7576 37.0766C81.5939 36.9175 81.2661 34.7011 80.9683 34.7189C80.67 34.7366 80.4102 36.9353 80.2705 37.0801C79.9904 37.3708 77.9443 37.5767 77.961 37.8583C77.9778 38.1393 79.9874 38.272 80.271 38.5469C80.4301 38.7009 80.7625 40.9234 81.0608 40.9067C81.3586 40.8889 81.6143 38.6958 81.7591 38.5459C82.029 38.2648 84.0914 38.0488 84.0746 37.7657C84.0584 37.4837 82.0315 37.3424 81.7576 37.0766Z" fill="#074785"/>
<path d="M19.3904 29.8188C19.2267 29.6612 18.8989 27.4433 18.6011 27.461C18.3023 27.4798 18.042 29.6785 17.9033 29.8233C17.6238 30.1141 15.5771 30.3199 15.5939 30.6015C15.6106 30.8825 17.6202 31.0152 17.9043 31.2901C18.0629 31.4431 18.3958 33.6666 18.6941 33.6499C18.9919 33.6311 19.2471 31.439 19.3924 31.2886C19.6623 31.0086 21.7247 30.7921 21.708 30.5095C21.6912 30.2269 19.6638 30.0851 19.3904 29.8188Z" fill="#074785"/>
<path fill-rule="evenodd" clip-rule="evenodd" d="M27.1648 64.8442L41.3284 62.5144L39.5008 53.1328L25.2188 55.4824L27.1648 64.8442Z" fill="#A089E4"/>
<path fill-rule="evenodd" clip-rule="evenodd" d="M40.844 62.5953L55.1026 60.2488L53.2745 50.8672L38.8984 53.2315L40.844 62.5953Z" fill="#7BEFE5"/>
<path fill-rule="evenodd" clip-rule="evenodd" d="M54.6018 60.3265L69.1344 57.9358L67.3062 48.5547L52.6562 50.9648L54.6018 60.3265Z" fill="#29AEFD"/>
<path fill-rule="evenodd" clip-rule="evenodd" d="M68.7659 58.0037L82.8944 55.679L81.0663 46.2969L66.8203 48.6409L68.7659 58.0037Z" fill="#FD6085"/>
<path fill-rule="evenodd" clip-rule="evenodd" d="M72.4881 31.2774C73.189 35.5379 70.4318 39.5383 66.3293 40.2132C62.2267 40.8871 58.3336 37.981 57.6323 33.7215C56.9314 29.4599 59.6891 25.4606 63.7911 24.7846C67.8941 24.1107 71.7872 27.0163 72.4881 31.2774Z" fill="white"/>
<path d="M63.7049 18.7964L30.9297 24.1875L35.3227 50.8948L68.0979 45.5037L63.7049 18.7964Z" fill="#FFA4AC"/>
<path d="M38.9681 31.3594C36.553 31.7523 35.3947 33.954 35.6951 36.4708C35.849 37.7581 37.7148 37.6372 37.5598 36.3437C37.391 34.9344 37.727 33.7796 39.0698 33.3858C40.5442 32.9522 41.5047 34.0043 41.5566 35.5351C41.6003 36.8347 43.465 36.7015 43.4218 35.408C43.3324 32.7672 41.4016 30.9625 38.9681 31.3594Z" fill="#074785"/>
<path d="M58.1248 27.9824C55.7228 28.451 54.6245 30.6893 54.9909 33.196C55.179 34.4803 57.0381 34.3009 56.8506 33.0125C56.6442 31.6077 56.9492 30.4423 58.2808 30.0068C59.742 29.5285 60.729 30.5516 60.822 32.0804C60.8997 33.3799 62.7594 33.1894 62.6811 31.8969C62.521 29.2581 60.5455 27.5133 58.1248 27.9824Z" fill="#074785"/>
<path d="M52.8698 36.2481C52.8129 35.7013 52.5146 35.2246 51.953 35.1961C51.494 35.1742 50.9416 35.6083 50.998 36.1562C51.0798 36.9455 51.213 38.3162 50.4552 38.7736C49.3818 39.4191 48.53 38.0229 48.2611 37.0959C47.9013 35.8563 46.0828 36.2908 46.4462 37.5416C47.0474 39.6091 48.591 41.3107 50.7195 40.8035C52.636 40.3471 53.0589 38.0788 52.8698 36.2481Z" fill="#074785"/>
<path d="M40.8748 43.1625C40.7111 43.0045 40.3828 40.787 40.085 40.8048C39.7866 40.8236 39.5269 43.0222 39.3877 43.1671C39.1076 43.4568 37.0615 43.6636 37.0782 43.9442C37.095 44.2263 39.1046 44.3579 39.3882 44.6328C39.5473 44.7868 39.8796 47.0104 40.178 46.9926C40.4763 46.9748 40.7315 44.7828 40.8763 44.6318C41.1462 44.3518 43.2086 44.1343 43.1918 43.8517C43.1751 43.5706 41.1482 43.4288 40.8748 43.1625Z" fill="white"/>
<path d="M53.4211 24.4125C53.258 24.2544 52.9302 22.037 52.6318 22.0548C52.3335 22.0726 52.0733 24.2722 51.9345 24.4171C51.655 24.7078 49.6083 24.9136 49.6251 25.1952C49.6419 25.4763 51.6515 25.6089 51.935 25.8828C52.0936 26.0358 52.4265 28.2604 52.7243 28.2426C53.0227 28.2248 53.2778 26.0318 53.4227 25.8818C53.6925 25.6018 55.755 25.3843 55.7382 25.1017C55.7219 24.8196 53.6951 24.6783 53.4211 24.4125Z" fill="white"/>
<path fill-rule="evenodd" clip-rule="evenodd" d="M14.1549 13.8495C11.8206 14.0203 12.0859 17.6415 14.4208 17.4707C16.7546 17.299 16.4898 13.6798 14.1549 13.8495Z" fill="white"/>
<path fill-rule="evenodd" clip-rule="evenodd" d="M41.5437 9.66234C34.6297 10.6671 27.7384 11.8173 20.8233 12.82C18.5617 13.1484 19.0684 16.6577 21.3306 16.3299C28.2452 15.3251 35.1374 14.175 42.0505 13.1712C44.3141 12.8429 43.8069 9.33351 41.5437 9.66234Z" fill="white"/>
<path fill-rule="evenodd" clip-rule="evenodd" d="M48.4843 8.54484C46.2043 8.71256 46.4635 12.2484 48.744 12.0817C51.0239 11.914 50.7647 8.37712 48.4843 8.54484Z" fill="white"/>
<path fill-rule="evenodd" clip-rule="evenodd" d="M52.9876 66.8538C50.6584 67.08 51.009 70.6936 53.3393 70.4679C55.6691 70.2418 55.3179 66.6287 52.9876 66.8538Z" fill="white"/>
<path fill-rule="evenodd" clip-rule="evenodd" d="M80.2743 62.0215C73.3856 63.1879 66.5234 64.5012 59.6347 65.6676C57.3812 66.0508 57.9712 69.547 60.2248 69.1648C67.1134 67.9984 73.9767 66.6851 80.8638 65.5166C83.1194 65.1355 82.5288 61.6383 80.2743 62.0215Z" fill="white"/>
<path fill-rule="evenodd" clip-rule="evenodd" d="M87.1853 60.7364C84.9099 60.959 85.253 64.4877 87.5284 64.2661C89.8043 64.0451 89.4612 60.5164 87.1853 60.7364Z" fill="white"/>
<path fill-rule="evenodd" clip-rule="evenodd" d="M58.8336 14.9948C57.6941 15.0771 57.8192 16.8443 58.9597 16.7629C60.0986 16.6826 59.9736 14.9155 58.8336 14.9948Z" fill="#7BEFE5"/>
<path fill-rule="evenodd" clip-rule="evenodd" d="M72.2073 12.9868C68.8316 13.4681 65.4671 14.0221 62.0914 14.5034C60.9875 14.6614 61.2304 16.3757 62.3348 16.2177C65.7105 15.7353 69.0756 15.1814 72.4508 14.699C73.5557 14.5425 73.3123 12.8292 72.2073 12.9868Z" fill="#7BEFE5"/>
<path fill-rule="evenodd" clip-rule="evenodd" d="M75.5965 12.4479C74.4835 12.5282 74.6054 14.2537 75.7195 14.1749C76.8325 14.0956 76.7095 12.3696 75.5965 12.4479Z" fill="#7BEFE5"/>
<path fill-rule="evenodd" clip-rule="evenodd" d="M59.2252 45.1096C58.7169 45.0125 58.3927 44.5449 58.4842 44.0413C58.5762 43.532 59.0646 43.1996 59.5733 43.2987C60.0795 43.3968 60.4038 43.8695 60.3108 44.3726C60.2147 44.8895 59.7436 45.2092 59.2252 45.1096Z" fill="white"/>
<path fill-rule="evenodd" clip-rule="evenodd" d="M39.967 28.3674C39.4588 28.2703 39.1345 27.8017 39.2265 27.2981C39.3185 26.7898 39.8069 26.4574 40.3157 26.5565C40.8214 26.6546 41.1461 27.1273 41.0531 27.6294C40.9571 28.1468 40.4854 28.4665 39.967 28.3674Z" fill="white"/>
<path fill-rule="evenodd" clip-rule="evenodd" d="M78.7172 22.953C78.209 22.857 77.8852 22.3884 77.9762 21.8847C78.0687 21.3765 78.5571 21.0441 79.0654 21.1422C79.5711 21.2403 79.8958 21.7139 79.8028 22.2161C79.7068 22.734 79.2361 23.0536 78.7172 22.953Z" fill="white"/>
<path fill-rule="evenodd" clip-rule="evenodd" d="M21.5372 50.7341C21.0294 50.636 20.7052 50.1694 20.7967 49.6653C20.8892 49.157 21.3771 48.8246 21.8863 48.9237C22.392 49.0218 22.7173 49.4945 22.6233 49.9966C22.5267 50.5135 22.0561 50.8332 21.5372 50.7341Z" fill="white"/>
</svg>
