<svg width="74" height="81" viewBox="0 0 74 81" fill="none" xmlns="http://www.w3.org/2000/svg">
<path d="M26.7162 47.5709L24.1953 48.1016L28.5557 68.8157L31.0766 68.285L26.7162 47.5709Z" fill="#F9D555"/>
<path d="M46.6964 47.575L42.3359 68.2891L44.8568 68.8197L49.2172 48.1056L46.6964 47.575Z" fill="#F9D555"/>
<path d="M37.8277 58.6641H35.5703V68.2131H37.8277V58.6641Z" fill="#F9D555"/>
<path fill-rule="evenodd" clip-rule="evenodd" d="M36.4169 10.1087C36.4169 10.1087 28.3966 -4.23512 10.8627 2.35659C-6.67455 8.94907 0.771885 29.3936 7.30323 37.1247C14.8456 46.0559 31.8177 62.1229 37.2005 62.351C42.5822 62.5818 69.3376 38.2251 72.7229 23.9084C76.1124 9.59059 65.9959 1.01013 56.1328 0.0579793C46.2678 -0.890353 36.4169 10.1087 36.4169 10.1087Z" fill="#A089E4"/>
<path fill-rule="evenodd" clip-rule="evenodd" d="M27.9375 69.8047L29.7463 79.1455C29.9442 80.1657 30.9556 80.9997 31.9941 80.9997H42.4074C43.4459 80.9997 44.447 80.1634 44.6311 79.1409L46.3188 69.8047H27.9375Z" fill="#FD6085"/>
<path fill-rule="evenodd" clip-rule="evenodd" d="M47.8523 69.396C47.8523 70.3581 47.0724 71.138 46.1103 71.138H27.9915C27.0298 71.138 26.25 70.3581 26.25 69.396V68.9677C26.25 68.0064 27.0298 67.2266 27.9915 67.2266H46.1103C47.0724 67.2266 47.8523 68.0064 47.8523 68.9677V69.396Z" fill="#FFA4AC"/>
<path fill-rule="evenodd" clip-rule="evenodd" d="M35.6681 31.9703C33.9633 37.0658 28.4502 39.8157 23.3516 38.1112C18.2535 36.4059 15.5032 30.8917 17.2085 25.7959C18.9126 20.6989 24.4268 17.949 29.5238 19.6535C34.622 21.3583 37.3722 26.8718 35.6681 31.9703Z" fill="white"/>
<path fill-rule="evenodd" clip-rule="evenodd" d="M33.1866 31.14C31.9391 34.8676 27.9085 36.8781 24.182 35.6318C20.4544 34.3846 18.4428 30.3529 19.6899 26.626C20.9366 22.8984 24.9684 20.8887 28.6948 22.135C32.4217 23.381 34.4334 27.4116 33.1866 31.14Z" fill="#074785"/>
<path fill-rule="evenodd" clip-rule="evenodd" d="M57.8138 31.2211C56.1094 36.3173 50.5959 39.0664 45.4997 37.3619C40.4011 35.6567 37.6524 30.1432 39.3565 25.0477C41.061 19.9484 46.5752 17.1986 51.6726 18.9038C56.7685 20.6091 59.5179 26.1218 57.8138 31.2211Z" fill="white"/>
<path fill-rule="evenodd" clip-rule="evenodd" d="M55.3368 30.3931C54.0908 34.1184 50.0576 36.1297 46.3303 34.8833C42.6027 33.637 40.5914 29.6045 41.8382 25.8784C43.0853 22.1492 47.1174 20.1383 50.8447 21.3851C54.5719 22.631 56.5835 26.6632 55.3368 30.3931Z" fill="#074785"/>
<path fill-rule="evenodd" clip-rule="evenodd" d="M27.186 31.9883C27.2185 32.6944 26.6076 33.2981 25.8208 33.3336C25.0338 33.3703 24.3697 32.827 24.3372 32.1209C24.3043 31.4133 24.9149 30.8119 25.7024 30.7752C26.4883 30.7385 27.1528 31.2818 27.186 31.9883Z" fill="white"/>
<path fill-rule="evenodd" clip-rule="evenodd" d="M26.941 27.3181C27.0109 28.7995 25.8596 30.0569 24.3707 30.1265C22.8817 30.1968 21.6189 29.0505 21.5497 27.5684C21.4817 26.0871 22.631 24.8296 24.1208 24.7609C25.6094 24.6909 26.8718 25.836 26.941 27.3181Z" fill="white"/>
<path fill-rule="evenodd" clip-rule="evenodd" d="M31.6394 29.4041C31.6879 30.4445 30.7889 31.3301 29.6319 31.3848C28.4742 31.4387 27.4957 30.6393 27.4472 29.5989C27.399 28.5593 28.2981 27.6736 29.4565 27.6197C30.6139 27.5662 31.5916 28.3644 31.6394 29.4041Z" fill="white"/>
<path fill-rule="evenodd" clip-rule="evenodd" d="M49.6779 30.9727C49.7111 31.6796 49.1001 32.2817 48.313 32.318C47.5263 32.3555 46.8619 31.8122 46.8294 31.1045C46.7962 30.3977 47.4071 29.7963 48.1942 29.7596C48.9817 29.7225 49.6454 30.2659 49.6779 30.9727Z" fill="white"/>
<path fill-rule="evenodd" clip-rule="evenodd" d="M49.434 26.2947C49.502 27.7768 48.352 29.0342 46.8626 29.1037C45.374 29.1733 44.1116 28.0286 44.0421 26.5465C43.9725 25.0644 45.1233 23.8077 46.6131 23.7374C48.1025 23.6678 49.3637 24.8133 49.434 26.2947Z" fill="white"/>
<path fill-rule="evenodd" clip-rule="evenodd" d="M54.1315 28.3803C54.1808 29.4207 53.2814 30.3072 52.1241 30.3614C50.9656 30.4153 49.9875 29.616 49.9393 28.5763C49.8916 27.5359 50.7906 26.6502 51.9491 26.5964C53.1064 26.5421 54.083 27.3414 54.1315 28.3803Z" fill="white"/>
<path d="M41.9998 38.072C41.9998 36.6323 39.7688 36.6323 39.7688 38.072C39.7688 39.5437 40.2257 43.9018 37.6398 43.4876C35.6029 43.1609 35.9487 39.7084 35.9506 38.2213C35.9514 36.7824 33.7204 36.7824 33.7188 38.2213C33.7162 40.9353 33.7425 45.1099 37.2115 45.6651C39.0126 45.954 40.6476 45.1459 41.3697 43.4464C42.0907 41.7495 41.9998 39.8777 41.9998 38.072Z" fill="#074785"/>
<path d="M14.4411 35.1847C22.3139 48.3292 34.0561 53.6023 33.8441 54.5934C34.1161 55.8455 20.6996 51.8451 11.6129 36.9259C2.38405 22.0934 4.85345 8.31275 5.84916 9.11971C6.82959 9.37685 6.25035 22.2359 14.4411 35.1847Z" fill="#7BEFE5"/>
<path d="M58.9679 34.8757C50.4994 47.645 38.5275 52.3733 38.6934 53.3732C38.3644 54.6111 51.9505 51.2316 61.7128 36.7453C71.6133 22.3522 69.7797 8.47335 68.7481 9.23294C67.7573 9.44461 67.7455 22.317 58.9679 34.8757Z" fill="#7BEFE5"/>
<path fill-rule="evenodd" clip-rule="evenodd" d="M16.5032 6.51221C21.0038 4.97356 26.7098 6.56685 29.8326 10.1187C30.8814 11.3127 32.7555 9.70376 31.7029 8.50516C27.7946 4.05732 21.0088 2.38074 15.4448 4.28046C13.9391 4.79436 15.0138 7.02115 16.5032 6.51221Z" fill="white"/>
<path fill-rule="evenodd" clip-rule="evenodd" d="M10.4096 7.30515C11.092 8.74408 13.3241 7.68647 12.6417 6.24754C11.9589 4.80823 9.72677 5.86737 10.4096 7.30515Z" fill="white"/>
<path fill-rule="evenodd" clip-rule="evenodd" d="M32.0733 13.431C32.7561 14.8699 34.9867 13.8108 34.3047 12.3726C33.6219 10.9333 31.3917 11.992 32.0733 13.431Z" fill="white"/>
<path d="M15.5227 17.2081C15.3462 17.0373 14.9923 14.6454 14.671 14.6642C14.3493 14.6844 14.0692 17.056 13.9187 17.2127C13.6176 17.526 11.4118 17.7476 11.4298 18.0513C11.4478 18.3551 13.6138 18.4984 13.9195 18.7945C14.0903 18.9603 14.4494 21.3587 14.7711 21.3392C15.0917 21.3205 15.3668 18.955 15.5235 18.7937C15.8142 18.4907 18.0368 18.2573 18.0188 17.952C18.0013 17.6479 15.8169 17.4946 15.5227 17.2081Z" fill="white"/>
<path d="M59.5316 12.9878C59.331 12.7937 58.9283 10.0721 58.563 10.0939C58.1973 10.1164 57.8779 12.8155 57.7064 12.9931C57.364 13.35 54.8545 13.6029 54.8751 13.9483C54.8954 14.293 57.3598 14.4565 57.7083 14.7939C57.9028 14.9819 58.3108 17.7119 58.6772 17.6901C59.0421 17.6683 59.3554 14.9761 59.5331 14.7924C59.8636 14.4485 62.393 14.1818 62.3731 13.8349C62.3525 13.4879 59.8659 13.3141 59.5316 12.9878Z" fill="#074785"/>
<path d="M45.1033 11.6811C45.1033 12.2722 44.6238 12.7521 44.0319 12.7521C43.4404 12.7521 42.9609 12.2722 42.9609 11.6811C42.9609 11.0893 43.4404 10.6094 44.0319 10.6094C44.6238 10.6098 45.1033 11.0897 45.1033 11.6811Z" fill="white"/>
<path d="M24.9548 12.8999C24.9548 13.491 24.4753 13.9709 23.8835 13.9709C23.292 13.9709 22.8125 13.491 22.8125 12.8999C22.8125 12.308 23.292 11.8281 23.8835 11.8281C24.4753 11.8281 24.9548 12.308 24.9548 12.8999Z" fill="white"/>
<path d="M30.6111 43.6421C30.6111 44.2331 30.1316 44.713 29.5397 44.713C28.9483 44.713 28.4688 44.2331 28.4688 43.6421C28.4688 43.0502 28.9483 42.5703 29.5397 42.5703C30.1316 42.5703 30.6111 43.0502 30.6111 43.6421Z" fill="white"/>
<path d="M49.322 42.3999C49.322 42.991 48.8425 43.4709 48.2507 43.4709C47.6592 43.4709 47.1797 42.991 47.1797 42.3999C47.1797 41.808 47.6592 41.3281 48.2507 41.3281C48.8425 41.3281 49.322 41.808 49.322 42.3999Z" fill="white"/>
<path d="M72.3767 21.7749C72.3767 22.366 71.8972 22.8459 71.3054 22.8459C70.7139 22.8459 70.2344 22.366 70.2344 21.7749C70.2344 21.183 70.7139 20.7031 71.3054 20.7031C71.8972 20.7031 72.3767 21.183 72.3767 21.7749Z" fill="white"/>
<path d="M4.78297 26.0405C4.78297 26.6316 4.30345 27.1115 3.7116 27.1115C3.12013 27.1115 2.64062 26.6316 2.64062 26.0405C2.64062 25.4486 3.12013 24.9688 3.7116 24.9688C4.30345 24.9691 4.78297 25.449 4.78297 26.0405Z" fill="white"/>
<path d="M56.7752 5.56394C56.7752 6.15503 56.2956 6.63491 55.7038 6.63491C55.1123 6.63491 54.6328 6.15503 54.6328 5.56394C54.6328 4.97209 55.1123 4.49219 55.7038 4.49219C56.2956 4.49219 56.7752 4.97209 56.7752 5.56394Z" fill="white"/>
<path d="M62.5564 23.353C62.5564 23.9441 62.0769 24.424 61.485 24.424C60.8936 24.424 60.4141 23.9441 60.4141 23.353C60.4141 22.7612 60.8936 22.2812 61.485 22.2812C62.0769 22.2816 62.5564 22.7612 62.5564 23.353Z" fill="white"/>
<path d="M38.9314 57.9389C38.9314 58.53 38.4519 59.0099 37.86 59.0099C37.2686 59.0099 36.7891 58.53 36.7891 57.9389C36.7891 57.3471 37.2686 56.8672 37.86 56.8672C38.4519 56.8672 38.9314 57.3471 38.9314 57.9389Z" fill="white"/>
<path d="M33.7127 74.6811C33.7127 75.2722 33.2331 75.7521 32.6413 75.7521C32.0498 75.7521 31.5703 75.2722 31.5703 74.6811C31.5703 74.0893 32.0498 73.6094 32.6413 73.6094C33.2331 73.6098 33.7127 74.0893 33.7127 74.6811Z" fill="white"/>
<path d="M41.072 77.6733C41.072 78.2644 40.5925 78.7443 40.0007 78.7443C39.4092 78.7443 38.9297 78.2644 38.9297 77.6733C38.9297 77.0815 39.4092 76.6016 40.0007 76.6016C40.5925 76.6016 41.072 77.0815 41.072 77.6733Z" fill="white"/>
</svg>
