<svg width="497" height="568" viewBox="0 0 497 568" fill="none" xmlns="http://www.w3.org/2000/svg">
<rect x="0.5" y="504" width="64" height="64" rx="16" fill="#161616"/>
<rect x="72.5" y="432" width="64" height="64" rx="16" fill="#0888FF"/>
<rect x="72.5" y="504" width="64" height="64" rx="16" fill="#161616"/>
<rect x="144.5" y="360" width="64" height="64" rx="16" fill="#161616"/>
<rect x="144.5" y="432" width="64" height="64" rx="16" fill="#161616"/>
<rect x="144.5" y="504" width="64" height="64" rx="16" fill="#161616"/>
<rect x="216.5" y="288" width="64" height="64" rx="16" fill="#161616"/>
<rect x="216.5" y="360" width="64" height="64" rx="16" fill="#161616"/>
<rect x="216.5" y="432" width="64" height="64" rx="16" fill="#161616"/>
<rect x="216.5" y="504" width="64" height="64" rx="16" fill="#161616"/>
<rect x="288.5" y="144" width="64" height="64" rx="16" fill="#161616"/>
<rect x="288.5" y="216" width="64" height="64" rx="16" fill="#161616"/>
<rect x="288.5" y="288" width="64" height="64" rx="16" fill="#161616"/>
<rect x="288.5" y="360" width="64" height="64" rx="16" fill="#161616"/>
<rect x="288.5" y="432" width="64" height="64" rx="16" fill="#161616"/>
<rect x="288.5" y="504" width="64" height="64" rx="16" fill="#161616"/>
<rect x="360.5" y="72" width="64" height="64" rx="16" fill="#161616"/>
<rect x="360.5" y="144" width="64" height="64" rx="16" fill="#161616"/>
<rect x="360.5" y="216" width="64" height="64" rx="16" fill="#161616"/>
<rect x="360.5" y="288" width="64" height="64" rx="16" fill="#161616"/>
<rect x="360.5" y="360" width="64" height="64" rx="16" fill="#161616"/>
<rect x="360.5" y="432" width="64" height="64" rx="16" fill="#161616"/>
<rect x="360.5" y="504" width="64" height="64" rx="16" fill="#FAAD14"/>
<rect x="432.5" width="64" height="64" rx="16" fill="#161616"/>
<rect x="432.5" y="72" width="64" height="64" rx="16" fill="#161616"/>
<rect x="432.5" y="144" width="64" height="64" rx="16" fill="#161616"/>
<rect x="432.5" y="216" width="64" height="64" rx="16" fill="#161616"/>
<rect x="432.5" y="288" width="64" height="64" rx="16" fill="#161616"/>
<rect x="432.5" y="360" width="64" height="64" rx="16" fill="#161616"/>
<rect x="432.5" y="432" width="64" height="64" rx="16" fill="#161616"/>
<rect x="432.5" y="504" width="64" height="64" rx="16" fill="#161616"/>
</svg>
