<svg width="48" height="45" viewBox="0 0 48 45" fill="none" xmlns="http://www.w3.org/2000/svg">
<path fill-rule="evenodd" clip-rule="evenodd" d="M33.3257 44.902C33.2027 44.902 33.0797 44.881 32.9597 44.835C17.7947 39.133 3.89571 32.994 0.427708 20.68C-0.595292 17.047 0.408706 14.675 1.43171 13.326C3.11771 11.099 6.21969 9.823 9.94269 9.823C14.6707 9.823 20.4607 11.958 24.1837 16.549C24.3027 12.976 25.5597 9.417 27.8717 6.30099C30.7547 2.41399 34.7817 0 38.3797 0C41.6737 0 44.2537 1.96901 45.6467 5.54401C50.2897 17.47 42.8847 30.737 34.2077 44.419C34.0097 44.726 33.6747 44.902 33.3257 44.902Z" fill="#29AEFD"/>
<path d="M40.2765 14.297C40.2765 15.908 38.9695 17.216 37.3565 17.216C35.7445 17.216 34.4375 15.908 34.4375 14.297C34.4375 12.684 35.7445 11.375 37.3565 11.375C38.9705 11.375 40.2765 12.683 40.2765 14.297Z" fill="white"/>
<path d="M19.0509 28.0694C19.0509 29.6804 17.744 30.9894 16.131 30.9894C14.519 30.9894 13.2109 29.6804 13.2109 28.0694C13.2109 26.4564 14.519 25.1484 16.131 25.1484C17.744 25.1484 19.0509 26.4564 19.0509 28.0694Z" fill="white"/>
</svg>
