<svg width="68" height="102" viewBox="0 0 68 102" fill="none" xmlns="http://www.w3.org/2000/svg">
<path fill-rule="evenodd" clip-rule="evenodd" d="M66.6594 28.8502C66.6555 28.8423 66.6525 28.8359 66.6496 28.828C64.033 23.1793 59.8697 20.1462 59.8697 20.1462L60.7687 23.4962C60.713 23.476 60.6588 23.4538 60.6031 23.4346C48.4318 19.3783 35.9337 17.5345 23.1098 17.9061C17.155 18.1294 12.4466 23.6204 12.3919 29.3613C12.0124 47.0774 9.44702 64.4712 4.69776 81.5436C4.25319 83.0695 4.15758 84.6807 4.36853 86.2539L1.96875 85.9158C1.96875 85.9158 4.78549 91.5818 8.91719 94.1644C8.92508 94.1693 8.93148 94.1733 8.93936 94.1767C9.75358 94.7765 10.6605 95.2645 11.6531 95.605C23.8254 99.6613 36.3235 101.504 49.1474 101.134C55.1012 100.91 59.8106 95.4192 59.8653 89.6773C60.2448 71.9613 62.8102 54.5675 67.5594 37.4961C68.3904 34.6414 68.004 31.4925 66.6594 28.8502Z" fill="#074785"/>
<path fill-rule="evenodd" clip-rule="evenodd" d="M54.8418 24.421C54.6367 25.8128 53.6835 26.8257 52.7146 26.6822L51.8378 26.5531C50.8673 26.4097 50.2483 25.1662 50.4533 23.7728L53.0177 6.38501C53.2227 4.99217 54.1749 3.98031 55.1439 4.12274L56.0217 4.25287C56.9912 4.3953 57.6112 5.63979 57.4061 7.03214L54.8418 24.421Z" fill="#FD6085"/>
<path fill-rule="evenodd" clip-rule="evenodd" d="M55.6043 84.3026C55.5496 90.0455 50.8412 95.5355 44.8864 95.7588C32.0625 96.1304 19.5644 94.2871 7.39209 90.2313C1.75567 88.2983 -1.16753 81.682 0.437242 76.1683C5.187 59.0969 7.75238 41.7032 8.13139 23.9871C8.1861 18.2452 12.8954 12.7552 18.8493 12.5309C31.6741 12.1603 44.1722 14.0036 56.3426 18.0594C61.98 19.9924 64.9032 26.6086 63.2984 32.1214C58.5487 49.1938 55.9843 66.5875 55.6043 84.3026Z" fill="#A089E4"/>
<path fill-rule="evenodd" clip-rule="evenodd" d="M52.6179 46.4809C51.1615 51.627 46.2654 55.3343 40.9749 54.5536C34.9846 53.6699 28.9938 52.7872 23.0035 51.9035C17.7131 51.1238 14.0955 46.1616 14.1857 40.814C14.3188 36.4063 14.2039 31.9779 14.1137 27.5509C13.9338 22.2911 19.3637 17.9745 25.9203 18.4408C33.2862 19.0731 40.6063 20.1525 47.8406 21.6725C54.2537 23.1196 58.206 28.8191 56.515 33.8034C55.1508 38.0145 53.7623 42.2221 52.6179 46.4809Z" fill="#074785"/>
<path fill-rule="evenodd" clip-rule="evenodd" d="M20.5938 73.3171C20.4021 74.6188 19.1921 75.5177 17.8909 75.326L13.7681 74.7178C12.4674 74.5261 11.5684 73.3161 11.7601 72.015L12.0509 70.0415C12.2436 68.7408 13.4536 67.8419 14.7538 68.0336L18.8766 68.6418C20.1773 68.8335 21.0773 70.0435 20.8846 71.3446L20.5938 73.3171Z" fill="#F9D555"/>
<path fill-rule="evenodd" clip-rule="evenodd" d="M19.1016 83.4421C18.9099 84.7438 17.6999 85.6427 16.3987 85.451L12.2769 84.8428C10.9752 84.6511 10.0762 83.4411 10.268 82.14L10.5587 80.1675C10.7505 78.8658 11.9614 77.9669 13.2616 78.1586L17.3844 78.7668C18.6861 78.9585 19.5851 80.1685 19.3924 81.4696L19.1016 83.4421Z" fill="#7BEFE5"/>
<path fill-rule="evenodd" clip-rule="evenodd" d="M33.8284 75.1767C33.6367 76.4774 32.4257 77.3764 31.1255 77.1847L27.0027 76.5775C25.702 76.3847 24.802 75.1748 24.9947 73.8736L25.2855 71.9011C25.4773 70.5995 26.6882 69.7005 27.9884 69.8932L32.1112 70.5004C33.4119 70.6921 34.3109 71.9031 34.1192 73.2033L33.8284 75.1767Z" fill="white"/>
<path fill-rule="evenodd" clip-rule="evenodd" d="M32.3362 85.2937C32.1435 86.5943 30.9335 87.4943 29.6333 87.3016L25.5105 86.6944C24.2098 86.5027 23.3098 85.2917 23.5025 83.9905L23.7933 82.0181C23.9851 80.7174 25.1951 79.8184 26.4962 80.0101L30.619 80.6173C31.9197 80.8091 32.8187 82.0201 32.627 83.3202L32.3362 85.2937Z" fill="#074785"/>
<path fill-rule="evenodd" clip-rule="evenodd" d="M47.0391 76.8405C46.8474 78.1422 45.6374 79.0412 44.3362 78.8495L40.2134 78.2413C38.9127 78.0495 38.0137 76.8396 38.2055 75.5384L38.4962 73.5659C38.689 72.2643 39.8989 71.3653 41.1991 71.557L45.3219 72.1652C46.6236 72.3569 47.5226 73.5669 47.3299 74.8681L47.0391 76.8405Z" fill="#7BEFE5"/>
<path fill-rule="evenodd" clip-rule="evenodd" d="M45.5547 86.9587C45.363 88.2594 44.153 89.1584 42.8519 88.9666L38.729 88.3584C37.4283 88.1667 36.5294 86.9567 36.7211 85.6566L37.0119 83.6831C37.2036 82.3815 38.4146 81.4825 39.7148 81.6742L43.8376 82.2824C45.1383 82.4741 46.0382 83.6851 45.8455 84.9853L45.5547 86.9587Z" fill="#F9D555"/>
<path d="M21.1384 54.8336C18.4941 54.4112 16.5552 56.2595 16.0328 58.9229C15.7642 60.2872 17.7465 60.7993 18.0156 59.4291C18.3073 57.9362 19.0427 56.8751 20.5716 56.9312C22.2493 56.9928 22.9004 58.3906 22.445 59.9663C22.0581 61.3044 24.0438 61.8047 24.4278 60.4725C25.2124 57.7533 23.8038 55.2589 21.1384 54.8336Z" fill="#074785"/>
<path d="M42.2003 57.9225C39.5462 57.5809 37.6576 59.4848 37.2061 62.1626C36.9749 63.5332 38.9706 63.9847 39.2027 62.6091C39.456 61.1083 40.1613 60.0255 41.6912 60.0349C43.3709 60.0457 44.0584 61.4228 43.6464 63.0113C43.296 64.3617 45.2935 64.8009 45.643 63.4578C46.3542 60.717 44.8776 58.2675 42.2003 57.9225Z" fill="#074785"/>
<path d="M34.144 63.2429C34.2652 62.6672 34.1139 62.0793 33.5392 61.8604C33.0686 61.6805 32.3485 61.9343 32.2253 62.512C32.0483 63.343 31.7304 64.7846 30.789 64.9916C29.4568 65.2844 29.0359 63.5707 29.064 62.5361C29.1025 61.1497 27.0645 60.9747 27.026 62.3715C26.9644 64.6831 28.0048 66.9404 30.3893 67.1489C32.5362 67.3372 33.731 65.172 34.144 63.2429Z" fill="#074785"/>
<path fill-rule="evenodd" clip-rule="evenodd" d="M43.7111 44.9493C37.9046 38.717 31.9612 32.6153 26.1547 26.383C24.8176 24.9478 22.5913 27.0203 23.928 28.4555C29.7344 34.6878 35.6779 40.7895 41.4834 47.0218C42.8215 48.456 45.0478 46.3845 43.7111 44.9493Z" fill="white"/>
<path fill-rule="evenodd" clip-rule="evenodd" d="M46.8148 37.2393C42.9029 33.0401 38.851 28.9725 34.9367 24.7742C34.0367 23.8077 31.809 25.8792 32.7109 26.8467C36.6243 31.045 40.6746 35.1131 44.589 39.3118C45.4904 40.2783 47.7167 38.2058 46.8148 37.2393Z" fill="white"/>
<path fill-rule="evenodd" clip-rule="evenodd" d="M33.7607 45.2315C29.8469 41.0333 25.796 36.9642 21.8826 32.7664C20.9817 31.7999 18.7549 33.8714 19.6559 34.8389C23.5687 39.0371 27.6196 43.1063 31.5339 47.303C32.4349 48.2705 34.6617 46.198 33.7607 45.2315Z" fill="white"/>
<path fill-rule="evenodd" clip-rule="evenodd" d="M49.3709 44.1058C48.8859 44.0127 48.5759 43.5657 48.6631 43.0846C48.7508 42.5996 49.2176 42.2818 49.7036 42.3759C50.1866 42.469 50.4966 42.9215 50.4084 43.402C50.3172 43.8949 49.8667 44.201 49.3709 44.1058Z" fill="white"/>
<path fill-rule="evenodd" clip-rule="evenodd" d="M43.0349 27.56C42.55 27.4668 42.2399 27.0188 42.3272 26.5378C42.4149 26.0528 42.8817 25.7349 43.3676 25.829C43.8506 25.9232 44.1616 26.3746 44.0724 26.8552C43.9808 27.349 43.5303 27.6541 43.0349 27.56Z" fill="white"/>
<path fill-rule="evenodd" clip-rule="evenodd" d="M17.7768 27.8637C17.2908 27.7705 16.9818 27.3235 17.0695 26.8424C17.1573 26.3575 17.624 26.0396 18.11 26.1337C18.593 26.2273 18.903 26.6798 18.8148 27.1599C18.7231 27.6542 18.2726 27.9593 17.7768 27.8637Z" fill="white"/>
<path fill-rule="evenodd" clip-rule="evenodd" d="M26.5502 48.3637C26.0652 48.27 25.7552 47.8235 25.843 47.3425C25.9317 46.8575 26.3974 46.5396 26.8834 46.6337C27.3664 46.7269 27.6774 47.1783 27.5882 47.6589C27.4965 48.1527 27.0461 48.4588 26.5502 48.3637Z" fill="white"/>
<path fill-rule="evenodd" clip-rule="evenodd" d="M39.5974 51.9662C39.1125 51.8731 38.8024 51.425 38.8897 50.945C38.9774 50.459 39.4441 50.1411 39.9301 50.2353C40.4131 50.3294 40.7231 50.7814 40.6349 51.2614C40.5437 51.7553 40.0933 52.0603 39.5974 51.9662Z" fill="white"/>
<path fill-rule="evenodd" clip-rule="evenodd" d="M26.8552 22.934C26.3703 22.8413 26.0603 22.3938 26.1475 21.9128C26.2362 21.4278 26.702 21.1099 27.1889 21.204C27.6714 21.2977 27.9819 21.7501 27.8937 22.2302C27.8015 22.7245 27.3516 23.0296 26.8552 22.934Z" fill="white"/>
<path fill-rule="evenodd" clip-rule="evenodd" d="M60.9905 6.19075C60.5553 9.14302 57.809 11.183 54.8577 10.7478C51.9055 10.3126 49.8655 7.56634 50.3007 4.61505C50.7359 1.66328 53.4821 -0.376702 56.4334 0.0584989C59.3857 0.494193 61.4257 3.23947 60.9905 6.19075Z" fill="#FD6085"/>
<path d="M50.9607 28.6221C50.802 28.4535 50.4831 26.0981 50.1943 26.1173C49.9035 26.1365 49.6511 28.4727 49.5166 28.626C49.245 28.935 47.2573 29.1533 47.2735 29.453C47.2898 29.7527 49.241 29.8931 49.5175 30.1844C49.6708 30.3471 49.9942 32.7094 50.284 32.6911C50.5738 32.6719 50.8212 30.3422 50.9626 30.1835C51.2243 29.8853 53.2269 29.6551 53.2101 29.3544C53.1953 29.0543 51.2263 28.9045 50.9607 28.6221Z" fill="#29AEFD"/>
<path d="M21.6237 43.7627C21.465 43.5941 21.1472 41.2387 20.8573 41.2579C20.5675 41.2772 20.3152 43.6133 20.1797 43.7666C19.9081 44.0756 17.9213 44.294 17.9376 44.5937C17.9539 44.8918 19.9051 45.0338 20.1806 45.3251C20.3349 45.4877 20.6582 47.85 20.948 47.8308C21.2378 47.8126 21.4853 45.4828 21.6257 45.3241C21.8884 45.0254 23.8909 44.7957 23.8742 44.4951C23.8579 44.1949 21.8894 44.0441 21.6237 43.7627Z" fill="#29AEFD"/>
<path fill-rule="evenodd" clip-rule="evenodd" d="M22.7433 64.7837C22.5796 65.8562 20.9719 66.5018 19.1517 66.2248C17.3326 65.9473 15.9905 64.8522 16.1541 63.7787C16.3168 62.7062 17.9255 62.0606 19.7447 62.3376C21.5638 62.6146 22.9069 63.7102 22.7433 64.7837Z" fill="#FFA4AC"/>
<path fill-rule="evenodd" clip-rule="evenodd" d="M44.1105 67.275C43.9468 68.3484 42.3391 68.9941 40.5199 68.7171C38.7007 68.4396 37.3577 67.3444 37.5213 66.271C37.6849 65.1975 39.2927 64.5529 41.1118 64.8298C42.931 65.1068 44.2741 66.203 44.1105 67.275Z" fill="#FFA4AC"/>
<path fill-rule="evenodd" clip-rule="evenodd" d="M24.8266 13.8051C23.3731 13.4818 22.8704 15.7351 24.3238 16.0585C25.7768 16.3828 26.2781 14.1304 24.8266 13.8051Z" fill="#7BEFE5"/>
<path fill-rule="evenodd" clip-rule="evenodd" d="M42.266 16.2829C37.8725 15.6254 33.4663 15.0621 29.0729 14.4051C27.6357 14.1912 27.2996 16.4199 28.7378 16.6353C33.1312 17.2918 37.5379 17.8561 41.9308 18.5116C43.369 18.727 43.7041 16.4968 42.266 16.2829Z" fill="#7BEFE5"/>
<path fill-rule="evenodd" clip-rule="evenodd" d="M46.6997 16.8669C45.2807 16.551 44.7908 18.7506 46.2097 19.0675C47.6277 19.383 48.1186 17.1833 46.6997 16.8669Z" fill="#7BEFE5"/>
<path fill-rule="evenodd" clip-rule="evenodd" d="M54.5582 64.7425C54.8441 61.1633 55.1654 57.6038 56.264 54.1671C56.8387 52.3701 54.0855 51.3676 53.5099 53.1671C52.3314 56.8527 51.9445 60.67 51.6385 64.5089C51.4876 66.3912 54.4084 66.6243 54.5582 64.7425Z" fill="white"/>
<path fill-rule="evenodd" clip-rule="evenodd" d="M56.1833 50.5426C58.067 50.6929 58.3001 47.7722 56.4174 47.6228C54.5346 47.472 54.3005 50.3927 56.1833 50.5426Z" fill="white"/>
<path fill-rule="evenodd" clip-rule="evenodd" d="M53.0747 71.4487C54.9575 71.6001 55.1916 68.6793 53.3078 68.529C51.4246 68.3792 51.1915 71.2984 53.0747 71.4487Z" fill="white"/>
<path fill-rule="evenodd" clip-rule="evenodd" d="M8.19745 55.0543C7.66909 58.8627 7.10574 62.6484 5.71783 66.2547C4.99184 68.1404 7.87412 69.3834 8.60011 67.4957C10.0886 63.6267 10.7382 59.5714 11.305 55.485C11.582 53.4815 8.47493 53.0513 8.19745 55.0543Z" fill="white"/>
<path fill-rule="evenodd" clip-rule="evenodd" d="M5.57908 70.1426C3.57508 69.8646 3.1448 72.9716 5.1488 73.2491C7.1523 73.5271 7.58258 70.4196 5.57908 70.1426Z" fill="white"/>
<path fill-rule="evenodd" clip-rule="evenodd" d="M10.1965 47.9785C8.19246 47.701 7.76171 50.8085 9.76619 51.086C11.7707 51.3635 12.2005 48.2554 10.1965 47.9785Z" fill="white"/>
</svg>
