<svg width="85" height="85" viewBox="0 0 85 85" fill="none" xmlns="http://www.w3.org/2000/svg">
<path fill-rule="evenodd" clip-rule="evenodd" d="M54.6725 70.0796C54.3619 70.3547 53.9361 70.4819 53.5071 70.4009C32.6921 66.4388 13.4128 61.634 6.19285 46.5351C3.86634 41.6733 4.57603 37.0768 8.13671 33.9231C11.721 30.7484 17.7915 29.4012 23.9769 30.4069C28.5361 31.1479 32.6428 33.0727 35.8863 35.9063C34.7638 27.6678 38.4341 19.5182 43.5577 14.9802C46.7575 12.1461 50.3206 10.8607 53.59 11.3593C56.5735 11.8154 59.1657 13.7408 61.0897 16.9302C69.7354 31.2608 63.1578 50.0127 55.0313 69.5788C54.9484 69.7772 54.8243 69.9451 54.6725 70.0796Z" fill="#FD6085"/>
<path d="M45.1309 53.2466C46.537 54.8342 46.3915 57.2665 44.8009 58.6752C43.2114 60.0831 40.7784 59.9347 39.3723 58.3471C37.9635 56.7566 38.1101 54.3235 39.6996 52.9156C41.291 51.5078 43.7221 51.6561 45.1309 53.2466Z" fill="white"/>
<path d="M57.8408 22.3413C59.2478 23.9298 59.1014 26.361 57.5109 27.7698C55.9214 29.1777 53.4902 29.0294 52.0832 27.4408C50.6745 25.8503 50.82 23.4181 52.4096 22.0102C54.0001 20.6015 56.4321 20.7507 57.8408 22.3413Z" fill="white"/>
</svg>
