<svg width="214" height="160" viewBox="0 0 214 160" fill="none" xmlns="http://www.w3.org/2000/svg">
<path fill-rule="evenodd" clip-rule="evenodd" d="M90.2101 54.7022C83.0707 51.7381 75.5134 50.8081 68.2396 51.6848C63.4917 52.0827 56.0688 54.4943 51.9948 56.9643C45.5947 60.5309 40.0273 65.7249 35.9932 72.3187C33.4652 76.6876 33.5969 82.1553 35.635 84.0675L84.4653 139.303C87.5507 143.219 90.1759 142.367 90.3697 137.384L97.4076 63.9961C97.9295 61.2506 94.8234 56.7502 90.2101 54.7022Z" fill="#FD6085"/>
<path fill-rule="evenodd" clip-rule="evenodd" d="M90.9052 62.9377C90.9295 68.1498 79.9504 72.4664 67.3748 76.6554C54.7394 80.6582 43.3201 83.6196 40.2747 79.3893C37.2161 75.2926 45.8739 63.9552 61.5957 58.8708C77.305 53.7425 90.9715 57.8262 90.9052 62.9377Z" fill="#F9D555"/>
<path fill-rule="evenodd" clip-rule="evenodd" d="M44.4307 27.9643C42.9384 26.7483 41.0537 29.0621 42.5453 30.2779C44.0386 31.4933 45.9225 29.1793 44.4307 27.9643Z" fill="#FD6085"/>
<path fill-rule="evenodd" clip-rule="evenodd" d="M22.618 56.8314C21.1256 55.6154 19.2409 57.9292 20.7333 59.1452C22.225 60.3603 24.1097 58.0465 22.618 56.8314Z" fill="#FD6085"/>
<path fill-rule="evenodd" clip-rule="evenodd" d="M96.5399 34.6986C95.0475 33.4826 93.1628 35.7964 94.6553 37.0116C96.1469 38.2275 98.0315 35.9144 96.5399 34.6986Z" fill="#FD6085"/>
<path fill-rule="evenodd" clip-rule="evenodd" d="M90.4534 46.6673C88.9618 45.4514 87.0771 47.7652 88.5687 48.9811C90.0613 50.1963 91.9461 47.8817 90.4534 46.6673Z" fill="#FD6085"/>
<path fill-rule="evenodd" clip-rule="evenodd" d="M80.173 20.6749C78.6805 19.4598 76.7959 21.7728 78.2875 22.9886C79.7802 24.203 81.6647 21.89 80.173 20.6749Z" fill="#FD6085"/>
<path fill-rule="evenodd" clip-rule="evenodd" d="M17.7979 35.769C16.3055 34.553 14.4209 36.8668 15.9125 38.0826C17.4048 39.2986 19.2898 36.9832 17.7979 35.769Z" fill="#FD6085"/>
<path d="M36.98 45.0077C37.0809 44.5731 39.5756 44.7232 40.9854 44.6074C40.6936 43.1924 39.8395 40.8113 40.2443 40.6257C40.5881 40.4674 41.654 41.9304 42.5515 43.0141C43.1222 41.6751 43.8546 39.8797 44.2372 39.9693C44.6702 40.0699 44.66 42.5178 44.7149 43.9453C46.1316 43.5919 48.4835 42.8799 48.6685 43.2838C48.8311 43.6396 47.3446 44.8381 46.2392 45.7456C47.5511 46.3101 49.2618 46.917 49.1756 47.285C49.0746 47.7203 46.5612 47.5573 45.1569 47.6829C45.4403 49.0957 46.3099 51.4802 45.9035 51.6656C45.5613 51.8241 44.5122 50.3712 43.6149 49.2908C43.0459 50.6293 42.3129 52.4141 41.9301 52.3253C41.497 52.2255 41.5123 49.7858 41.4552 48.357C40.0411 48.7093 37.67 49.4252 37.4829 49.0194C37.3195 48.6634 38.8141 47.4647 39.9203 46.5573C38.6085 45.9921 36.8961 45.376 36.98 45.0077Z" fill="#29AEFD"/>
<path d="M58.6988 13.8671C58.8006 13.4318 61.2944 13.5826 62.7037 13.4651C62.4116 12.0517 61.5574 9.67137 61.963 9.4851C62.3069 9.32684 63.3721 10.7889 64.2711 11.8737C64.841 10.5345 65.5726 8.73896 65.956 8.82866C66.3898 8.92938 66.3795 11.3773 66.4344 12.8049C67.851 12.4522 70.2031 11.7394 70.3874 12.1424C70.5499 12.499 69.0642 13.6976 67.9581 14.6042C69.2698 15.1703 70.98 15.7755 70.8954 16.1429C70.7935 16.5789 68.2801 16.4159 66.8764 16.5425C67.1598 17.9552 68.0302 20.3399 67.6236 20.5268C67.2811 20.6821 66.2317 19.2307 65.3352 18.1504C64.766 19.4898 64.0341 21.2731 63.6513 21.1844C63.2182 21.0845 63.2326 18.6454 63.1764 17.216C61.7622 17.5691 59.3904 18.2841 59.2048 17.8793C59.0406 17.5232 60.5352 16.3245 61.6416 15.4163C60.3271 14.8522 58.6142 14.2345 58.6988 13.8671Z" fill="#FD6085"/>
<path fill-rule="evenodd" clip-rule="evenodd" d="M50.6414 18.7952C51.2708 18.73 51.9047 19.0619 52.3413 19.4983C53.6062 20.7614 54.186 22.6028 54.7758 24.2448C57.3281 31.3582 59.3265 38.6783 61.2775 45.9742C61.8217 48.0097 62.3608 50.0474 62.905 52.0829C64.4564 57.8987 65.9632 63.7262 67.4382 69.5603C67.6626 70.4485 67.8824 71.3351 68.1112 72.2207C68.2063 72.5859 68.558 73.7965 67.8546 73.8193C67.4125 73.833 67.0193 73.1475 66.864 72.805C66.3171 71.6076 65.7646 70.4149 65.2657 69.1952C63.1403 63.9951 60.9367 58.8202 58.9581 53.5608C55.2057 43.5931 51.5952 33.7221 49.2874 23.3037C49.0998 22.4548 48.9769 21.547 49.1257 20.6817C49.2495 19.9536 49.6427 19.0408 50.4212 18.8371C50.4947 18.8167 50.567 18.8025 50.6414 18.7952Z" fill="#A089E4"/>
<path fill-rule="evenodd" clip-rule="evenodd" d="M72.4233 70.7529C71.5969 70.4894 72.3427 68.6248 72.443 68.1137C73.8322 61.082 75.494 54.0921 77.1559 47.1207C78.2971 42.3337 79.5065 37.528 81.3699 32.9603C82.3133 30.6503 85.885 21.6178 89.1598 21.9118C93.0306 22.2611 87.4763 33.2072 86.8134 34.6808C83.1019 42.928 79.6265 51.1345 76.6701 59.6861C75.5884 62.8142 74.697 65.9998 73.7059 69.1578C73.5713 69.5874 73.1378 70.9419 72.4523 70.7619C72.4423 70.7594 72.4324 70.7561 72.4233 70.7529Z" fill="#A089E4"/>
<path fill-rule="evenodd" clip-rule="evenodd" d="M58.5956 74.3072C58.8188 74.0174 58.5746 73.3348 57.7109 72.6453C54.4997 70.0805 51.6005 67.106 48.6062 64.297C47.7764 63.5176 46.9442 62.7425 46.1047 61.9726C44.7833 60.7586 43.4559 59.5507 42.1195 58.3534C38.6055 55.2038 35.0274 52.0762 31.0651 49.494C29.059 48.1885 21.3117 43.0205 18.8919 45.041C16.0319 47.4308 26.3867 53.0247 27.7132 53.824C35.1431 58.2953 42.3639 62.8659 49.3629 67.9904C51.9673 69.8966 54.4709 71.9408 57.0418 73.8967C57.8487 74.5099 58.4007 74.5585 58.5956 74.3072Z" fill="#A089E4"/>
<path fill-rule="evenodd" clip-rule="evenodd" d="M65.3593 41.7863C64.9818 41.3237 65.0485 40.6421 65.5095 40.2643C65.9715 39.8851 66.6523 39.9517 67.0308 40.4136L70.8964 45.1267C71.2742 45.5877 71.2078 46.2677 70.7457 46.6469C70.2853 47.0264 69.6038 46.9589 69.2254 46.497L65.3593 41.7863Z" fill="#A089E4"/>
<path fill-rule="evenodd" clip-rule="evenodd" d="M81.6321 13.3247C81.0635 13.1431 80.7496 12.5339 80.9321 11.9653C81.1136 11.3974 81.722 11.0834 82.2907 11.2651L88.0956 13.1198C88.6643 13.3015 88.9775 13.9098 88.7966 14.4786C88.6149 15.0473 88.0065 15.3612 87.4386 15.1797L81.6321 13.3247Z" fill="#A089E4"/>
<path fill-rule="evenodd" clip-rule="evenodd" d="M26.9443 66.9394C26.3484 66.9404 25.8625 66.4577 25.8601 65.8607C25.8593 65.2641 26.3417 64.7798 26.9377 64.778L33.0319 64.7576C33.629 64.7544 34.1138 65.2384 34.1156 65.8345C34.118 66.4314 33.6353 66.9173 33.0385 66.9189L26.9443 66.9394Z" fill="#A089E4"/>
<path d="M32.4769 34.4258C32.2046 34.0576 32.3073 29.5465 31.7107 29.4807C31.1132 29.4163 29.8516 33.6897 29.5258 33.9307C28.8734 34.4124 24.7474 34.1264 24.6844 34.692C24.622 35.2546 28.5604 36.1999 29.0305 36.8407C29.2924 37.199 29.1979 41.7236 29.796 41.7897C30.3922 41.8571 31.642 37.5912 31.981 37.3437C32.6105 36.8782 36.7718 37.1461 36.8348 36.5805C36.8968 36.0155 32.9263 35.0461 32.4769 34.4258Z" fill="#074785"/>
<path d="M72.1644 28.707C71.8936 28.3392 71.9956 23.8279 71.3982 23.7619C70.8008 23.6967 69.5391 27.971 69.2135 28.2111C68.5601 28.6935 64.4349 28.4076 64.3719 28.9733C64.3101 29.5367 68.2487 30.4813 68.718 31.1219C68.98 31.4795 68.8854 36.0048 69.4833 36.0717C70.0798 36.1376 71.3294 31.8733 71.6685 31.625C72.298 31.1594 76.4591 31.4282 76.5232 30.8611C76.5854 30.2953 72.6146 29.3275 72.1644 28.707Z" fill="#074785"/>
<path d="M56.8181 88.3366C53.5084 88.749 51.8103 91.4999 52.0825 94.6979C52.2215 96.3344 54.7679 96.2482 54.6285 94.6044C54.4754 92.8111 54.9969 91.36 56.8462 90.9077C58.8777 90.4102 60.128 91.7769 60.1151 93.7187C60.1032 95.3671 62.6493 95.264 62.6606 93.6234C62.6823 90.2722 60.1528 87.9189 56.8181 88.3366Z" fill="#074785"/>
<path d="M83.0838 84.7431C79.7892 85.2504 78.1698 88.0486 78.5333 91.2397C78.7172 92.8718 81.2603 92.7111 81.0735 91.072C80.8704 89.2839 81.3501 87.8191 83.1861 87.3131C85.2017 86.7575 86.4903 88.0889 86.5323 90.0288C86.5685 91.6783 89.1093 91.5027 89.074 89.8622C89.0014 86.5118 86.4065 84.2309 83.0838 84.7431Z" fill="#074785"/>
<path d="M75.2741 93.6317C75.2477 92.935 74.8863 92.308 74.127 92.2304C73.5036 92.1664 72.711 92.6732 72.7372 93.3707C72.7745 94.3747 72.8273 96.1203 71.7536 96.6401C70.2332 97.3737 69.2072 95.5413 68.9279 94.3495C68.5555 92.7527 66.0412 93.1636 66.4171 94.7731C67.042 97.4365 68.9803 99.7072 71.9225 99.2296C74.573 98.7978 75.3588 95.9616 75.2741 93.6317Z" fill="#074785"/>
<path d="M84.4655 139.305C87.5509 143.221 90.1761 142.368 90.3699 137.386L92.7893 112.166L67.6077 120.234L84.4655 139.305Z" fill="#FFA4AC"/>
<path fill-rule="evenodd" clip-rule="evenodd" d="M61.1637 101.612C59.978 99.886 57.0402 101.5 58.2242 103.226C59.4097 104.953 62.3491 103.339 61.1637 101.612Z" fill="white"/>
<path fill-rule="evenodd" clip-rule="evenodd" d="M76.9104 121.013C72.9811 116.093 68.9377 111.249 65.0094 106.329C63.7232 104.721 60.9861 106.476 62.2713 108.086C66.2008 113.004 70.2446 117.851 74.1741 122.768C75.4601 124.378 78.1981 122.621 76.9104 121.013Z" fill="white"/>
<path fill-rule="evenodd" clip-rule="evenodd" d="M80.9462 125.909C79.79 124.222 76.9189 125.798 78.0768 127.484C79.2339 129.17 82.105 127.594 80.9462 125.909Z" fill="white"/>
<path d="M89.4812 77.6495C89.3365 78.4954 88.5342 79.064 87.6875 78.9192C86.8415 78.7745 86.273 77.9714 86.4177 77.1255C86.5623 76.2803 87.3655 75.7111 88.2114 75.8557C89.0574 76.0004 89.6257 76.8043 89.4812 77.6495Z" fill="white"/>
<path d="M68.4249 85.4852C68.2804 86.3303 67.478 86.8989 66.6321 86.7543C65.7862 86.6096 65.2185 85.8066 65.363 84.9615C65.5076 84.1163 66.3108 83.547 67.156 83.6915C68.0019 83.8362 68.5695 84.64 68.4249 85.4852Z" fill="white"/>
<path d="M87.8088 121.109C87.664 121.955 86.8618 122.523 86.0158 122.379C85.1699 122.234 84.6013 121.432 84.7461 120.585C84.8906 119.74 85.6936 119.172 86.5396 119.317C87.3855 119.461 87.9533 120.264 87.8088 121.109Z" fill="white"/>
<path d="M82.5377 103.233C82.3506 102.978 82.4214 99.866 82.0103 99.8206C81.5973 99.7765 80.728 102.725 80.5027 102.891C80.0528 103.223 77.2067 103.026 77.1636 103.414C77.1204 103.803 79.8364 104.455 80.1604 104.897C80.3407 105.145 80.2766 108.265 80.6885 108.31C81.0994 108.356 81.9619 105.415 82.1954 105.244C82.6298 104.922 85.5002 105.109 85.5438 104.717C85.5864 104.327 82.8482 103.66 82.5377 103.233Z" fill="white"/>
<path fill-rule="evenodd" clip-rule="evenodd" d="M194.163 75.8102C195.975 75.1601 196.984 77.9682 195.172 78.619C193.361 79.2691 192.352 76.4604 194.163 75.8102Z" fill="#FD6085"/>
<path fill-rule="evenodd" clip-rule="evenodd" d="M207.718 51.4193C209.529 50.77 210.538 53.5779 208.726 54.2287C206.915 54.878 205.907 52.0703 207.718 51.4193Z" fill="#FD6085"/>
<path fill-rule="evenodd" clip-rule="evenodd" d="M174.262 86.6921C172.881 79.0861 169.565 72.2327 164.884 66.5949C161.976 62.8214 155.925 57.8904 151.64 55.8069C145.174 52.363 137.791 50.5021 130.063 50.6877C125.021 50.9324 120.499 54.0074 119.996 56.7553L100.061 127.734C98.443 132.45 100.582 134.193 104.874 131.655L170.354 97.7774C172.945 96.7301 175.042 91.679 174.262 86.6921Z" fill="#29AEFD"/>
<path fill-rule="evenodd" clip-rule="evenodd" d="M167.721 91.7332C163.354 94.5792 153.775 87.695 143.436 79.4001C133.221 70.9528 124.541 62.9627 126.446 58.1101C128.23 53.3198 142.448 54.447 155.247 64.8998C168.074 75.3206 172.053 89.0171 167.721 91.7332Z" fill="#F9D555"/>
<path fill-rule="evenodd" clip-rule="evenodd" d="M183.187 41.3337C184.998 40.6836 186.007 43.4922 184.195 44.1423C182.385 44.7933 181.375 41.9837 183.187 41.3337Z" fill="#FD6085"/>
<path fill-rule="evenodd" clip-rule="evenodd" d="M131.804 30.3646C133.616 29.7153 134.623 32.5239 132.813 33.1741C131.001 33.8241 129.993 31.0155 131.804 30.3646Z" fill="#FD6085"/>
<path fill-rule="evenodd" clip-rule="evenodd" d="M133.562 43.6774C135.373 43.0272 136.382 45.836 134.57 46.4861C132.759 47.1378 131.75 44.3283 133.562 43.6774Z" fill="#FD6085"/>
<path fill-rule="evenodd" clip-rule="evenodd" d="M151.898 22.5762C153.709 21.9252 154.718 24.734 152.907 25.3842C151.095 26.0349 150.087 23.2255 151.898 22.5762Z" fill="#FD6085"/>
<path d="M184.552 59.889C184.601 59.4449 182.198 58.758 180.907 58.1787C181.653 56.9419 183.251 54.9802 182.93 54.6705C182.658 54.4069 181.166 55.4325 179.959 56.1569C179.867 54.7037 179.772 52.7677 179.382 52.7243C178.94 52.676 178.135 54.9872 177.609 56.3162C176.389 55.5127 174.409 54.058 174.1 54.3767C173.828 54.6598 174.832 56.2842 175.574 57.5069C174.149 57.604 172.334 57.6071 172.292 57.9819C172.243 58.4268 174.667 59.1077 175.95 59.6936C175.213 60.9319 173.6 62.8918 173.921 63.2032C174.192 63.4641 175.664 62.4442 176.869 61.7233C176.961 63.1748 177.059 65.1002 177.45 65.1437C177.891 65.1942 178.688 62.8889 179.216 61.5594C180.433 62.3626 182.432 63.8243 182.742 63.5044C183.014 63.2237 182.003 61.5964 181.261 60.3722C182.689 60.2762 184.51 60.263 184.552 59.889Z" fill="#29AEFD"/>
<path d="M122.209 40.3415C122.258 39.8972 119.855 39.2105 118.565 38.6312C119.31 37.396 120.907 35.4341 120.586 35.1228C120.315 34.861 118.823 35.8864 117.615 36.6101C117.523 35.1568 117.43 33.2202 117.038 33.1774C116.595 33.129 115.792 35.4396 115.265 36.7685C114.047 35.9651 112.065 34.5112 111.756 34.8306C111.485 35.1121 112.488 36.7365 113.23 37.9592C111.805 38.0564 109.99 38.0594 109.949 38.4342C109.9 38.8793 112.324 39.5609 113.606 40.1468C112.87 41.3844 111.257 43.345 111.578 43.6557C111.849 43.9166 113.322 42.8966 114.525 42.1756C114.617 43.6271 114.715 45.5534 115.106 45.5976C115.547 45.6465 116.345 43.3406 116.872 42.0118C118.088 42.8156 120.087 44.2781 120.397 43.9574C120.671 43.6761 119.659 42.0488 118.918 40.8253C120.345 40.7286 122.167 40.7161 122.209 40.3415Z" fill="#29AEFD"/>
<path fill-rule="evenodd" clip-rule="evenodd" d="M180.38 30.6176C179.809 30.3471 179.099 30.4492 178.542 30.7157C176.929 31.4874 175.77 33.0304 174.668 34.384C169.897 40.2448 165.579 46.4837 161.315 52.7158C160.124 54.4545 158.938 56.1972 157.749 57.937C154.353 62.9074 150.995 67.9013 147.665 72.9151C147.159 73.6767 146.657 74.4399 146.146 75.2006C145.936 75.512 145.201 76.5375 145.857 76.792C146.269 76.9518 146.868 76.436 147.128 76.1661C148.043 75.2187 148.96 74.2767 149.835 73.292C153.569 69.0932 157.367 64.9447 160.981 60.6427C167.833 52.488 174.519 44.3781 180.157 35.3188C180.617 34.5814 181.035 33.7653 181.182 32.8989C181.307 32.1711 181.24 31.1803 180.573 30.7294C180.512 30.6868 180.448 30.6502 180.38 30.6176Z" fill="#FD6085"/>
<path fill-rule="evenodd" clip-rule="evenodd" d="M142.572 72.3842C143.438 72.4094 143.355 70.4038 143.429 69.8883C144.456 62.7946 145.212 55.6505 145.962 48.5232C146.477 43.6276 146.933 38.6928 146.693 33.7663C146.572 31.2742 146.205 21.5679 143.018 20.7576C139.251 19.8006 140.852 31.9704 140.988 33.5798C141.746 42.5924 142.297 51.4876 142.243 60.534C142.223 63.8453 142.006 67.1446 141.891 70.4532C141.875 70.9031 141.833 72.3254 142.54 72.3828C142.551 72.3839 142.561 72.384 142.572 72.3842Z" fill="#FD6085"/>
<path fill-rule="evenodd" clip-rule="evenodd" d="M154.432 80.3331C154.318 79.9873 154.774 79.4238 155.818 79.0604C159.699 77.7095 163.422 75.8669 167.18 74.212C168.222 73.7543 169.265 73.2991 170.312 72.852C171.963 72.1463 173.617 71.4475 175.274 70.7622C179.636 68.9597 184.049 67.1998 188.644 66.082C190.97 65.5175 199.995 63.2182 201.606 65.9282C203.509 69.1317 191.883 70.9661 190.366 71.279C181.873 73.0261 173.544 74.9386 165.239 77.4439C162.15 78.3771 159.108 79.4728 156.033 80.4624C155.068 80.7716 154.531 80.6355 154.432 80.3331Z" fill="#FD6085"/>
<path fill-rule="evenodd" clip-rule="evenodd" d="M158.857 47.4097C159.367 47.0999 159.531 46.4356 159.221 45.9252C158.912 45.4141 158.246 45.2512 157.736 45.5596L152.524 48.7208C152.015 49.0292 151.851 49.695 152.161 50.2039C152.47 50.715 153.134 50.8784 153.645 50.5695L158.857 47.4097Z" fill="#A089E4"/>
<path fill-rule="evenodd" clip-rule="evenodd" d="M110.417 54.4633C111.014 54.4802 111.512 54.0107 111.53 53.4139C111.547 52.818 111.078 52.3196 110.481 52.302L104.39 52.122C103.793 52.1036 103.294 52.5738 103.277 53.1705C103.258 53.7671 103.728 54.2647 104.325 54.2824L110.417 54.4633Z" fill="#A089E4"/>
<path fill-rule="evenodd" clip-rule="evenodd" d="M186.731 83.9032C187.293 84.1037 187.911 83.8106 188.112 83.2478C188.311 82.6853 188.018 82.0666 187.455 81.8667L181.714 79.8235C181.152 79.6221 180.534 79.9168 180.334 80.4791C180.133 81.0405 180.427 81.6584 180.989 81.8591L186.731 83.9032Z" fill="#A089E4"/>
<path d="M187.489 51.985C187.361 52.5412 191.375 53.6707 191.815 54.3183C192.052 54.6635 191.814 59.1024 192.397 59.2376C192.984 59.3733 194.398 55.0745 194.764 54.8244C195.42 54.3763 199.449 54.7936 199.577 54.2406C199.706 53.6863 195.72 52.5856 195.264 51.9136C195.037 51.5797 195.267 47.1281 194.683 46.9912C194.098 46.8543 192.695 51.1429 192.316 51.4013C191.686 51.8361 187.619 51.4307 187.489 51.985Z" fill="#074785"/>
<path d="M151.958 33.3905C151.829 33.9473 155.844 35.0762 156.283 35.7245C156.521 36.0698 156.282 40.5087 156.866 40.6439C157.452 40.7795 158.866 36.4806 159.233 36.2306C159.889 35.7825 163.917 36.1997 164.045 35.6476C164.174 35.094 160.188 33.9918 159.732 33.3205C159.505 32.9858 159.736 28.5344 159.151 28.3973C158.565 28.2602 157.163 32.5498 156.784 32.8074C156.154 33.2422 152.087 32.837 151.958 33.3905Z" fill="#074785"/>
<path d="M147.815 93.4935C150.721 95.1305 151.25 98.3186 149.786 101.176C149.038 102.638 146.714 101.593 147.466 100.123C148.287 98.5216 148.355 96.9816 146.815 95.862C145.123 94.6329 143.449 95.423 142.725 97.2246C142.111 98.7541 139.794 97.6952 140.405 96.1717C141.654 93.0643 144.887 91.8429 147.815 93.4935Z" fill="#074785"/>
<path d="M124.872 80.2085C127.729 81.9264 128.167 85.1304 126.622 87.9445C125.832 89.3859 123.541 88.2736 124.335 86.828C125.199 85.2505 125.311 83.7125 123.804 82.5494C122.149 81.2711 120.452 82.0148 119.679 83.7942C119.019 85.3071 116.736 84.1809 117.39 82.6769C118.725 79.6042 121.99 78.4767 124.872 80.2085Z" fill="#074785"/>
<path d="M128.824 91.2906C129.131 90.6646 129.716 90.2397 130.443 90.4772C131.038 90.6723 131.556 91.4579 131.247 92.0853C130.804 92.9872 130.046 94.5594 130.815 95.4716C131.904 96.7625 133.588 95.5053 134.328 94.5297C135.319 93.2232 137.448 94.6219 136.45 95.9401C134.794 98.1178 132.1 99.4024 129.607 97.7677C127.361 96.2941 127.798 93.3839 128.824 91.2906Z" fill="#074785"/>
<path d="M104.878 131.655L127.614 119.891L106.718 104.044L100.064 127.733C98.4473 132.449 100.588 134.192 104.878 131.655Z" fill="#7BEFE5"/>
<path fill-rule="evenodd" clip-rule="evenodd" d="M139.124 109.503C141.024 108.623 139.924 105.455 138.024 106.336C136.123 107.216 137.223 110.382 139.124 109.503Z" fill="white"/>
<path fill-rule="evenodd" clip-rule="evenodd" d="M117.357 121.779C122.864 118.726 128.316 115.549 133.822 112.497C135.623 111.498 134.35 108.506 132.547 109.505C127.041 112.557 121.589 115.735 116.083 118.787C114.281 119.786 115.555 122.778 117.357 121.779Z" fill="white"/>
<path fill-rule="evenodd" clip-rule="evenodd" d="M111.864 124.942C113.718 124.083 112.644 120.989 110.788 121.85C108.933 122.709 110.008 125.802 111.864 124.942Z" fill="white"/>
<path d="M157.926 95.7665C157.781 96.6117 156.979 97.1795 156.133 97.0349C155.287 96.8902 154.718 96.0878 154.863 95.2427C155.008 94.396 155.811 93.8282 156.657 93.9729C157.503 94.1176 158.071 94.9198 157.926 95.7665Z" fill="white"/>
<path d="M111.995 113.93C111.851 114.776 111.048 115.345 110.202 115.2C109.356 115.056 108.789 114.252 108.933 113.407C109.078 112.562 109.881 111.992 110.726 112.137C111.572 112.282 112.14 113.085 111.995 113.93Z" fill="white"/>
<path d="M124.356 69.5782C124.211 70.4242 123.409 70.992 122.563 70.8473C121.717 70.7026 121.148 69.9003 121.293 69.0544C121.437 68.2092 122.24 67.6407 123.086 67.7854C123.932 67.9301 124.5 68.7331 124.356 69.5782Z" fill="white"/>
<path d="M118.358 97.3492C118.171 97.0945 118.242 93.9832 117.831 93.9378C117.419 93.8923 116.548 96.8402 116.323 97.0068C115.873 97.3398 113.027 97.1416 112.984 97.5306C112.941 97.9188 115.658 98.5716 115.982 99.0137C116.162 99.26 116.098 102.38 116.51 102.427C116.921 102.474 117.783 99.5324 118.017 99.3601C118.451 99.0397 121.321 99.2251 121.364 98.8337C121.407 98.4438 118.669 97.7761 118.358 97.3492Z" fill="white"/>
</svg>
