<svg width="349" height="196" viewBox="0 0 349 196" fill="none" xmlns="http://www.w3.org/2000/svg">
<path fill-rule="evenodd" clip-rule="evenodd" d="M65.9042 80.7565C69.1985 76.5125 71.5297 71.5216 74.2827 66.8548C75.3388 65.3529 76.3953 63.8479 77.4511 62.3429C85.6334 61.0248 93.7761 59.2882 102.008 58.4846C147.776 54.0244 196.578 58.0378 240.615 71.6906C271.981 81.4142 298.482 99.6078 325.128 118.41C331.719 123.059 344.383 138.271 327.759 136.345C326.543 136.205 317.477 135.166 317.12 134.469C318.98 138.119 320.561 141.13 322.06 144.183C324.207 148.551 328.588 153.804 324.521 157.614C322.227 159.766 315.712 158.215 311.281 157.189C306.873 156.166 305.238 155.575 302.138 154.702C303.739 156.969 308.11 169.695 308.073 171.942C307.84 185.352 292.039 174.428 287.055 171.492C287.776 174.699 288.654 176.629 288.52 178.48C287.568 191.853 275.447 182.08 269.321 177.789C258.522 170.225 247.533 162.899 236.373 155.872C200.274 133.141 161.395 111.981 118.175 107.868C104.987 106.612 91.6684 106.888 78.4479 107.369L75.9432 106.648C72.6994 101.619 69.827 96.2881 66.0926 91.6499C62.9061 87.6968 62.7415 84.8273 65.9042 80.7565Z" fill="#7BEFE5"/>
<path fill-rule="evenodd" clip-rule="evenodd" d="M58.6263 154.91C59.0132 159.168 61.9032 160.283 65.0479 157.385L94.7023 130.063C97.8478 127.165 103.833 125.57 108.004 126.518L147.322 135.456C151.492 136.404 153.445 134 151.66 130.113L134.839 93.4667C133.055 89.5809 133.388 83.3951 135.578 79.7212L156.229 45.09C158.419 41.4161 156.736 38.8161 152.488 39.3118L112.437 43.9843C108.189 44.4814 102.409 42.2527 99.5927 39.0352L73.0369 8.69293C70.2208 5.47545 67.228 6.27292 66.3865 10.4661L58.4557 50.0001C57.6142 54.1933 53.7094 59.0029 49.7783 60.6876L12.7156 76.5674C8.78454 78.2514 8.6174 81.3438 12.3459 83.4386L47.4945 103.198C51.2227 105.294 54.5895 110.496 54.9773 114.753L58.6263 154.91Z" fill="#FD6085"/>
<path fill-rule="evenodd" clip-rule="evenodd" d="M98.7331 92.4051C97.7811 89.5151 93.0681 90.3749 94.0316 93.2974C94.7971 95.6211 95.0872 98.2471 92.1512 98.7713C89.3538 99.2721 88.6271 96.746 88.1784 94.5357C87.565 91.5114 82.8623 92.4065 83.478 95.4304C84.5307 100.618 87.4359 104.052 93.0465 103.473C98.6301 102.898 100.258 97.0275 98.7331 92.4051Z" fill="#074785"/>
<path fill-rule="evenodd" clip-rule="evenodd" d="M57.7381 105.319C58.4147 108.185 63.2359 109.578 68.4951 108.441C73.7632 107.294 77.4734 104.044 76.7876 101.179C76.1108 98.3208 71.2854 96.9255 66.0289 98.0646C60.7639 99.2057 57.0539 102.454 57.7381 105.319Z" fill="#FFA4AC"/>
<path fill-rule="evenodd" clip-rule="evenodd" d="M109.267 95.3319C109.723 98.2358 114.435 100.048 119.789 99.3857C125.146 98.7226 129.122 95.8315 128.667 92.9263C128.214 90.0257 123.503 88.2102 118.146 88.8772C112.792 89.5353 108.814 92.4345 109.267 95.3319Z" fill="#FFA4AC"/>
<path fill-rule="evenodd" clip-rule="evenodd" d="M89.4092 63.9631C88.5567 61.1192 87.9983 58.7278 88.4697 58.6327C88.4697 58.6327 128.835 50.566 128.963 50.5412C129.367 50.4603 130.883 61.6653 130.974 62.6416C131.396 67.1847 131.293 71.9432 129.302 76.1398C127.77 79.3648 124.949 81.9767 121.907 83.7789C115.711 87.4458 106.032 89.0198 99.7981 83.6714C96.702 81.011 94.3915 77.2038 92.6889 73.5089C92.3866 72.8506 90.6097 67.9611 89.4092 63.9631Z" fill="#074785"/>
<path fill-rule="evenodd" clip-rule="evenodd" d="M43.9419 73.3287L43.0585 67.7037C43.0585 67.7037 82.8555 59.7521 82.8906 59.7441C83.5012 59.637 84.0607 72.5949 83.9765 73.7716C83.4843 80.5551 81.552 86.9367 76.0562 91.3042C72.9389 93.779 69.0282 94.9045 65.1208 95.3847C49.5087 97.3 43.9419 73.3287 43.9419 73.3287Z" fill="#074785"/>
<path fill-rule="evenodd" clip-rule="evenodd" d="M68.7657 46.9307C68.726 48.8447 65.7558 48.7841 65.7941 46.8692C65.8345 44.9553 68.8027 45.0141 68.7657 46.9307Z" fill="white"/>
<path fill-rule="evenodd" clip-rule="evenodd" d="M71.0047 24.375C70.4837 30.0675 69.8421 35.7474 69.3242 41.4396C69.1511 43.3014 66.262 43.0396 66.4328 41.1775C66.9538 35.4849 67.5964 29.8037 68.1157 24.1117C68.2874 22.2489 71.1766 22.5107 71.0047 24.375Z" fill="white"/>
<path fill-rule="evenodd" clip-rule="evenodd" d="M71.6216 18.6574C71.5827 20.527 68.6824 20.4691 68.7208 18.5972C68.7599 16.7269 71.6591 16.7869 71.6216 18.6574Z" fill="white"/>
<path fill-rule="evenodd" clip-rule="evenodd" d="M60.0587 70.4135C59.5384 76.1069 58.8954 81.7858 58.3774 87.4787C58.205 89.3414 55.3151 89.0795 55.4859 87.2181C56.0071 81.5233 56.6496 75.8428 57.1703 70.1518C57.3407 68.2873 60.2291 68.5498 60.0587 70.4135Z" fill="white"/>
<path fill-rule="evenodd" clip-rule="evenodd" d="M66.5978 71.3119C66.0767 77.0052 65.4352 82.6843 64.9165 88.3771C64.7441 90.2398 61.8542 89.9779 62.0249 88.1165C62.5469 82.4219 63.1886 76.7413 63.7094 71.0502C63.8798 69.1858 66.7688 69.4483 66.5978 71.3119Z" fill="white"/>
<path fill-rule="evenodd" clip-rule="evenodd" d="M105.146 60.8677C104.625 66.5595 103.983 72.24 103.464 77.9336C103.292 79.7955 100.402 79.5329 100.573 77.6707C101.093 71.9781 101.736 66.2977 102.256 60.6051C102.428 58.7401 105.316 59.0031 105.146 60.8677Z" fill="white"/>
<path fill-rule="evenodd" clip-rule="evenodd" d="M111.684 61.7581C111.163 67.45 110.521 73.1305 110.002 78.8241C109.83 80.686 106.94 80.4234 107.111 78.5613C107.632 72.8687 108.274 67.1882 108.795 61.4957C108.967 59.6306 111.855 59.8938 111.684 61.7581Z" fill="white"/>
<path fill-rule="evenodd" clip-rule="evenodd" d="M217.274 82.3332C234.2 84.2349 248.862 91.1913 263.44 99.6279C269.503 103.137 274.436 93.458 268.385 89.9565C253.1 81.1085 237.347 73.7186 219.605 71.7223C216.666 71.3947 213.82 72.7485 213.136 75.8626C212.551 78.5294 214.328 82.0025 217.274 82.3332Z" fill="white"/>
<path fill-rule="evenodd" clip-rule="evenodd" d="M203.475 78.7265C209.375 74.9512 203.521 65.8043 197.621 69.5782C191.72 73.3534 197.575 82.5027 203.475 78.7265Z" fill="white"/>
<path fill-rule="evenodd" clip-rule="evenodd" d="M282.676 111.143C288.576 107.367 282.723 98.2172 276.823 101.993C270.924 105.768 276.777 114.917 282.676 111.143Z" fill="white"/>
<path d="M79.2634 130.324C78.8012 133.713 75.6798 136.086 72.2907 135.624C68.9016 135.161 66.5293 132.04 66.9915 128.651C67.4535 125.262 70.575 122.89 73.9641 123.352C77.3532 123.814 79.7255 126.935 79.2634 130.324Z" fill="white"/>
<path d="M206.598 111.809C206.136 115.197 203.016 117.57 199.627 117.108C196.238 116.646 193.865 113.524 194.327 110.136C194.789 106.748 197.911 104.375 201.3 104.837C204.689 105.298 207.061 108.42 206.598 111.809Z" fill="white"/>
<path d="M243.696 102.338C243.41 104.436 241.476 105.907 239.376 105.621C237.275 105.334 235.805 103.399 236.091 101.301C236.377 99.202 238.311 97.7321 240.412 98.0186C242.512 98.305 243.982 100.239 243.696 102.338Z" fill="white"/>
<path d="M273.662 159.212C273.376 161.312 271.443 162.782 269.342 162.495C267.243 162.209 265.774 160.275 266.06 158.176C266.346 156.077 268.279 154.607 270.379 154.893C272.48 155.18 273.948 157.114 273.662 159.212Z" fill="white"/>
<path d="M310.388 122.15C310.102 124.249 308.171 125.72 306.069 125.433C303.969 125.147 302.5 123.213 302.786 121.113C303.073 119.014 305.006 117.544 307.106 117.831C309.208 118.117 310.675 120.051 310.388 122.15Z" fill="white"/>
<path d="M296.406 138.055C296.119 140.154 294.185 141.625 292.084 141.338C289.985 141.052 288.516 139.117 288.802 137.018C289.088 134.92 291.022 133.451 293.121 133.737C295.222 134.024 296.692 135.957 296.406 138.055Z" fill="white"/>
<path d="M148.952 85.611C148.666 87.7112 146.733 89.1819 144.632 88.8954C142.532 88.609 141.062 86.6743 141.349 84.5741C141.635 82.4754 143.568 81.0054 145.669 81.2918C147.77 81.5783 149.239 83.5123 148.952 85.611Z" fill="white"/>
<path d="M133.069 118.361C132.783 120.46 130.849 121.93 128.748 121.644C126.648 121.357 125.18 119.424 125.466 117.324C125.752 115.226 127.686 113.755 129.785 114.042C131.886 114.328 133.355 116.263 133.069 118.361Z" fill="white"/>
<path d="M100.781 113.869C100.494 115.969 98.5609 117.439 96.4599 117.152C94.3605 116.866 92.8906 114.932 93.177 112.832C93.4633 110.732 95.3973 109.263 97.4967 109.55C99.5977 109.836 101.067 111.769 100.781 113.869Z" fill="white"/>
<path d="M88.5617 44.7055C88.2754 46.8049 86.3421 48.2749 84.2412 47.9884C82.1417 47.7021 80.6719 45.768 80.9582 43.6686C81.2444 41.5699 83.1785 40.0993 85.278 40.3856C87.3789 40.6721 88.8479 42.6068 88.5617 44.7055Z" fill="white"/>
<path d="M247.943 127.604C247.461 126.991 247.374 119.306 246.355 119.228C245.333 119.152 243.43 126.502 242.89 126.928C241.808 127.786 234.766 127.537 234.694 128.503C234.62 129.466 241.378 130.847 242.215 131.911C242.683 132.507 242.781 140.214 243.804 140.293C244.823 140.372 246.705 133.038 247.267 132.597C248.312 131.768 255.412 131.986 255.487 131.019C255.561 130.053 248.746 128.632 247.943 127.604Z" fill="#074784"/>
<path d="M171.398 89.932C170.917 89.318 170.829 81.6336 169.809 81.5564C168.788 81.4798 166.885 88.8294 166.346 89.2575C165.263 90.1152 158.221 89.8665 158.147 90.8323C158.074 91.7938 164.833 93.1755 165.669 94.2405C166.137 94.8338 166.238 102.543 167.258 102.621C168.277 102.699 170.158 95.3694 170.721 94.925C171.767 94.0969 178.867 94.3158 178.941 93.3469C179.016 92.3804 172.2 90.9614 171.398 89.932Z" fill="white"/>
</svg>
