<svg width="548" height="548" viewBox="0 0 548 548" fill="none" xmlns="http://www.w3.org/2000/svg">
<g opacity="0.05" clip-path="url(#clip0_1_463)">
<path d="M174.675 477.447C173.99 477.447 173.077 477.904 172.392 477.904C128.095 455.984 92.0183 419.679 69.8699 375.382C69.8699 374.697 70.3266 373.784 70.3266 373.099C98.1833 381.319 126.953 387.484 155.495 392.279C160.518 421.049 166.455 449.59 174.675 477.447Z" fill="#FCFCFC"/>
<path d="M478.13 375.61C455.525 421.049 417.85 457.81 371.955 479.959C380.632 450.96 387.939 421.734 392.734 392.279C421.504 387.484 449.817 381.319 477.674 373.099C477.445 374.012 478.13 374.925 478.13 375.61Z" fill="#FCFCFC"/>
<path d="M479.957 176.045C451.187 167.368 422.189 160.29 392.734 155.266C387.939 125.811 380.86 96.5846 371.955 68.043C419.22 90.648 457.352 128.78 479.957 176.045Z" fill="#FCFCFC"/>
<path d="M174.675 70.5563C166.455 98.413 160.519 126.726 155.724 155.496C126.269 160.063 97.0419 167.37 68.0436 176.046C90.1919 130.151 126.954 92.4763 172.392 69.8713C173.077 69.8713 173.99 70.5563 174.675 70.5563Z" fill="#FCFCFC"/>
<path d="M353.689 150.472C300.715 144.535 247.285 144.535 194.312 150.472C200.02 119.19 207.327 87.9084 217.602 57.7684C218.059 55.9417 217.83 54.5717 218.059 52.7451C236.097 48.4067 254.592 45.6667 274 45.6667C293.18 45.6667 311.904 48.4067 329.714 52.7451C329.942 54.5717 329.942 55.9417 330.399 57.7684C340.674 88.1367 347.98 119.19 353.689 150.472Z" fill="#FCFCFC"/>
<path d="M150.472 353.689C118.962 347.98 87.9083 340.674 57.7683 330.399C55.9417 329.942 54.5717 330.17 52.745 329.942C48.4067 311.904 45.6667 293.409 45.6667 274C45.6667 254.82 48.4067 236.097 52.745 218.287C54.5717 218.059 55.9417 218.059 57.7683 217.602C88.1367 207.555 118.962 200.02 150.472 194.312C144.763 247.285 144.763 300.715 150.472 353.689Z" fill="#FCFCFC"/>
<path d="M502.333 274C502.333 293.409 499.593 311.904 495.255 329.942C493.428 330.17 492.058 329.942 490.232 330.399C459.863 340.445 428.81 347.98 397.528 353.689C403.465 300.715 403.465 247.285 397.528 194.312C428.81 200.02 460.092 207.327 490.232 217.602C492.058 218.059 493.428 218.287 495.255 218.287C499.593 236.325 502.333 254.82 502.333 274Z" fill="#FCFCFC"/>
<path d="M353.689 397.526C347.98 429.036 340.674 460.09 330.399 490.23C329.942 492.056 329.942 493.426 329.714 495.253C311.904 499.591 293.18 502.331 274 502.331C254.592 502.331 236.097 499.591 218.059 495.253C217.83 493.426 218.059 492.056 217.602 490.23C207.555 459.861 200.02 429.036 194.312 397.526C220.799 400.495 247.285 402.55 274 402.55C300.715 402.55 327.43 400.495 353.689 397.526Z" fill="#FCFCFC"/>
<path d="M359.929 359.929C302.821 367.135 245.179 367.135 188.071 359.929C180.865 302.821 180.865 245.179 188.071 188.071C245.179 180.865 302.821 180.865 359.929 188.071C367.135 245.179 367.135 302.821 359.929 359.929Z" fill="#FCFCFC"/>
</g>
<defs>
<clipPath id="clip0_1_463">
<rect width="548" height="548" fill="white"/>
</clipPath>
</defs>
</svg>
