<svg width="22" height="22" viewBox="0 0 22 22" fill="none" xmlns="http://www.w3.org/2000/svg">
<g clip-path="url(#clip0_1_623)">
<path fill-rule="evenodd" clip-rule="evenodd" d="M2.98637 3.25335C2.79819 3.55432 2.68689 3.91369 2.68689 4.31124V17.6889C2.68689 18.1415 2.83118 18.5446 3.06893 18.8685L10.1789 11.033L2.98637 3.25335ZM11.2011 12.1387L4.37091 19.6658C4.79162 19.7346 5.24272 19.6695 5.66302 19.4345L13.7601 14.9066L11.2011 12.1387ZM15.1068 14.1536L12.213 11.0235L15.0995 7.84245L17.6246 9.25444C18.9897 10.0178 18.9897 11.9823 17.6246 12.7457L15.1068 14.1536ZM11.1908 9.91788L4.21017 2.36745C4.67503 2.2515 5.18864 2.30036 5.66302 2.56563L13.7558 7.09107L11.1908 9.91788Z" fill="white"/>
</g>
<defs>
<clipPath id="clip0_1_623">
<rect width="22" height="22" fill="white"/>
</clipPath>
</defs>
</svg>
