<svg width="28" height="28" viewBox="0 0 28 28" fill="none" xmlns="http://www.w3.org/2000/svg">
<path fill-rule="evenodd" clip-rule="evenodd" d="M4.6072 24.6541L14.0543 15.0596L17.3843 18.4411L6.15377 24.783C5.72675 25.0242 5.20376 25.0205 4.77944 24.7729L4.6072 24.6541ZM13.1016 14.092L4.09497 23.2388V4.94519L13.1016 14.092ZM18.7299 10.3121L23.13 12.7965C23.5625 13.0413 23.8307 13.4999 23.8307 13.997C23.8307 14.4941 23.5625 14.9527 23.13 15.1975L18.6097 17.7495L15.0079 14.092L18.7299 10.3121ZM4.50762 3.42849C4.58836 3.349 4.67897 3.27956 4.77944 3.22108C5.20376 2.97347 5.72675 2.96982 6.15377 3.21103L17.5045 9.6205L14.0543 13.1244L4.50762 3.42849Z" fill="black"/>
</svg>
