<svg width="157" height="79" viewBox="0 0 157 79" fill="none" xmlns="http://www.w3.org/2000/svg">
<path d="M93.1812 28.7503C93.1812 28.7503 99.6083 43.0245 84.7004 51.0563C69.7925 59.0881 89.6452 71.0166 98.7185 59.7383C107.792 48.4599 93.1812 28.7503 93.1812 28.7503Z" fill="url(#paint0_linear_4578_16080)"/>
<path d="M56.2503 29.4498C56.2503 29.4498 48.3779 52.2807 71.078 64.8819C93.7782 77.4832 61.089 86.8466 47.2431 69.2024C33.3972 51.5582 56.2503 29.4498 56.2503 29.4498Z" fill="url(#paint1_linear_4578_16080)"/>
<path d="M57.9281 34.7776C61.4162 8.84035 84.1156 1.27939 84.1156 1.27939C84.1156 1.27939 79.1118 25.8499 96.8933 42.7716C114.675 59.6934 73.7076 82.9237 81.0072 74.007C88.3069 65.0903 54.44 60.7149 57.9281 34.7776Z" fill="url(#paint2_linear_4578_16080)"/>
<g clip-path="url(#clip0_4578_16080)">
<path d="M83.0776 35.2341C84.2474 35.9861 85.1386 36.9053 85.7514 37.9915C86.392 39.0777 86.7123 40.2893 86.7123 41.6262C86.7123 44.6899 85.5286 47.0713 83.1611 48.7703C80.9608 50.3022 77.9945 51.0681 74.2623 51.0681C70.001 51.0681 66.7283 50.149 64.4444 48.3107C62.3277 46.6117 61.1161 44.2165 60.8097 41.1249C60.754 40.6792 60.8794 40.3032 61.1857 39.9968C61.4921 39.6905 61.8542 39.5373 62.272 39.5373H65.5307C65.9206 39.5373 66.2548 39.6626 66.5334 39.9133C66.8119 40.164 66.9651 40.4843 66.9929 40.8742C67.0765 42.2668 67.7589 43.3391 69.0401 44.0911C70.3213 44.8153 72.0759 45.1774 74.3041 45.1774C75.8917 45.1774 77.1172 45.052 77.9806 44.8014C78.844 44.5228 79.4707 44.2025 79.8606 43.8405C80.2506 43.4505 80.4734 43.0606 80.5291 42.6707C80.6126 42.2807 80.6544 41.9744 80.6544 41.7515C80.6544 41.1388 80.3898 40.6514 79.8606 40.2893C79.0808 39.7601 78.0502 39.3005 76.769 38.9106C76.0727 38.6878 75.3486 38.4928 74.5966 38.3257C73.8724 38.1308 73.1065 37.9358 72.2988 37.7408C70.5998 37.3787 68.9983 36.8913 67.4943 36.2786C66.6865 35.9444 65.9485 35.5683 65.28 35.1506C64.6116 34.7328 64.0127 34.2454 63.4835 33.6883C62.258 32.4628 61.6453 30.8613 61.6453 28.8838C61.6453 26.1543 62.6898 23.9261 64.7787 22.1993C66.8119 20.556 69.7364 19.7344 73.5521 19.7344C77.3957 19.7344 80.4316 20.6535 82.6598 22.4917C84.7208 24.1907 85.821 26.3771 85.9603 29.0509C86.016 29.4409 85.8906 29.8029 85.5843 30.1372C85.25 30.4157 84.9019 30.555 84.5398 30.555H81.2811C80.919 30.555 80.5987 30.4435 80.3202 30.2207C80.0695 29.9701 79.9163 29.6637 79.8606 29.3016C79.8328 29.0231 79.7631 28.7306 79.6517 28.4243C79.5682 28.1179 79.4011 27.8115 79.1504 27.5051C78.8997 27.1988 78.5655 26.9202 78.1477 26.6696C77.7299 26.3911 77.1729 26.1543 76.4766 25.9593C75.641 25.7087 74.5826 25.5833 73.3014 25.5833C71.9924 25.5833 70.9619 25.7226 70.2098 26.0011C69.4021 26.2518 68.8172 26.5442 68.4552 26.8785C68.1209 27.1848 67.912 27.4773 67.8285 27.7558C67.6892 28.2293 67.6196 28.6749 67.6196 29.0927C67.6196 29.1484 67.6335 29.232 67.6614 29.3434C67.6892 29.4548 67.8006 29.608 67.9956 29.8029C68.2184 29.9979 68.4552 30.179 68.7058 30.3461C68.9843 30.5132 69.3046 30.6664 69.6667 30.8056C70.4466 31.1399 71.4075 31.4462 72.5494 31.7247C73.6635 32.0311 74.8333 32.3236 76.0588 32.6021C77.34 32.9085 78.5377 33.2427 79.6517 33.6048C80.9608 34.0504 82.1027 34.5935 83.0776 35.2341Z" fill="white"/>
<path d="M82.3588 67.6482C83.5286 68.4002 84.4199 69.3193 85.0326 70.4056C85.6732 71.4918 85.9935 72.7034 85.9935 74.0403C85.9935 77.104 84.8098 79.4854 82.4424 81.1844C80.242 82.7162 77.2758 83.4822 73.5436 83.4822C69.2822 83.4822 66.0096 82.563 63.7257 80.7248C61.6089 79.0258 60.3974 76.6305 60.091 73.5389C60.0353 73.0933 60.1606 72.7173 60.467 72.4109C60.7734 72.1045 61.1354 71.9513 61.5532 71.9513H64.8119C65.2019 71.9513 65.5361 72.0767 65.8146 72.3274C66.0931 72.578 66.2463 72.8983 66.2742 73.2883C66.3577 74.6809 67.0401 75.7532 68.3213 76.5052C69.6025 77.2293 71.3572 77.5914 73.5854 77.5914C75.1729 77.5914 76.3984 77.4661 77.2619 77.2154C78.1253 76.9369 78.752 76.6166 79.1419 76.2545C79.5318 75.8646 79.7546 75.4747 79.8103 75.0847C79.8939 74.6948 79.9357 74.3884 79.9357 74.1656C79.9357 73.5529 79.6711 73.0654 79.1419 72.7034C78.362 72.1742 77.3315 71.7146 76.0503 71.3247C75.354 71.1019 74.6298 70.9069 73.8778 70.7398C73.1537 70.5448 72.3877 70.3498 71.58 70.1549C69.881 69.7928 68.2795 69.3054 66.7755 68.6926C65.9678 68.3584 65.2297 67.9824 64.5613 67.5646C63.8928 67.1468 63.294 66.6594 62.7648 66.1024C61.5393 64.8769 60.9265 63.2754 60.9265 61.2979C60.9265 58.5684 61.971 56.3402 64.0599 54.6134C66.0931 52.9701 69.0176 52.1484 72.8334 52.1484C76.677 52.1484 79.7128 53.0676 81.941 54.9058C84.0021 56.6048 85.1023 58.7912 85.2415 61.465C85.2972 61.8549 85.1719 62.217 84.8655 62.5512C84.5313 62.8298 84.1831 62.969 83.821 62.969H80.5623C80.2003 62.969 79.88 62.8576 79.6014 62.6348C79.3508 62.3841 79.1976 62.0777 79.1419 61.7157C79.114 61.4371 79.0444 61.1447 78.933 60.8383C78.8494 60.5319 78.6823 60.2256 78.4317 59.9192C78.181 59.6128 77.8468 59.3343 77.429 59.0836C77.0112 58.8051 76.4541 58.5684 75.7578 58.3734C74.9223 58.1227 73.8639 57.9974 72.5827 57.9974C71.2736 57.9974 70.2431 58.1367 69.4911 58.4152C68.6834 58.6659 68.0985 58.9583 67.7364 59.2925C67.4022 59.5989 67.1933 59.8914 67.1097 60.1699C66.9705 60.6434 66.9008 61.089 66.9008 61.5068C66.9008 61.5625 66.9148 61.646 66.9426 61.7574C66.9705 61.8689 67.0819 62.022 67.2768 62.217C67.4997 62.412 67.7364 62.593 67.9871 62.7601C68.2656 62.9272 68.5859 63.0804 68.948 63.2197C69.7278 63.5539 70.6887 63.8603 71.8307 64.1388C72.9448 64.4452 74.1146 64.7376 75.3401 65.0162C76.6213 65.3225 77.8189 65.6568 78.933 66.0188C80.242 66.4645 81.384 67.0076 82.3588 67.6482Z" fill="white"/>
</g>
<path d="M155.538 30.6172C155.955 30.6172 156.303 30.7704 156.582 31.0768C156.861 31.3553 157 31.6895 157 32.0794V35.0875C157 35.4774 156.861 35.8256 156.582 36.1319C156.303 36.4104 155.955 36.5497 155.538 36.5497H139.745V42.9418H153.699C154.117 42.9418 154.465 43.095 154.744 43.4013C155.022 43.6799 155.162 44.0141 155.162 44.404V47.4538C155.162 47.8438 155.022 48.1919 154.744 48.4983C154.465 48.7768 154.117 48.9161 153.699 48.9161H139.745V55.3499H155.538C155.955 55.3499 156.303 55.5031 156.582 55.8095C156.861 56.088 157 56.4223 157 56.8122V59.8202C157 60.2101 156.861 60.5583 156.582 60.8647C156.303 61.1432 155.955 61.2825 155.538 61.2825H135.15C134.76 61.2825 134.412 61.1432 134.105 60.8647C133.827 60.5583 133.688 60.2101 133.688 59.8202V32.0794C133.688 31.6895 133.827 31.3553 134.105 31.0768C134.412 30.7704 134.76 30.6172 135.15 30.6172H155.538Z" fill="white"/>
<path d="M7.41453 41.5979C7.41453 43.6454 5.75473 45.3052 3.70726 45.3052C1.6598 45.3052 0 43.6454 0 41.5979C0 39.5504 1.6598 37.8906 3.70726 37.8906C5.75473 37.8906 7.41453 39.5504 7.41453 41.5979ZM2.59099 41.5979C2.59099 42.2144 3.09076 42.7142 3.70726 42.7142C4.32376 42.7142 4.82354 42.2144 4.82354 41.5979C4.82354 40.9814 4.32376 40.4816 3.70726 40.4816C3.09076 40.4816 2.59099 40.9814 2.59099 41.5979Z" fill="white"/>
<path d="M96.5864 34.2541C96.5864 36.3016 94.9266 37.9614 92.8791 37.9614C90.8317 37.9614 89.1719 36.3016 89.1719 34.2541C89.1719 32.2067 90.8317 30.5469 92.8791 30.5469C94.9266 30.5469 96.5864 32.2067 96.5864 34.2541ZM91.7629 34.2541C91.7629 34.8706 92.2626 35.3704 92.8791 35.3704C93.4956 35.3704 93.9954 34.8706 93.9954 34.2541C93.9954 33.6376 93.4956 33.1379 92.8791 33.1379C92.2626 33.1379 91.7629 33.6376 91.7629 34.2541Z" fill="white"/>
<path d="M7.41453 50.3088C7.41453 52.3563 5.75473 54.0161 3.70726 54.0161C1.6598 54.0161 0 52.3563 0 50.3088C0 48.2614 1.6598 46.6016 3.70726 46.6016C5.75473 46.6016 7.41453 48.2614 7.41453 50.3088ZM2.59099 50.3088C2.59099 50.9253 3.09076 51.4251 3.70726 51.4251C4.32376 51.4251 4.82354 50.9253 4.82354 50.3088C4.82354 49.6923 4.32376 49.1926 3.70726 49.1926C3.09076 49.1926 2.59099 49.6923 2.59099 50.3088Z" fill="white"/>
<path d="M128.621 59.0264C128.928 59.4999 128.942 60.0013 128.663 60.5304C128.385 61.0318 127.967 61.2825 127.41 61.2825H123.65C123.12 61.2825 122.717 61.0596 122.438 60.614L116.171 50.629H108.777V59.8202C108.777 60.2101 108.623 60.5583 108.317 60.8647C108.039 61.1432 107.704 61.2825 107.314 61.2825H104.181C103.791 61.2825 103.443 61.1432 103.137 60.8647C102.858 60.5583 102.719 60.2101 102.719 59.8202V32.0794C102.719 31.6895 102.858 31.3553 103.137 31.0768C103.443 30.7704 103.791 30.6172 104.181 30.6172H117.466C120.669 30.6172 123.26 31.5224 125.237 33.3328C127.243 35.171 128.245 37.6499 128.245 40.7693C128.245 42.7747 127.8 44.5015 126.908 45.9498C126.045 47.3703 124.764 48.4426 123.065 49.1668C122.953 49.2225 122.842 49.2782 122.731 49.3339C122.619 49.3617 122.508 49.4035 122.396 49.4592L128.621 59.0264ZM108.777 44.7383H116.923C119.319 44.7383 120.948 44.0559 121.811 42.6911C122.09 42.1898 122.229 41.5492 122.229 40.7693C122.229 39.4603 121.798 38.4297 120.934 37.6777C119.987 36.8979 118.706 36.5079 117.09 36.5079H108.777V44.7383Z" fill="white"/>
<path d="M94.4886 40.1953C94.8781 40.1953 95.2119 40.3004 95.4901 40.5105C95.7961 40.7016 95.9491 40.9308 95.9491 41.1983V60.2256C95.9491 60.493 95.7961 60.7318 95.4901 60.942C95.2119 61.133 94.8781 61.2285 94.4886 61.2285H91.3589C90.9695 61.2285 90.6217 61.133 90.3157 60.942C90.0375 60.7318 89.8984 60.493 89.8984 60.2256V41.1983C89.8984 40.9308 90.0375 40.7016 90.3157 40.5105C90.6217 40.3004 90.9695 40.1953 91.3589 40.1953H94.4886Z" fill="white"/>
<path d="M54.6391 30.6172C55.0569 30.6172 55.405 30.7704 55.6836 31.0768C55.9621 31.3553 56.1014 31.6895 56.1014 32.0794V35.0875C56.1014 35.4774 55.9621 35.8256 55.6836 36.1319C55.405 36.4104 55.0569 36.5497 54.6391 36.5497H38.8469V42.9418H52.8009C53.2186 42.9418 53.5668 43.095 53.8453 43.4013C54.1238 43.6799 54.2631 44.0141 54.2631 44.404V47.4538C54.2631 47.8438 54.1238 48.1919 53.8453 48.4983C53.5668 48.7768 53.2186 48.9161 52.8009 48.9161H38.8469V55.3499H54.6391C55.0569 55.3499 55.405 55.5031 55.6836 55.8095C55.9621 56.088 56.1014 56.4223 56.1014 56.8122V59.8202C56.1014 60.2101 55.9621 60.5583 55.6836 60.8647C55.405 61.1432 55.0569 61.2825 54.6391 61.2825H34.2513C33.8614 61.2825 33.5132 61.1432 33.2068 60.8647C32.9283 60.5583 32.7891 60.2101 32.7891 59.8202V32.0794C32.7891 31.6895 32.9283 31.3553 33.2068 31.0768C33.5132 30.7704 33.8614 30.6172 34.2513 30.6172H54.6391Z" fill="white"/>
<path d="M18.7452 31.7034C19.6365 32.0377 20.4581 32.4694 21.2101 32.9986C21.99 33.5277 22.7002 34.1266 23.3408 34.795C26.2653 37.7752 27.7275 41.5492 27.7275 46.1169C27.7275 50.7125 26.2653 54.4865 23.3408 57.4389C22.7002 58.1073 21.99 58.7061 21.2101 59.2353C20.4581 59.7645 19.6365 60.1962 18.7452 60.5304C16.9905 61.2546 15.1941 61.6167 13.3558 61.6167H1.53255C1.14262 61.6167 0.79447 61.4774 0.488096 61.1989C0.209574 60.8925 0.0703125 60.5444 0.0703125 60.1544V57.1464C0.0703125 56.7286 0.209574 56.3805 0.488096 56.1019C0.79447 55.7956 1.14262 55.6424 1.53255 55.6424H13.2305C15.7093 55.6424 17.7286 54.7372 19.2883 52.9268C20.8202 51.1164 21.5861 48.8465 21.5861 46.1169C21.5861 43.3874 20.8202 41.1175 19.2883 39.3071C17.7286 37.4967 15.7093 36.5915 13.2305 36.5915H1.53255C1.14262 36.5915 0.79447 36.4522 0.488096 36.1737C0.209574 35.8673 0.0703125 35.5052 0.0703125 35.0875V32.0794C0.0703125 31.6895 0.209574 31.3553 0.488096 31.0768C0.79447 30.7704 1.14262 30.6172 1.53255 30.6172H13.3558C15.1941 30.6172 16.9905 30.9793 18.7452 31.7034Z" fill="white"/>
<defs>
<linearGradient id="paint0_linear_4578_16080" x1="95.6648" y1="30.5393" x2="97.7108" y2="45.1119" gradientUnits="userSpaceOnUse">
<stop stop-color="#FA5E61"/>
<stop offset="1" stop-color="#F66382"/>
</linearGradient>
<linearGradient id="paint1_linear_4578_16080" x1="56.7427" y1="29.3991" x2="61.9236" y2="79.6789" gradientUnits="userSpaceOnUse">
<stop stop-color="#FCBA83"/>
<stop offset="0.25" stop-color="#FA5E61"/>
<stop offset="1" stop-color="#F36696"/>
</linearGradient>
<linearGradient id="paint2_linear_4578_16080" x1="62.3826" y1="-1.15355" x2="94.3258" y2="68.9241" gradientUnits="userSpaceOnUse">
<stop stop-color="#FCBA83"/>
<stop offset="0.32131" stop-color="#FA5E61"/>
<stop offset="1" stop-color="#F36696"/>
</linearGradient>
<clipPath id="clip0_4578_16080">
<rect width="31.2617" height="30.5414" fill="white" transform="translate(57.3359 30.6875)"/>
</clipPath>
</defs>
</svg>
