<svg width="101" height="52" viewBox="0 0 101 52" fill="none" xmlns="http://www.w3.org/2000/svg">
<path d="M59.9374 19.2402C59.9374 19.2402 64.072 28.4229 54.4816 33.5899C44.8911 38.7569 57.6626 46.4306 63.4996 39.1751C69.3366 31.9196 59.9374 19.2402 59.9374 19.2402Z" fill="url(#paint0_linear_4651_6046)"/>
<path d="M36.1829 19.6885C36.1829 19.6885 31.1185 34.3759 45.7218 42.4824C60.3251 50.589 39.2957 56.6125 30.3885 45.2618C21.4812 33.9111 36.1829 19.6885 36.1829 19.6885Z" fill="url(#paint1_linear_4651_6046)"/>
<path d="M37.2641 23.1127C39.5081 6.42695 54.1109 1.56289 54.1109 1.56289C54.1109 1.56289 50.8919 17.3694 62.3309 28.2554C73.7699 39.1413 47.4152 54.0857 52.1112 48.3494C56.8071 42.6132 35.0202 39.7985 37.2641 23.1127Z" fill="url(#paint2_linear_4651_6046)"/>
<g clip-path="url(#clip0_4651_6046)">
<path d="M53.4428 23.4087C54.1954 23.8925 54.7687 24.4837 55.1629 25.1825C55.575 25.8813 55.7811 26.6607 55.7811 27.5208C55.7811 29.4917 55.0196 31.0237 53.4966 32.1167C52.0811 33.1021 50.1728 33.5949 47.7719 33.5949C45.0305 33.5949 42.9251 33.0036 41.4559 31.821C40.0942 30.728 39.3147 29.1871 39.1176 27.1983C39.0818 26.9116 39.1624 26.6697 39.3595 26.4726C39.5566 26.2755 39.7896 26.177 40.0583 26.177H42.1547C42.4055 26.177 42.6205 26.2576 42.7997 26.4188C42.9789 26.5801 43.0774 26.7862 43.0954 27.037C43.1491 27.9329 43.5881 28.6227 44.4123 29.1065C45.2365 29.5724 46.3653 29.8053 47.7987 29.8053C48.8201 29.8053 49.6084 29.7247 50.1639 29.5634C50.7193 29.3842 51.1225 29.1782 51.3733 28.9452C51.6242 28.6944 51.7675 28.4435 51.8033 28.1927C51.8571 27.9418 51.884 27.7448 51.884 27.6014C51.884 27.2072 51.7138 26.8937 51.3733 26.6607C50.8716 26.3203 50.2087 26.0247 49.3845 25.7738C48.9365 25.6305 48.4707 25.505 47.9869 25.3975C47.521 25.2721 47.0283 25.1467 46.5087 25.0213C45.4157 24.7883 44.3854 24.4748 43.4179 24.0806C42.8983 23.8656 42.4235 23.6237 41.9934 23.3549C41.5634 23.0862 41.1782 22.7726 40.8377 22.4142C40.0494 21.6259 39.6552 20.5956 39.6552 19.3235C39.6552 17.5675 40.3271 16.1341 41.6709 15.0232C42.9789 13.9661 44.8603 13.4375 47.315 13.4375C49.7876 13.4375 51.7406 14.0288 53.174 15.2113C54.5 16.3043 55.2077 17.7109 55.2973 19.431C55.3331 19.6818 55.2525 19.9147 55.0554 20.1297C54.8404 20.3089 54.6164 20.3985 54.3835 20.3985H52.2871C52.0542 20.3985 51.8481 20.3268 51.669 20.1835C51.5077 20.0222 51.4092 19.8251 51.3733 19.5922C51.3554 19.413 51.3106 19.2249 51.2389 19.0278C51.1852 18.8307 51.0777 18.6336 50.9164 18.4365C50.7552 18.2394 50.5401 18.0603 50.2714 17.899C50.0026 17.7198 49.6443 17.5675 49.1963 17.4421C48.6588 17.2808 47.9779 17.2002 47.1537 17.2002C46.3116 17.2002 45.6486 17.2898 45.1649 17.469C44.6452 17.6302 44.269 17.8184 44.036 18.0334C43.821 18.2305 43.6866 18.4186 43.6329 18.5978C43.5433 18.9024 43.4985 19.1891 43.4985 19.4578C43.4985 19.4937 43.5075 19.5474 43.5254 19.6191C43.5433 19.6908 43.615 19.7893 43.7404 19.9147C43.8837 20.0402 44.036 20.1566 44.1973 20.2641C44.3765 20.3716 44.5825 20.4702 44.8155 20.5598C45.3172 20.7748 45.9353 20.9719 46.6699 21.1511C47.3866 21.3481 48.1392 21.5363 48.9276 21.7155C49.7518 21.9126 50.5222 22.1276 51.2389 22.3605C52.0811 22.6472 52.8157 22.9966 53.4428 23.4087Z" fill="#3B3848"/>
<path d="M52.9819 44.2602C53.7344 44.744 54.3078 45.3353 54.702 46.0341C55.1141 46.7329 55.3201 47.5123 55.3201 48.3723C55.3201 50.3433 54.5586 51.8752 53.0356 52.9682C51.6201 53.9537 49.7119 54.4464 47.3109 54.4464C44.5695 54.4464 42.4642 53.8551 40.995 52.6726C39.6332 51.5796 38.8538 50.0387 38.6567 48.0498C38.6209 47.7631 38.7015 47.5213 38.8986 47.3242C39.0957 47.1271 39.3286 47.0285 39.5974 47.0285H41.6937C41.9446 47.0285 42.1596 47.1091 42.3388 47.2704C42.518 47.4317 42.6165 47.6377 42.6344 47.8886C42.6882 48.7844 43.1272 49.4743 43.9514 49.9581C44.7756 50.4239 45.9044 50.6568 47.3378 50.6568C48.3591 50.6568 49.1475 50.5762 49.7029 50.415C50.2584 50.2358 50.6615 50.0297 50.9124 49.7968C51.1632 49.5459 51.3066 49.2951 51.3424 49.0443C51.3962 48.7934 51.423 48.5963 51.423 48.453C51.423 48.0588 51.2528 47.7452 50.9124 47.5123C50.4107 47.1719 49.7477 46.8762 48.9235 46.6254C48.4756 46.482 48.0097 46.3566 47.5259 46.2491C47.0601 46.1237 46.5674 45.9983 46.0477 45.8728C44.9548 45.6399 43.9245 45.3263 42.9569 44.9322C42.4373 44.7171 41.9625 44.4753 41.5325 44.2065C41.1025 43.9377 40.7172 43.6242 40.3768 43.2658C39.5884 42.4774 39.1942 41.4472 39.1942 40.175C39.1942 38.4191 39.8661 36.9857 41.21 35.8748C42.518 34.8176 44.3993 34.2891 46.854 34.2891C49.3267 34.2891 51.2797 34.8803 52.7131 36.0629C54.039 37.1559 54.7468 38.5624 54.8364 40.2825C54.8722 40.5334 54.7916 40.7663 54.5945 40.9813C54.3795 41.1605 54.1555 41.2501 53.9225 41.2501H51.8262C51.5933 41.2501 51.3872 41.1784 51.208 41.0351C51.0468 40.8738 50.9482 40.6767 50.9124 40.4438C50.8945 40.2646 50.8497 40.0765 50.778 39.8794C50.7242 39.6823 50.6167 39.4852 50.4555 39.2881C50.2942 39.091 50.0792 38.9118 49.8104 38.7506C49.5417 38.5714 49.1833 38.4191 48.7354 38.2937C48.1979 38.1324 47.517 38.0518 46.6928 38.0518C45.8506 38.0518 45.1877 38.1414 44.7039 38.3205C44.1843 38.4818 43.808 38.6699 43.5751 38.8849C43.3601 39.082 43.2257 39.2702 43.172 39.4493C43.0824 39.7539 43.0376 40.0406 43.0376 40.3094C43.0376 40.3452 43.0465 40.399 43.0645 40.4707C43.0824 40.5423 43.154 40.6409 43.2795 40.7663C43.4228 40.8917 43.5751 41.0082 43.7364 41.1157C43.9155 41.2232 44.1216 41.3217 44.3545 41.4113C44.8562 41.6263 45.4744 41.8234 46.209 42.0026C46.9257 42.1997 47.6782 42.3878 48.4666 42.567C49.2908 42.7641 50.0613 42.9791 50.778 43.2121C51.6201 43.4987 52.3548 43.8481 52.9819 44.2602Z" fill="#3B3848"/>
</g>
<path d="M100.056 20.4375C100.325 20.4375 100.549 20.536 100.728 20.7331C100.907 20.9123 100.997 21.1273 100.997 21.3782V23.3133C100.997 23.5641 100.907 23.7881 100.728 23.9852C100.549 24.1644 100.325 24.254 100.056 24.254H89.8971V28.3661H98.8738C99.1426 28.3661 99.3666 28.4646 99.5458 28.6617C99.7249 28.8409 99.8145 29.0559 99.8145 29.3067V31.2687C99.8145 31.5196 99.7249 31.7435 99.5458 31.9406C99.3666 32.1198 99.1426 32.2094 98.8738 32.2094H89.8971V36.3484H100.056C100.325 36.3484 100.549 36.4469 100.728 36.644C100.907 36.8232 100.997 37.0382 100.997 37.2891V39.2242C100.997 39.475 100.907 39.699 100.728 39.8961C100.549 40.0753 100.325 40.1648 100.056 40.1648H86.9407C86.6898 40.1648 86.4659 40.0753 86.2688 39.8961C86.0896 39.699 86 39.475 86 39.2242V21.3782C86 21.1273 86.0896 20.9123 86.2688 20.7331C86.4659 20.536 86.6898 20.4375 86.9407 20.4375H100.056Z" fill="#3B3848"/>
<path d="M4.76985 27.5021C4.76985 28.8193 3.70209 29.887 2.38493 29.887C1.06777 29.887 0 28.8193 0 27.5021C0 26.185 1.06777 25.1172 2.38493 25.1172C3.70209 25.1172 4.76985 26.185 4.76985 27.5021ZM1.66681 27.5021C1.66681 27.8987 1.98832 28.2202 2.38493 28.2202C2.78153 28.2202 3.10304 27.8987 3.10304 27.5021C3.10304 27.1055 2.78153 26.784 2.38493 26.784C1.98832 26.784 1.66681 27.1055 1.66681 27.5021Z" fill="#3B3848"/>
<path d="M62.137 22.7756C62.137 24.0927 61.0693 25.1605 59.7521 25.1605C58.435 25.1605 57.3672 24.0927 57.3672 22.7756C57.3672 21.4584 58.435 20.3906 59.7521 20.3906C61.0693 20.3906 62.137 21.4584 62.137 22.7756ZM59.034 22.7756C59.034 23.1722 59.3555 23.4937 59.7521 23.4937C60.1487 23.4937 60.4702 23.1722 60.4702 22.7756C60.4702 22.3789 60.1487 22.0574 59.7521 22.0574C59.3555 22.0574 59.034 22.3789 59.034 22.7756Z" fill="#3B3848"/>
<path d="M4.76985 33.1037C4.76985 34.4208 3.70209 35.4886 2.38493 35.4886C1.06777 35.4886 0 34.4208 0 33.1037C0 31.7865 1.06777 30.7188 2.38493 30.7188C3.70209 30.7188 4.76985 31.7865 4.76985 33.1037ZM1.66681 33.1037C1.66681 33.5003 1.98832 33.8218 2.38493 33.8218C2.78153 33.8218 3.10304 33.5003 3.10304 33.1037C3.10304 32.7071 2.78153 32.3856 2.38493 32.3856C1.98832 32.3856 1.66681 32.7071 1.66681 33.1037Z" fill="#3B3848"/>
<path d="M82.7416 38.7135C82.9386 39.0181 82.9476 39.3406 82.7684 39.6811C82.5892 40.0036 82.3205 40.1648 81.9621 40.1648H79.5432C79.2028 40.1648 78.943 40.0215 78.7638 39.7348L74.7324 33.3113H69.9752V39.2242C69.9752 39.475 69.8767 39.699 69.6796 39.8961C69.5004 40.0753 69.2854 40.1648 69.0345 40.1648H67.0188C66.768 40.1648 66.544 40.0753 66.3469 39.8961C66.1677 39.699 66.0781 39.475 66.0781 39.2242V21.3782C66.0781 21.1273 66.1677 20.9123 66.3469 20.7331C66.544 20.536 66.768 20.4375 67.0188 20.4375H75.5655C77.6261 20.4375 79.2924 21.0198 80.5646 22.1845C81.8546 23.367 82.4997 24.9617 82.4997 26.9685C82.4997 28.2586 82.213 29.3695 81.6396 30.3012C81.0842 31.215 80.26 31.9048 79.167 32.3707C79.0953 32.4065 79.0236 32.4423 78.952 32.4782C78.8803 32.4961 78.8086 32.523 78.737 32.5588L82.7416 38.7135ZM69.9752 29.5218H75.2161C76.7571 29.5218 77.8052 29.0828 78.3607 28.2048C78.5399 27.8823 78.6294 27.4702 78.6294 26.9685C78.6294 26.1264 78.3517 25.4634 77.7963 24.9796C77.1871 24.4779 76.3629 24.2271 75.3236 24.2271H69.9752V29.5218Z" fill="#3B3848"/>
<path d="M60.781 26.6016C61.0316 26.6016 61.2463 26.6692 61.4253 26.8043C61.6222 26.9272 61.7206 27.0747 61.7206 27.2468V39.4873C61.7206 39.6593 61.6222 39.813 61.4253 39.9481C61.2463 40.071 61.0316 40.1325 60.781 40.1325H58.7677C58.5171 40.1325 58.2934 40.071 58.0966 39.9481C57.9176 39.813 57.8281 39.6593 57.8281 39.4873V27.2468C57.8281 27.0747 57.9176 26.9272 58.0966 26.8043C58.2934 26.6692 58.5171 26.6016 58.7677 26.6016H60.781Z" fill="#3B3848"/>
<path d="M35.1502 20.4375C35.4189 20.4375 35.6429 20.536 35.8221 20.7331C36.0012 20.9123 36.0908 21.1273 36.0908 21.3782V23.3133C36.0908 23.5641 36.0012 23.7881 35.8221 23.9852C35.6429 24.1644 35.4189 24.254 35.1502 24.254H24.9908V28.3661H33.9676C34.2364 28.3661 34.4603 28.4646 34.6395 28.6617C34.8187 28.8409 34.9083 29.0559 34.9083 29.3067V31.2687C34.9083 31.5196 34.8187 31.7435 34.6395 31.9406C34.4603 32.1198 34.2364 32.2094 33.9676 32.2094H24.9908V36.3484H35.1502C35.4189 36.3484 35.6429 36.4469 35.8221 36.644C36.0012 36.8232 36.0908 37.0382 36.0908 37.2891V39.2242C36.0908 39.475 36.0012 39.699 35.8221 39.8961C35.6429 40.0753 35.4189 40.1648 35.1502 40.1648H22.0344C21.7836 40.1648 21.5596 40.0753 21.3625 39.8961C21.1833 39.699 21.0938 39.475 21.0938 39.2242V21.3782C21.0938 21.1273 21.1833 20.9123 21.3625 20.7331C21.5596 20.536 21.7836 20.4375 22.0344 20.4375H35.1502Z" fill="#3B3848"/>
<path d="M12.0607 21.1363C12.634 21.3513 13.1626 21.629 13.6464 21.9695C14.1481 22.3099 14.605 22.6951 15.0171 23.1251C16.8984 25.0423 17.8391 27.4702 17.8391 30.4087C17.8391 33.3651 16.8984 35.7929 15.0171 37.6922C14.605 38.1222 14.1481 38.5075 13.6464 38.8479C13.1626 39.1883 12.634 39.4661 12.0607 39.6811C10.9319 40.1469 9.77616 40.3799 8.5936 40.3799H0.987552C0.736705 40.3799 0.512734 40.2903 0.31564 40.1111C0.136463 39.914 0.046875 39.69 0.046875 39.4392V37.5041C0.046875 37.2353 0.136463 37.0113 0.31564 36.8322C0.512734 36.6351 0.736705 36.5365 0.987552 36.5365H8.51297C10.1076 36.5365 11.4067 35.9542 12.4101 34.7895C13.3955 33.6249 13.8883 32.1646 13.8883 30.4087C13.8883 28.6527 13.3955 27.1925 12.4101 26.0278C11.4067 24.8632 10.1076 24.2808 8.51297 24.2808H0.987552C0.736705 24.2808 0.512734 24.1912 0.31564 24.0121C0.136463 23.815 0.046875 23.582 0.046875 23.3133V21.3782C0.046875 21.1273 0.136463 20.9123 0.31564 20.7331C0.512734 20.536 0.736705 20.4375 0.987552 20.4375H8.5936C9.77616 20.4375 10.9319 20.6704 12.0607 21.1363Z" fill="#3B3848"/>
<defs>
<linearGradient id="paint0_linear_4651_6046" x1="61.5351" y1="20.3911" x2="62.8513" y2="29.7658" gradientUnits="userSpaceOnUse">
<stop stop-color="#FA5E61"/>
<stop offset="1" stop-color="#F66382"/>
</linearGradient>
<linearGradient id="paint1_linear_4651_6046" x1="36.4997" y1="19.6559" x2="39.8326" y2="52.0015" gradientUnits="userSpaceOnUse">
<stop stop-color="#FCBA83"/>
<stop offset="0.25" stop-color="#FA5E61"/>
<stop offset="1" stop-color="#F36696"/>
</linearGradient>
<linearGradient id="paint2_linear_4651_6046" x1="40.1298" y1="-0.00224599" x2="60.6792" y2="45.0795" gradientUnits="userSpaceOnUse">
<stop stop-color="#FCBA83"/>
<stop offset="0.32131" stop-color="#FA5E61"/>
<stop offset="1" stop-color="#F36696"/>
</linearGradient>
<clipPath id="clip0_4651_6046">
<rect width="20.111" height="19.6476" fill="white" transform="translate(36.8828 20.4844)"/>
</clipPath>
</defs>
</svg>
