<svg width="130" height="118" viewBox="0 0 130 118" fill="none" xmlns="http://www.w3.org/2000/svg">
<path fill-rule="evenodd" clip-rule="evenodd" d="M55.8483 46.9207C55.8483 46.9207 51.0526 111.108 43.9306 112.461C37.2336 113.735 10.0078 50.9375 10.0078 50.9375" fill="#F1854F"/>
<path d="M52.7344 56.8368C50.9427 57.1763 49.9423 56.5789 48.4293 55.675C48.0792 55.4656 47.7133 55.2471 47.3176 55.0286C47.1323 54.9262 46.9252 54.8976 46.7317 54.9343C46.4894 54.9802 46.2681 55.1272 46.1362 55.3575C44.2602 58.6128 41.6885 60.7633 39.0792 61.2577C38.1992 61.4244 37.2968 61.403 36.4223 61.2175C35.6804 61.0601 34.7258 60.3165 34.0335 60.2947C32.7159 60.2531 32.0143 62.0687 30.9681 62.6451C29.6876 63.3498 28.1319 63.8982 26.7427 63.1819C25.6516 62.6189 24.8717 61.1563 23.4629 61.4223C23.3948 61.4352 23.3288 61.4566 23.265 61.4851C23.0277 61.5922 22.8505 61.7987 22.7814 62.0498C22.2348 64.0277 19.1985 65.5213 17.3616 65.8396C17.1762 65.8721 16.9523 65.8697 16.7058 65.849C19.0277 70.8908 21.7665 76.7102 24.6174 82.4969C25.1989 82.0697 25.8277 81.81 26.531 82.0514C27.7567 82.4736 28.1376 84.3595 29.04 85.2003C30.2326 86.309 31.758 86.9741 33.4122 86.7511C33.5229 86.7364 33.6343 86.7179 33.7464 86.6967C35.3528 86.3923 36.828 85.5612 38.0615 84.5107C40.0741 82.7908 40.1318 80.7247 43.1161 82.3288C44.2278 82.926 45.3235 83.3782 46.6119 83.1341C47.9157 82.887 49.0192 82.1166 49.8879 81.1388C50.5337 80.4125 51.2858 78.0517 52.2308 77.7995C52.3863 77.7589 52.5573 77.7558 52.7392 77.7798C53.7867 69.4552 54.5958 61.3017 55.1264 55.4649C54.2782 56.0193 53.4281 56.7045 52.7344 56.8368Z" fill="#074785"/>
<path fill-rule="evenodd" clip-rule="evenodd" d="M57.5612 48.2672C58.1536 61.6804 47.6412 73.04 34.0806 73.6381C20.5206 74.2374 9.0478 63.848 8.45546 50.4348C7.86339 37.0207 18.3763 25.6615 31.9365 25.0635C45.4965 24.4646 56.9691 34.8531 57.5612 48.2672Z" fill="#29AEFD"/>
<path d="M33.4658 82.3117C33.3537 82.3329 33.2423 82.3514 33.1316 82.3662C31.4773 82.5883 29.9519 81.9231 28.7594 80.8153C27.8566 79.975 27.4761 78.0886 26.2504 77.6664C24.6505 77.116 23.4336 79.1623 22.2839 79.8714C20.8164 80.7778 19.2149 81.5552 17.5092 81.8784C14.8267 82.3867 12.7235 81.5082 11.4262 79.3371C10.1684 77.056 10.2876 74.6688 11.3175 72.3493C11.9241 70.9805 12.8923 69.8375 13.7615 68.633C14.6432 67.4125 15.2097 66.5039 14.0094 65.2752C13.2048 64.4522 11.2859 63.0045 11.9448 61.6288C12.5924 60.277 15.7647 61.6827 17.0814 61.4545C18.9182 61.1353 21.9548 59.6408 22.5011 57.6639C22.5702 57.4132 22.7474 57.2062 22.9851 57.0991C23.0488 57.0702 23.115 57.0497 23.1831 57.0368C24.5914 56.7708 25.3714 58.2334 26.4627 58.7955C27.852 59.5122 29.4078 58.9642 30.6881 58.2587C31.7339 57.6819 32.4359 55.8666 33.7538 55.9095C34.4457 55.9314 35.4001 56.6746 36.1421 56.8324C37.0167 57.0183 37.9191 57.0398 38.7995 56.8729C41.4084 56.3786 43.98 54.2277 45.8563 50.9719C45.9885 50.7425 46.2102 50.5954 46.4521 50.5496C46.6455 50.5129 46.852 50.5403 47.0377 50.643C47.4331 50.8621 47.7991 51.0809 48.1495 51.2894C49.6625 52.1937 50.6624 52.7904 52.4541 52.4509C53.792 52.1965 55.711 49.882 57.0748 50.427C58.9268 51.1682 57.7732 54.8475 57.4332 56.2239C57.1499 57.371 56.8569 58.5576 57.112 59.1367C57.1183 59.151 57.1241 59.1654 57.1295 59.1799C57.5881 60.3904 58.6015 61.2759 59.6743 62.2134C61.0773 63.4397 62.6678 64.8298 63.1091 67.1592C63.5043 69.2445 63.2005 71.0859 62.2307 72.4828C61.3659 73.729 59.9782 74.5887 58.3245 74.903C57.1155 75.1329 55.9855 74.7901 54.8641 74.3664C54.0911 74.0756 52.7854 73.1937 51.9503 73.4153C51.0051 73.6663 50.2531 76.0275 49.6073 76.7542C48.7386 77.7316 47.6352 78.5029 46.331 78.75C45.0426 78.9941 43.947 78.5424 42.8356 77.9446C39.8513 76.3401 39.7932 78.4063 37.7805 80.1258C36.5474 81.1767 35.0722 82.0073 33.4658 82.3117Z" fill="#F9D555"/>
<path fill-rule="evenodd" clip-rule="evenodd" d="M42.0156 65.1825C42.3447 66.7416 44.4351 67.6176 46.6785 67.142C48.9254 66.6653 50.4757 65.0165 50.1457 63.4575C49.8161 61.8985 47.7278 61.0234 45.4813 61.4974C43.2367 61.9741 41.6845 63.6246 42.0156 65.1825Z" fill="#FD6085"/>
<path fill-rule="evenodd" clip-rule="evenodd" d="M23.117 69.6505C23.4466 71.2096 25.5351 72.0855 27.7806 71.6108C30.025 71.1332 31.5794 69.485 31.2476 67.9255C30.9166 66.3658 28.8288 65.4893 26.5838 65.9661C24.3388 66.4434 22.7859 68.0922 23.117 69.6505Z" fill="#FD6085"/>
<path d="M36.9388 54.426C37.7308 58.157 41.3336 60.5848 45.134 60.0513C45.3099 60.0269 45.4847 59.9951 45.6605 59.9587C49.6495 59.1124 47.9238 56.1848 47.0959 52.2815C46.3379 48.7139 47.2954 45.4154 43.6808 45.6844C43.3434 45.7079 43.0035 45.7559 42.6617 45.8287C38.6733 46.6731 36.1107 50.524 36.9388 54.426Z" fill="white"/>
<path fill-rule="evenodd" clip-rule="evenodd" d="M51.3822 51.3603C52.2106 55.2622 49.6486 59.1113 45.6596 59.9575C45.4844 59.9943 45.3097 60.0248 45.1328 60.0485C40.9532 54.3704 42.1861 48.9362 43.6801 45.6845C47.2939 45.4157 50.6264 47.7905 51.3822 51.3603Z" fill="#074785"/>
<path d="M16.7901 58.667C17.5804 62.3961 21.1822 64.8232 24.9836 64.2926C25.1595 64.2682 25.3349 64.2372 25.5114 64.1997C29.5003 63.3552 28.0842 60.295 27.256 56.3921C26.4999 52.8233 27.1447 49.6554 23.5296 49.924C23.1926 49.9498 22.8529 49.9986 22.5137 50.0709C18.5239 50.9151 15.963 54.7653 16.7901 58.667Z" fill="white"/>
<path fill-rule="evenodd" clip-rule="evenodd" d="M31.2416 55.6043C32.0693 59.5067 29.5082 63.3561 25.5193 64.2006C25.3425 64.2385 25.1673 64.2664 24.9916 64.2917C20.813 58.6143 22.0462 53.1791 23.5392 49.9268C27.1527 49.6589 30.4839 52.0339 31.2416 55.6043Z" fill="#074785"/>
<path d="M47.97 44.1353C48.6064 44.0001 49.0382 43.4101 49.0435 42.6704C49.0499 41.8201 48.5306 41.1057 47.7816 40.9346C45.9762 40.5234 44.0989 40.5119 42.2062 40.8985C41.3843 41.0724 40.915 41.8814 41.1039 42.7825C41.2922 43.6917 42.0526 44.2509 42.8683 44.0843C44.4003 43.7706 45.8745 43.7843 47.3725 44.127C47.5777 44.1733 47.7777 44.1761 47.97 44.1353Z" fill="#074785"/>
<path d="M24.0747 47.8972C24.5946 47.51 24.7414 46.794 24.4365 46.1184C24.086 45.3428 23.3177 44.9106 22.5655 45.0687C20.7527 45.449 19.0441 46.2224 17.4849 47.366C16.8122 47.8659 16.7239 48.7996 17.2701 49.5408C17.8229 50.2869 18.7467 50.4772 19.4195 49.9844C20.6801 49.0578 22.0228 48.4549 23.5301 48.1396C23.7333 48.0958 23.9161 48.0146 24.0747 47.8972Z" fill="#074785"/>
<path d="M32.3377 61.8896C32.0782 60.7283 33.8797 60.312 34.1375 61.4758C34.3715 62.5187 34.4571 64.8148 35.8863 64.8619C37.5944 64.9143 37.0479 62.3902 36.7849 61.4331C36.4674 60.2837 38.2697 59.8712 38.5853 61.0175C39.1754 63.1559 39.1444 66.0182 36.5166 66.6371C33.5032 67.3456 32.8181 64.0435 32.3377 61.8896Z" fill="#074785"/>
<path d="M29.4547 54.0144C29.9896 55.2885 30.2636 56.6058 29.9902 57.9803C29.8681 58.5993 28.9261 58.3406 29.0468 57.7307C29.2648 56.6252 29.035 55.5155 28.6036 54.4932C28.3631 53.9211 29.2093 53.4331 29.4547 54.0144Z" fill="white"/>
<path d="M29.7116 59.6197C29.6625 59.7678 29.6158 59.9145 29.5668 60.0608C29.4803 60.3135 29.2397 60.4802 28.9686 60.4069C28.726 60.3407 28.5372 60.0608 28.6237 59.8103C28.6732 59.6643 28.7209 59.5161 28.7695 59.3703C28.8556 59.1154 29.0962 58.9506 29.3655 59.0241C29.6108 59.0876 29.8007 59.3691 29.7116 59.6197Z" fill="white"/>
<path d="M28.3609 52.5389C28.5102 52.7581 28.3889 53.0817 28.1735 53.2019C27.9265 53.3418 27.6603 53.2361 27.51 53.0181C27.5151 53.0216 27.5185 53.0236 27.5253 53.0263C27.3036 52.8812 27.209 52.5998 27.3509 52.3614C27.4788 52.1425 27.7958 52.039 28.0168 52.1851C28.1641 52.284 28.2606 52.3957 28.3609 52.5389Z" fill="white"/>
<path d="M27.5095 53.0245C27.503 53.0204 27.4982 53.0138 27.4922 53.0078C27.498 53.0129 27.5037 53.0149 27.5092 53.0201C27.5891 53.1353 27.532 53.0495 27.5095 53.0245Z" fill="white"/>
<path d="M27.4966 53.0089C27.4341 52.9683 27.4667 52.9852 27.4966 53.0089V53.0089Z" fill="white"/>
<path d="M49.8443 49.6789C50.3806 50.9532 50.6534 52.2712 50.3804 53.6455C50.2583 54.2646 49.3155 54.0065 49.4381 53.3949C49.657 52.2897 49.4252 51.1808 48.9937 50.1576C48.7525 49.5847 49.6002 49.0973 49.8443 49.6789Z" fill="white"/>
<path d="M50.0958 55.2848C50.0455 55.4314 49.9998 55.5788 49.951 55.726C49.8641 55.9761 49.6226 56.1433 49.3522 56.0713C49.1104 56.0049 48.9207 55.727 49.0056 55.475C49.0575 55.3277 49.1035 55.1798 49.1536 55.0346C49.2393 54.7802 49.4792 54.6142 49.7503 54.6879C49.9931 54.7523 50.1818 55.0322 50.0958 55.2848Z" fill="white"/>
<path d="M48.749 48.2019C48.9004 48.4233 48.7783 48.7453 48.5643 48.8678C48.3172 49.0051 48.0514 48.9012 47.9011 48.6813C47.9051 48.6859 47.9096 48.6886 47.9162 48.6905C47.6939 48.5446 47.6003 48.2639 47.7402 48.0263C47.8693 47.8064 48.1852 47.7026 48.4072 47.8512C48.5538 47.9467 48.6511 48.0599 48.749 48.2019Z" fill="white"/>
<path d="M47.9004 48.6876C47.8954 48.6823 47.8894 48.6786 47.8828 48.6719C47.8899 48.6767 47.8954 48.6797 47.9022 48.6828C47.9814 48.7991 47.9229 48.7126 47.9004 48.6876Z" fill="white"/>
<path d="M47.8852 48.673C47.8256 48.6327 47.858 48.6487 47.8852 48.673V48.673Z" fill="white"/>
<path fill-rule="evenodd" clip-rule="evenodd" d="M17.61 44.5455C17.5886 44.5496 17.5668 44.5519 17.5449 44.5534C12.6653 44.7402 8.08525 44.6551 5.6645 41.6141C4.84722 40.5886 4.92597 39.6984 5.13617 39.1323C5.52143 38.0953 6.68696 37.2755 8.17865 36.9928C9.38912 36.7635 10.5885 36.9131 11.6209 37.3914C11.2207 36.1007 11.3614 34.7674 11.7212 33.7672C12.2259 32.364 13.202 31.3676 14.2673 31.1657C14.834 31.0584 15.6945 31.1206 16.5727 32.0276C19.2789 34.8226 18.7727 39.3747 17.9593 44.1894C17.929 44.3711 17.7872 44.512 17.61 44.5455Z" fill="#FFA4AC"/>
<path fill-rule="evenodd" clip-rule="evenodd" d="M71.707 101.091C71.5632 101.119 71.4102 101.072 71.3051 100.959C66.1819 95.4639 61.6739 90.0488 62.7714 84.2297C63.0965 82.5009 64.0908 81.3951 65.5696 81.1149C67.1962 80.8067 69.2254 81.5569 70.8646 83.0731C72.2186 84.3241 73.1047 85.8814 73.4459 87.5438C74.7269 85.0823 77.2102 83.5813 79.385 83.1693C81.0761 82.8488 82.5923 83.161 83.5453 84.0251C84.1212 84.5469 84.7752 85.5319 84.6203 87.2604C84.0906 93.1582 78.2786 97.1415 71.8524 101.035C71.8063 101.063 71.7575 101.082 71.707 101.091Z" fill="#A089E4"/>
<path fill-rule="evenodd" clip-rule="evenodd" d="M30.3309 43.4264C30.1927 43.4526 30.046 43.4112 29.9411 43.3069C25.9924 39.3879 22.5014 35.5098 23.1502 31.144C23.3543 29.7641 24.1249 28.8794 25.3183 28.6532C26.5596 28.418 28.108 28.9636 29.3588 30.0754C30.2733 30.8882 30.9173 31.8933 31.2448 32.9805C32.1937 31.2183 33.9792 30.0619 35.6429 29.7466C36.8662 29.5149 37.9355 29.7317 38.6525 30.3563C39.094 30.7417 39.6061 31.4716 39.5406 32.769C39.3172 37.1779 35.132 40.2952 30.4905 43.3606C30.441 43.3944 30.387 43.4157 30.3309 43.4264Z" fill="#7BEFE5"/>
<path fill-rule="evenodd" clip-rule="evenodd" d="M68.4243 43.9915C68.4243 43.9915 96.3687 101.975 103.493 100.63C110.191 99.3656 112.557 30.9604 112.557 30.9604" fill="#F1854F"/>
<path d="M74.9519 52.0815C76.7436 51.742 77.4558 50.8204 78.5332 49.4257C78.783 49.1035 79.0436 48.7659 79.3313 48.417C79.4667 48.2539 79.6488 48.1524 79.8423 48.1158C80.0845 48.0699 80.3443 48.1257 80.5513 48.2914C83.4886 50.6351 86.6684 51.6962 89.2777 51.2018C90.1577 51.0351 90.9897 50.685 91.736 50.1919C92.3689 49.7736 92.9853 48.7328 93.6211 48.4589C94.8321 47.9372 96.1496 49.3703 97.3338 49.5241C98.7834 49.7124 100.432 49.6528 101.463 48.478C102.272 47.5557 102.463 45.9091 103.872 45.6414C103.94 45.6285 104.009 45.6234 104.078 45.6265C104.339 45.6402 104.579 45.7676 104.736 45.9751C105.968 47.6159 109.34 47.8956 111.166 47.5204C111.351 47.4819 111.558 47.3986 111.78 47.2892C111.464 52.8308 111.044 59.2489 110.507 65.6774C109.81 65.4925 109.129 65.4808 108.563 65.9628C107.577 66.8041 107.912 68.6986 107.38 69.8114C106.675 71.2786 105.499 72.4557 103.878 72.8542C103.769 72.8809 103.659 72.9045 103.547 72.9258C101.94 73.2301 100.264 72.9963 98.731 72.4691C96.2288 71.605 95.4189 69.7037 93.2288 72.2883C92.4126 73.2508 91.5587 74.0724 90.2703 74.3165C88.9665 74.5635 87.6571 74.2494 86.491 73.658C85.6242 73.2179 84.0605 71.2955 83.0889 71.4073C82.9292 71.4256 82.769 71.4856 82.6086 71.575C78.5885 64.2097 74.8519 56.9175 72.2238 51.6796C73.2162 51.8862 74.2574 52.2122 74.9519 52.0815Z" fill="#074785"/>
<path fill-rule="evenodd" clip-rule="evenodd" d="M67.3235 45.8711C71.6791 58.5712 85.6188 65.2976 98.4581 60.8948C111.298 56.4906 118.174 42.6253 113.819 29.9252C109.462 17.2234 95.5231 10.4983 82.6835 14.9016C69.8443 19.3048 62.9675 33.1715 67.3235 45.8711Z" fill="#FD6085"/>
<path d="M102.208 68.7454C102.32 68.7241 102.431 68.7006 102.539 68.6734C104.16 68.2758 105.336 67.0987 106.041 65.6306C106.573 64.5183 106.238 62.6234 107.224 61.782C108.511 60.6855 110.393 62.1438 111.722 62.3845C113.42 62.6906 115.195 62.8284 116.9 62.5052C119.583 61.997 121.219 60.41 121.632 57.9147C121.968 55.3316 120.984 53.1526 119.177 51.3707C118.111 50.32 116.792 49.6095 115.543 48.8074C114.276 47.9939 113.416 47.3552 114.084 45.7725C114.531 44.7118 115.788 42.6624 114.671 41.6227C113.574 40.6024 111.136 43.0708 109.827 43.3397C108.001 43.715 104.628 43.4353 103.396 41.7953C103.24 41.5864 102.999 41.4586 102.739 41.4467C102.67 41.4435 102.6 41.4477 102.532 41.4606C101.124 41.7283 100.933 43.3745 100.124 44.2981C99.0927 45.4729 97.4441 45.5312 95.9946 45.3438C94.8104 45.1896 93.493 43.7574 92.2823 44.2781C91.6464 44.5515 91.0297 45.5933 90.3968 46.0108C89.6508 46.5037 88.8188 46.8538 87.9388 47.0206C85.3299 47.5149 82.1498 46.4543 79.2125 44.111C79.0055 43.9449 78.7453 43.8891 78.5035 43.935C78.3096 43.9717 78.1276 44.0736 77.9927 44.237C77.7043 44.5848 77.4437 44.9223 77.1945 45.2454C76.117 46.6396 75.4045 47.5621 73.6128 47.9016C72.2749 48.1533 69.6418 46.7017 68.572 47.7083C67.1193 49.0743 69.5389 52.0766 70.3586 53.2342C71.0419 54.1985 71.7491 55.1948 71.7231 55.8276C71.7223 55.8423 71.7222 55.8583 71.7225 55.8738C71.7385 57.1677 71.1194 58.3629 70.464 59.6288C69.6068 61.2828 68.6351 63.1585 69.0765 65.4879C69.4716 67.5732 70.4275 69.1759 71.8412 70.1216C73.1019 70.9646 74.7073 71.2564 76.3618 70.9438C77.5711 70.7155 78.4975 69.9839 79.3867 69.1796C79.9994 68.625 80.8921 67.3265 81.7503 67.2273C82.7225 67.1163 84.2856 69.0384 85.1523 69.4777C86.3186 70.0703 87.6274 70.3832 88.9312 70.1362C90.2195 69.8921 91.074 69.0708 91.8901 68.1079C94.0807 65.5233 94.8903 67.4255 97.3925 68.2895C98.9247 68.8155 100.602 69.0498 102.208 68.7454Z" fill="#FFA4AC"/>
<path fill-rule="evenodd" clip-rule="evenodd" d="M87.9765 55.9238C88.2406 57.4953 86.6157 59.0757 84.3536 59.4529C82.0881 59.8312 80.0422 58.8643 79.7786 57.2927C79.5151 55.722 81.1387 54.1418 83.4027 53.7629C85.6669 53.3849 87.7147 54.3524 87.9765 55.9238Z" fill="#FD6085"/>
<path fill-rule="evenodd" clip-rule="evenodd" d="M107.204 53.1668C107.467 54.7375 105.844 56.3176 103.58 56.6964C101.317 57.0738 99.2672 56.1076 99.0053 54.5357C98.7428 52.9631 100.365 51.384 102.629 51.0052C104.893 50.6285 106.942 51.5948 107.204 53.1668Z" fill="#FD6085"/>
<path d="M88.7778 44.0619C89.4054 47.8236 86.9403 51.4003 83.2083 52.2945C83.0357 52.3361 82.8615 52.3713 82.6848 52.4008C78.6628 53.0724 79.1979 49.7165 78.5406 45.7817C77.9414 42.184 75.8436 39.4644 79.3059 38.3916C79.6287 38.2914 79.9625 38.2113 80.3073 38.154C84.3276 37.4804 88.1207 40.1258 88.7778 44.0619Z" fill="white"/>
<path fill-rule="evenodd" clip-rule="evenodd" d="M74.2132 46.49C74.8697 50.4249 78.6624 53.0685 82.6844 52.3969C82.8612 52.3678 83.0349 52.3323 83.2078 52.2898C85.0205 45.4762 81.885 40.8697 79.3053 38.3891C75.8436 39.4627 73.6111 42.891 74.2132 46.49Z" fill="#074785"/>
<path d="M109.069 40.6327C109.698 44.3937 107.233 47.9698 103.501 48.8658C103.329 48.9082 103.155 48.9439 102.976 48.9733C98.9548 49.6457 99.153 46.2809 98.4962 42.3442C97.8947 38.7461 96.1354 36.0346 99.5981 34.9617C99.9211 34.8619 100.255 34.7831 100.598 34.7262C104.619 34.0524 108.411 36.6984 109.069 40.6327Z" fill="white"/>
<path fill-rule="evenodd" clip-rule="evenodd" d="M94.5102 43.0685C95.1673 47.0024 98.9595 49.648 102.981 48.9755C103.159 48.9466 103.333 48.908 103.505 48.8673C105.317 42.0539 102.182 37.447 99.6026 34.9671C96.1406 36.0394 93.9092 39.4689 94.5102 43.0685Z" fill="#074785"/>
<path d="M74.7357 38.5197C74.0941 38.6275 73.4768 38.2364 73.2007 37.5491C72.8833 36.761 73.1053 35.9058 73.7396 35.4721C75.2699 34.4288 77.0125 33.7319 78.9154 33.3988C79.7442 33.2609 80.4767 33.8417 80.631 34.7494C80.7883 35.664 80.2854 36.4634 79.4647 36.6065C77.9245 36.8744 76.5578 37.4278 75.2884 38.2944C75.1146 38.4111 74.9292 38.4879 74.7357 38.5197Z" fill="#074785"/>
<path d="M98.3493 33.2761C97.7236 33.1051 97.3252 32.4933 97.3621 31.7521C97.4046 30.902 97.9617 30.2196 98.7195 30.0911C100.546 29.7823 102.419 29.8775 104.288 30.3714C105.098 30.5901 105.521 31.426 105.284 32.3168C105.042 33.2126 104.252 33.7286 103.446 33.5152C101.934 33.1144 100.464 33.044 98.9457 33.3023C98.7396 33.3356 98.5398 33.3269 98.3493 33.2761Z" fill="#074785"/>
<path d="M95.7776 49.3212C95.594 48.1442 93.7655 48.4157 93.9511 49.5941C94.1142 50.6495 94.875 52.8182 93.5621 53.3844C91.9915 54.058 91.5769 51.5099 91.471 50.5225C91.346 49.3362 89.5182 49.6116 89.6433 50.7939C89.8767 53.0013 90.9526 55.6538 93.6244 55.2672C96.6896 54.8248 96.1185 51.4998 95.7776 49.3212Z" fill="#074785"/>
<path d="M95.5895 40.9288C95.5574 42.3112 95.7846 43.6365 96.5416 44.8166C96.8816 45.3472 97.6642 44.7622 97.3281 44.2383C96.721 43.2897 96.5285 42.1733 96.5559 41.0636C96.5714 40.4434 95.6053 40.2988 95.5895 40.9288Z" fill="white"/>
<path d="M97.4091 46.2388C97.5083 46.3578 97.6061 46.4785 97.7051 46.5959C97.8782 46.8003 98.163 46.867 98.3886 46.7001C98.5902 46.5497 98.6633 46.2192 98.4912 46.0177C98.3922 45.8999 98.2932 45.7799 98.1945 45.6616C98.0214 45.4572 97.7371 45.3913 97.5133 45.5579C97.3083 45.7071 97.2346 46.0386 97.4091 46.2388Z" fill="white"/>
<path d="M96.0668 39.1633C96.0081 39.4222 96.2388 39.6783 96.4832 39.7113C96.7643 39.7512 96.9735 39.5563 97.034 39.2975C97.0307 39.3034 97.028 39.3057 97.0225 39.3116C97.1756 39.0946 97.1608 38.799 96.9414 38.6286C96.7427 38.4716 96.4095 38.4917 96.2577 38.7085C96.1571 38.8539 96.1076 38.9928 96.0668 39.1633Z" fill="white"/>
<path d="M97.0331 39.3018C97.0377 39.2957 97.0399 39.2886 97.0434 39.2808C97.0396 39.2869 97.0352 39.2917 97.0319 39.2976C96.9994 39.435 97.0215 39.3342 97.0331 39.3018Z" fill="white"/>
<path d="M97.0449 39.2808C97.0637 39.2465 97.0881 39.2197 97.0449 39.2808V39.2808Z" fill="white"/>
<path d="M75.035 44.3587C75.0023 45.7403 75.2303 47.0672 75.9875 48.2464C76.3277 48.7778 77.1104 48.1937 76.773 47.6697C76.1645 46.7208 75.975 45.6039 76.0022 44.4933C76.0167 43.8725 75.0495 43.729 75.035 44.3587Z" fill="white"/>
<path d="M76.8534 49.6629C76.9541 49.7804 77.0502 49.9014 77.1494 50.0201C77.3221 50.2224 77.6079 50.2893 77.8331 50.1229C78.034 49.9731 78.1086 49.6441 77.9378 49.4419C77.8349 49.3227 77.7385 49.2021 77.6388 49.0858C77.4658 48.8796 77.1818 48.8128 76.9564 48.9805C76.7542 49.1301 76.681 49.4597 76.8534 49.6629Z" fill="white"/>
<path d="M75.5205 42.584C75.4604 42.845 75.692 43.1008 75.9364 43.1365C76.2165 43.173 76.4259 42.9795 76.4848 42.7196C76.483 42.7262 76.4796 42.7295 76.4746 42.7335C76.6283 42.5173 76.6127 42.2218 76.3954 42.0511C76.1944 41.8936 75.8628 41.9125 75.7108 42.1329C75.6083 42.2751 75.5597 42.4165 75.5205 42.584Z" fill="white"/>
<path d="M76.4868 42.7236C76.4896 42.7169 76.4936 42.7104 76.4975 42.7025C76.4926 42.7097 76.4886 42.7144 76.4833 42.719C76.4525 42.856 76.4755 42.755 76.4868 42.7236Z" fill="white"/>
<path d="M76.4979 42.7022C76.5142 42.6688 76.5386 42.6424 76.4979 42.7022V42.7022Z" fill="white"/>
<path fill-rule="evenodd" clip-rule="evenodd" d="M103.146 27.7891C103.167 27.785 103.188 27.7793 103.209 27.7718C107.818 26.1606 112.05 24.4068 113.191 20.6913C113.576 19.4367 113.177 18.637 112.774 18.1875C112.036 17.3629 110.651 17.0271 109.16 17.3097C107.949 17.5391 106.888 18.1162 106.102 18.9399C106.002 17.5914 105.384 16.4028 104.683 15.6028C103.7 14.4828 102.427 13.912 101.361 14.114C100.794 14.2215 100.016 14.5941 99.531 15.7591C98.0348 19.3499 100.171 23.4021 102.69 27.5855C102.785 27.7439 102.968 27.8227 103.146 27.7891Z" fill="#FFA4AC"/>
<path fill-rule="evenodd" clip-rule="evenodd" d="M90.8978 31.3993C91.036 31.3731 91.1574 31.2814 91.2168 31.1455C93.4584 26.0545 95.2884 21.1669 93.0874 17.3411C92.3924 16.1324 91.352 15.5908 90.1587 15.8169C88.9174 16.0521 87.6756 17.125 86.9183 18.6182C86.3647 19.7096 86.1331 20.8811 86.2259 22.0119C84.6983 20.7197 82.613 20.2963 80.9501 20.6114C79.7264 20.8433 78.8108 21.4358 78.3722 22.2802C78.1022 22.7996 77.8924 23.6676 78.4281 24.8497C80.2491 28.8722 85.2844 30.2415 90.7258 31.3973C90.7836 31.4099 90.8421 31.4099 90.8978 31.3993Z" fill="#F9D555"/>
<path fill-rule="evenodd" clip-rule="evenodd" d="M61.4038 29.0394C61.3635 29.047 61.3209 29.0489 61.2784 29.045C54.3921 28.3549 47.9799 27.3454 45.1986 22.6425C44.3487 21.206 44.5393 20.0871 44.8493 19.4018C45.3871 18.2127 46.6961 17.3408 48.4412 17.0102C50.2043 16.6761 52.62 16.9057 54.5664 18.3446C54.2013 16.7568 54.3645 15.0276 55.0703 13.4245C55.9048 11.5287 57.348 10.176 58.8358 9.89409C60.1024 9.65411 61.297 10.2024 62.1999 11.4386C65.4241 15.851 63.8216 22.1409 61.7389 28.7418C61.69 28.8983 61.5587 29.0101 61.4038 29.0394Z" fill="#FFA4AC"/>
<path d="M33.308 94.1654L38.0312 103.159C38.847 104.712 41.2566 103.447 40.4403 101.893L35.7169 92.9011C34.9005 91.347 32.4924 92.6129 33.308 94.1654Z" fill="white"/>
<path d="M31.4489 90.6351C32.2647 92.1885 34.6737 90.9224 33.8576 89.3695C33.0414 87.8162 30.6326 89.081 31.4489 90.6351Z" fill="white"/>
<path d="M40.0111 106.931C40.8277 108.484 43.236 107.219 42.4203 105.666C41.6037 104.113 39.1958 105.378 40.0111 106.931Z" fill="white"/>
<path d="M91.9769 81.9689L96.9637 90.8182C97.8249 92.347 100.196 91.0109 99.3342 89.4827L94.3471 80.6334C93.4853 79.1043 91.1156 80.4396 91.9769 81.9689Z" fill="white"/>
<path d="M90.0162 78.4921C90.8772 80.0201 93.2477 78.6841 92.3858 77.1563C91.5251 75.6278 89.1541 76.9634 90.0162 78.4921Z" fill="white"/>
<path d="M99.055 94.5311C99.9169 96.0589 102.287 94.7243 101.426 93.1956C100.564 91.6668 98.1938 93.0023 99.055 94.5311Z" fill="white"/>
<path d="M41.57 70.8495C41.335 70.6949 40.427 68.0789 40.0693 68.1684C39.7115 68.2597 39.9017 70.9882 39.766 71.1966C39.4938 71.6135 37.0594 72.3333 37.1442 72.6711C37.2292 73.0093 39.6974 72.7087 40.1042 72.9766C40.3317 73.1268 41.2472 75.7494 41.6056 75.6589C41.9624 75.5691 41.7674 72.8482 41.9094 72.6337C42.1719 72.231 44.6235 71.4942 44.5383 71.1543C44.4528 70.8158 41.9621 71.1095 41.57 70.8495Z" fill="white"/>
<path d="M77.3424 60.6854C77.075 60.51 76.0417 57.5324 75.6352 57.6355C75.228 57.738 75.4446 60.8442 75.289 61.0807C74.9792 61.5544 72.2095 62.3745 72.3064 62.7597C72.4026 63.1432 75.2111 62.8017 75.6751 63.1066C75.934 63.2775 76.9756 66.2615 77.3832 66.159C77.7896 66.0576 77.5678 62.9608 77.729 62.7165C78.0274 62.2578 80.8175 61.4188 80.7203 61.0324C80.6234 60.6473 77.7877 60.9811 77.3424 60.6854Z" fill="#074785"/>
<path d="M99.4673 63.0068C99.5933 63.672 99.1558 64.314 98.4902 64.4401C97.8246 64.5662 97.1825 64.1283 97.0566 63.4636C96.9304 62.7976 97.3674 62.1556 98.0335 62.0294C98.699 61.9033 99.3411 62.3408 99.4673 63.0068Z" fill="white"/>
<path d="M74.0766 30.2177C74.2027 30.8829 73.7656 31.5248 73.0996 31.651C72.434 31.7771 71.7919 31.3392 71.666 30.6745C71.5398 30.0085 71.9772 29.3665 72.6428 29.2404C73.3088 29.1137 73.9504 29.5517 74.0766 30.2177Z" fill="white"/>
<path d="M60.2793 18.6709C60.4054 19.3361 59.9683 19.978 59.3023 20.1042C58.6367 20.2304 57.995 19.7924 57.8691 19.1276C57.7429 18.4616 58.1804 17.8196 58.8455 17.6936C59.5115 17.5674 60.1531 18.0049 60.2793 18.6709Z" fill="white"/>
<path d="M31.9903 36.4835C32.1163 37.1486 31.6788 37.7906 31.0132 37.9167C30.3477 38.0429 29.706 37.6049 29.58 36.9401C29.4538 36.2741 29.8909 35.6322 30.5565 35.5061C31.222 35.3795 31.8641 35.8174 31.9903 36.4835Z" fill="white"/>
<path d="M35.0766 50.124C35.2027 50.7896 34.7652 51.4312 34.0992 51.5574C33.4336 51.6835 32.792 51.2459 32.666 50.5808C32.5398 49.9147 32.9772 49.2727 33.6424 49.1467C34.3084 49.0205 34.9504 49.458 35.0766 50.124Z" fill="white"/>
<path d="M19.4044 73.4839C19.5304 74.149 19.0934 74.791 18.4274 74.9172C17.7618 75.0433 17.1201 74.6053 16.9942 73.9406C16.8679 73.2741 17.3054 72.6321 17.9705 72.5061C18.6365 72.3799 19.2782 72.8179 19.4044 73.4839Z" fill="white"/>
<path d="M13.9512 51.3194C14.0772 51.9845 13.6398 52.6266 12.9742 52.7527C12.3086 52.8788 11.6669 52.4408 11.541 51.7761C11.4148 51.1101 11.8518 50.4681 12.5174 50.342C13.183 50.2159 13.825 50.6534 13.9512 51.3194Z" fill="white"/>
<path d="M58.8501 68.5068C58.9761 69.172 58.5386 69.814 57.873 69.9401C57.2075 70.0662 56.5654 69.6283 56.4394 68.9636C56.3132 68.2976 56.7507 67.6555 57.4163 67.5294C58.0819 67.4033 58.724 67.8412 58.8501 68.5068Z" fill="white"/>
<path d="M48.5141 35.0615C48.6402 35.7266 48.2027 36.3687 47.5371 36.4948C46.8715 36.6209 46.2294 36.183 46.1035 35.5183C45.9773 34.8522 46.4147 34.2102 47.0803 34.0841C47.7458 33.9576 48.3879 34.3955 48.5141 35.0615Z" fill="white"/>
<path d="M42.8892 87.0229C43.0152 87.688 42.5778 88.33 41.9122 88.4561C41.2466 88.5823 40.6045 88.1444 40.4785 87.4796C40.3523 86.8132 40.7897 86.1712 41.4553 86.0451C42.1208 85.9185 42.7629 86.3564 42.8892 87.0229Z" fill="white"/>
<path d="M44.7094 100.46C44.8356 101.126 44.3981 101.768 43.7321 101.894C43.0665 102.02 42.4249 101.582 42.2988 100.917C42.1726 100.251 42.6101 99.6087 43.2752 99.4826C43.9412 99.3564 44.5833 99.7943 44.7094 100.46Z" fill="white"/>
<path d="M14.561 40.3349C14.687 41.0001 14.2496 41.6421 13.5836 41.7683C12.918 41.8944 12.2763 41.4564 12.1503 40.7917C12.0241 40.1253 12.4616 39.4837 13.1268 39.3576C13.7928 39.2314 14.4348 39.6689 14.561 40.3349Z" fill="white"/>
<path d="M91.8969 35.8427C92.0231 36.5083 91.5856 37.1503 90.9196 37.2765C90.254 37.4027 89.6123 36.9647 89.4863 36.2995C89.3601 35.6335 89.7971 34.9916 90.4627 34.8654C91.1287 34.7392 91.7708 35.1771 91.8969 35.8427Z" fill="white"/>
<path d="M104.725 21.8041C104.851 22.4693 104.414 23.1113 103.748 23.2375C103.082 23.3636 102.44 22.9256 102.314 22.2609C102.188 21.5944 102.626 20.9524 103.291 20.8264C103.957 20.6997 104.599 21.1377 104.725 21.8041Z" fill="white"/>
<path d="M86.186 26.0615C86.3121 26.7271 85.8746 27.3687 85.209 27.4948C84.5434 27.6209 83.9014 27.1834 83.7753 26.5183C83.6491 25.8522 84.0862 25.2103 84.7522 25.0841C85.4178 24.958 86.0599 25.3959 86.186 26.0615Z" fill="white"/>
<path d="M117.553 56.1631C117.679 56.8283 117.242 57.4702 116.576 57.5964C115.91 57.7225 115.268 57.2846 115.143 56.6198C115.016 55.9538 115.454 55.3118 116.119 55.1858C116.785 55.0596 117.427 55.4971 117.553 56.1631Z" fill="white"/>
<path d="M113.311 33.7413C113.437 34.4064 113 35.0483 112.334 35.1745C111.668 35.3007 111.026 34.8627 110.9 34.198C110.774 33.5319 111.212 32.8899 111.877 32.7639C112.543 32.6377 113.184 33.0757 113.311 33.7413Z" fill="white"/>
<path d="M88.4673 64.1396C88.5933 64.8048 88.1558 65.4468 87.4898 65.573C86.8242 65.6991 86.1825 65.2611 86.0566 64.5964C85.9304 63.9304 86.3679 63.2884 87.033 63.1623C87.699 63.0357 88.3411 63.4736 88.4673 64.1396Z" fill="white"/>
<path d="M101.131 78.374C101.257 79.0391 100.82 79.6816 100.154 79.8077C99.4888 79.9338 98.8467 79.4959 98.7207 78.8308C98.5944 78.1643 99.0319 77.5227 99.6975 77.3966C100.363 77.2705 101.005 77.708 101.131 78.374Z" fill="white"/>
<path d="M104.905 89.0537C105.031 89.7193 104.593 90.3613 103.927 90.4875C103.262 90.6136 102.62 90.176 102.494 89.5104C102.368 88.8444 102.805 88.2024 103.471 88.0764C104.137 87.9501 104.779 88.3881 104.905 89.0537Z" fill="white"/>
<path d="M81.7876 88.3506C81.9136 89.0157 81.4761 89.6577 80.8105 89.7839C80.145 89.91 79.5029 89.4721 79.3769 88.8073C79.2507 88.1413 79.6882 87.4993 80.3538 87.3732C81.0193 87.2466 81.6614 87.6845 81.7876 88.3506Z" fill="white"/>
<path d="M71.6621 94.1084C71.7882 94.7736 71.3511 95.4155 70.6851 95.5417C70.0195 95.6678 69.3779 95.2299 69.2519 94.5651C69.1257 93.8991 69.5632 93.2571 70.2283 93.1311C70.8944 93.0049 71.5359 93.4424 71.6621 94.1084Z" fill="white"/>
</svg>
