<svg width="200" height="116" viewBox="0 0 200 116" fill="none" xmlns="http://www.w3.org/2000/svg">
<path fill-rule="evenodd" clip-rule="evenodd" d="M156.006 65.4625C154.808 62.6556 154.248 59.5746 153.411 56.6139C153.049 55.6359 152.685 54.6559 152.322 53.6775C148.017 51.7689 143.795 49.6374 139.387 48.0067C114.886 38.9406 87.4935 34.091 61.3249 35.2253C42.6862 36.0343 25.4962 42.1985 8.13813 48.6762C3.84441 50.2787 -5.31272 56.8063 4.09927 58.1502C4.788 58.2487 9.91968 58.9894 10.216 58.657C8.66589 60.3937 7.3618 61.821 6.09754 63.2802C4.28707 65.3698 1.1197 67.6225 2.80315 70.3041C3.75302 71.8173 7.55672 71.9083 10.1398 71.9846C12.7089 72.0609 13.6928 71.9716 15.5234 71.9406C14.3148 72.9546 10.0744 79.3149 9.77087 80.5536C7.95872 87.9552 18.2187 84.2374 21.3819 83.3454C20.5222 85.0037 19.7618 85.9376 19.5664 86.973C18.1559 94.4584 26.2298 90.8409 30.2154 89.3691C37.2422 86.7739 44.3391 84.338 51.4866 82.0899C74.6056 74.8196 99.0257 68.8147 123.367 72.8029C130.794 74.0189 138.072 76.0964 145.266 78.272L146.746 78.2372C149.255 75.9434 151.604 73.4291 154.326 71.4216C156.648 69.7093 157.154 68.1566 156.006 65.4625Z" fill="#F9D555"/>
<path fill-rule="evenodd" clip-rule="evenodd" d="M154.855 113.483C154.317 115.817 152.63 116.217 151.103 114.371L129.93 88.7571C128.403 86.9106 125.202 85.5725 122.817 85.7826L89.7135 88.703C87.3271 88.9139 86.4258 87.4321 87.7102 85.4099L105.528 57.3584C106.812 55.3366 107.095 51.8788 106.157 49.6743L93.1504 19.0938C92.2127 16.8901 93.3441 15.5743 95.6635 16.1708L127.849 24.4472C130.169 25.0429 133.545 24.2443 135.351 22.672L160.416 0.851202C162.223 -0.721166 163.823 -0.0521442 163.972 2.33848L166.046 35.5053C166.196 37.896 167.998 40.86 170.052 42.0924L198.55 59.1869C200.605 60.4188 200.463 62.1484 198.235 63.0295L167.332 75.2505C165.105 76.1316 162.843 78.7625 162.306 81.0961L154.855 113.483Z" fill="#A089E4"/>
<path fill-rule="evenodd" clip-rule="evenodd" d="M139.534 63.2885C139.997 61.421 137.184 60.2942 136.716 62.1848C136.343 63.6859 135.614 65.1908 133.865 64.4832C132.198 63.8095 132.661 62.2112 133.163 60.8765C133.853 59.0501 131.033 57.9451 130.345 59.7728C129.162 62.9058 129.561 65.7227 132.761 67.303C135.945 68.8746 138.795 66.2777 139.534 63.2885Z" fill="#074785"/>
<path fill-rule="evenodd" clip-rule="evenodd" d="M108.962 58.1252C108.338 60.1804 110.868 62.8289 114.602 64.0395C118.346 65.2497 121.878 64.5597 122.496 62.5019C123.118 60.4508 120.587 57.7995 116.853 56.5901C113.113 55.3787 109.582 56.0665 108.962 58.1252Z" fill="#7BEFE5"/>
<path fill-rule="evenodd" clip-rule="evenodd" d="M145.135 70.7275C144.358 72.725 146.666 75.5972 150.286 77.144C153.909 78.6904 157.476 78.3253 158.256 76.3258C159.034 74.3292 156.729 71.4565 153.106 69.9118C149.485 68.3621 145.912 68.7318 145.135 70.7275Z" fill="#7BEFE5"/>
<path fill-rule="evenodd" clip-rule="evenodd" d="M144.119 43.6582C144.624 41.5518 145.149 39.8386 145.481 39.9505C145.481 39.9505 173.903 49.6698 173.993 49.7008C174.277 49.7972 171.124 57.4214 170.822 58.0719C169.422 61.0926 167.612 64.0558 164.816 65.9728C162.666 67.4466 159.93 68.0586 157.349 68.0787C152.095 68.1194 145.412 65.562 143.442 59.9004C142.465 57.0873 142.404 53.8373 142.685 50.8825C142.736 50.3568 143.409 46.6202 144.119 43.6582Z" fill="#074785"/>
<path fill-rule="evenodd" clip-rule="evenodd" d="M112.002 32.8864L113.508 29.0156C113.508 29.0156 141.529 38.597 141.554 38.6053C141.979 38.7621 137.578 47.1408 137.092 47.8526C134.295 51.9514 130.735 55.2676 125.666 56.0062C122.791 56.4245 119.911 55.6998 117.271 54.5688C106.72 50.0508 112.002 32.8864 112.002 32.8864Z" fill="#074785"/>
<path fill-rule="evenodd" clip-rule="evenodd" d="M141.152 24.3802C139.96 25.6089 138.052 23.7603 139.245 22.5299C140.437 21.3005 142.344 23.1482 141.152 24.3802Z" fill="white"/>
<path fill-rule="evenodd" clip-rule="evenodd" d="M156.356 10.9775C152.548 14.3872 148.666 17.7143 144.858 21.1244C143.611 22.2386 141.88 20.3065 143.126 19.1919C146.935 15.7827 150.817 12.4547 154.626 9.04634C155.872 7.93089 157.603 9.8625 156.356 10.9775Z" fill="white"/>
<path fill-rule="evenodd" clip-rule="evenodd" d="M160.247 7.60784C159.083 8.80755 157.22 7.00295 158.384 5.80198C159.548 4.60059 161.41 6.40603 160.247 7.60784Z" fill="white"/>
<path fill-rule="evenodd" clip-rule="evenodd" d="M124.639 38.1531C122.278 41.2186 119.854 44.233 117.493 47.2994C116.72 48.3016 115.164 47.104 115.936 46.1017C118.297 43.0358 120.723 40.0219 123.083 36.9568C123.856 35.9537 125.412 37.15 124.639 38.1531Z" fill="white"/>
<path fill-rule="evenodd" clip-rule="evenodd" d="M128.06 41.0364C125.701 44.1023 123.275 47.1159 120.916 50.1818C120.142 51.1841 118.586 49.9869 119.358 48.9846C121.719 45.9191 124.144 42.9043 126.505 39.8396C127.277 38.8361 128.833 40.0337 128.06 41.0364Z" fill="white"/>
<path fill-rule="evenodd" clip-rule="evenodd" d="M155.685 47.7632C153.325 50.8279 150.9 53.8423 148.541 56.9086C147.767 57.9105 146.211 56.7133 146.983 55.7114C149.344 52.6455 151.77 49.6311 154.13 46.5664C154.903 45.5629 156.459 46.7589 155.685 47.7632Z" fill="white"/>
<path fill-rule="evenodd" clip-rule="evenodd" d="M159.092 50.6383C156.732 53.7038 154.306 56.717 151.946 59.7837C151.173 60.7856 149.616 59.588 150.389 58.5857C152.75 55.5202 155.175 52.5062 157.535 49.4416C158.308 48.4376 159.865 49.6344 159.092 50.6383Z" fill="white"/>
<path fill-rule="evenodd" clip-rule="evenodd" d="M38.1569 49.4318C46.886 45.5853 55.9434 44.8228 65.3763 44.801C69.3004 44.7926 68.9612 38.7165 65.0456 38.7266C55.1553 38.7492 45.4474 39.6077 36.297 43.6399C34.7812 44.3076 33.7848 45.7643 34.331 47.4658C34.7988 48.9203 36.6378 50.1016 38.1569 49.4318Z" fill="white"/>
<path fill-rule="evenodd" clip-rule="evenodd" d="M30.4656 51.5659C32.258 48.0766 26.8467 45.297 25.0543 48.7858C23.2619 52.2747 28.6727 55.0548 30.4656 51.5659Z" fill="white"/>
<path fill-rule="evenodd" clip-rule="evenodd" d="M77.9339 44.9568C79.7264 41.4675 74.3151 38.687 72.5231 42.1771C70.7306 45.666 76.1411 48.4456 77.9339 44.9568Z" fill="white"/>
<path d="M64.4363 58.5156C64.4363 60.4309 62.8836 61.9836 60.9683 61.9836C59.0522 61.9836 57.5 60.4313 57.5 58.5156C57.5 56.6 59.0522 55.0469 60.9683 55.0469C62.884 55.0469 64.4363 56.6 64.4363 58.5156Z" fill="white"/>
<path d="M184.374 60.1628C184.374 62.0789 182.822 63.632 180.905 63.632C178.99 63.632 177.438 62.0789 177.438 60.1628C177.438 58.248 178.99 56.6953 180.905 56.6953C182.822 56.6949 184.374 58.2476 184.374 60.1628Z" fill="white"/>
<path d="M108.204 78.8671C108.204 80.0542 107.243 81.0162 106.055 81.0162C104.868 81.0162 103.906 80.0542 103.906 78.8671C103.906 77.6808 104.868 76.7188 106.055 76.7188C107.243 76.7188 108.204 77.6808 108.204 78.8671Z" fill="white"/>
<path d="M151.884 24.3679C151.884 25.5546 150.923 26.5162 149.735 26.5162C148.548 26.5162 147.586 25.5546 147.586 24.3679C147.586 23.1812 148.548 22.2188 149.735 22.2188C150.923 22.2187 151.884 23.1812 151.884 24.3679Z" fill="white"/>
<path d="M133.063 73.7112C133.063 74.8984 132.102 75.86 130.914 75.86C129.727 75.86 128.766 74.8984 128.766 73.7112C128.766 72.5249 129.727 71.5625 130.914 71.5625C132.102 71.5625 133.063 72.5249 133.063 73.7112Z" fill="white"/>
<path d="M106.064 29.2659C106.064 30.4527 105.102 31.4147 103.914 31.4147C102.728 31.4147 101.766 30.4527 101.766 29.2659C101.766 28.0796 102.728 27.1172 103.914 27.1172C105.102 27.1172 106.064 28.0796 106.064 29.2659Z" fill="white"/>
<path d="M160.423 38.726C160.423 39.9132 159.462 40.8752 158.274 40.8752C157.087 40.8752 156.125 39.9132 156.125 38.726C156.125 37.5402 157.087 36.5781 158.274 36.5781C159.462 36.5781 160.423 37.5402 160.423 38.726Z" fill="white"/>
<path d="M160.563 17.407C160.563 18.5937 159.602 19.5557 158.414 19.5557C157.228 19.5557 156.266 18.5937 156.266 17.407C156.266 16.2203 157.228 15.2578 158.414 15.2578C159.602 15.2578 160.563 16.2198 160.563 17.407Z" fill="white"/>
<path d="M82.4932 65.071C82.4932 66.2578 81.5316 67.2198 80.3441 67.2198C79.1569 67.2198 78.1953 66.2578 78.1953 65.071C78.1953 63.8847 79.1573 62.9219 80.3441 62.9219C81.5312 62.9219 82.4932 63.8847 82.4932 65.071Z" fill="white"/>
<path d="M54.6412 73.7112C54.6412 74.8984 53.6796 75.86 52.4925 75.86C51.3058 75.86 50.3438 74.8984 50.3438 73.7112C50.3438 72.5249 51.3054 71.5625 52.4925 71.5625C53.6796 71.5625 54.6412 72.5249 54.6412 73.7112Z" fill="white"/>
<path d="M18.8448 62.6878C18.8448 63.8749 17.8832 64.837 16.6956 64.837C15.5089 64.837 14.5469 63.8749 14.5469 62.6878C14.5469 61.5015 15.5089 60.5391 16.6956 60.5391C17.8832 60.5391 18.8448 61.5015 18.8448 62.6878Z" fill="white"/>
<path d="M95.7741 44.6171C95.7741 45.8042 94.8125 46.7658 93.6249 46.7658C92.4382 46.7658 91.4766 45.8042 91.4766 44.6171C91.4766 43.4308 92.4382 42.4688 93.6249 42.4688C94.8125 42.4688 95.7741 43.4308 95.7741 44.6171Z" fill="white"/>
<path d="M38.7145 68.7939C38.4001 68.4896 37.7705 64.2315 37.1987 64.2658C36.6265 64.3006 36.1269 68.5231 35.859 68.8018C35.3233 69.3585 31.3972 69.7547 31.4299 70.2954C31.4613 70.8349 35.3166 71.0902 35.8615 71.6179C36.1659 71.9122 36.8043 76.1816 37.3773 76.1485C37.9487 76.1154 38.4383 71.9034 38.7166 71.6158C39.2339 71.0768 43.1902 70.6605 43.1587 70.1177C43.1269 69.5761 39.2372 69.3032 38.7145 68.7939Z" fill="#074784"/>
<path d="M151.605 88.4263C151.291 88.1224 150.662 83.8651 150.089 83.8986C149.518 83.9338 149.018 88.1559 148.751 88.4347C148.215 88.9922 144.288 89.3866 144.321 89.9282C144.353 90.4681 148.208 90.7238 148.753 91.2512C149.056 91.545 149.696 95.8148 150.268 95.7813C150.839 95.7474 151.329 91.5371 151.608 91.2495C152.125 90.7108 156.082 90.2946 156.05 89.7513C156.018 89.2085 152.128 88.936 151.605 88.4263Z" fill="white"/>
<path d="M91.5743 54.5743C91.2599 54.2708 90.6307 50.0127 90.0589 50.0471C89.4867 50.0823 88.9871 54.3043 88.72 54.5831C88.1839 55.141 84.2578 55.5347 84.2893 56.0767C84.3211 56.6166 88.1772 56.871 88.7217 57.3992C89.0256 57.6926 89.6649 61.9633 90.2379 61.9293C90.8084 61.8954 91.2985 57.6851 91.5768 57.3975C92.0941 56.8584 96.0516 56.4426 96.0193 55.8993C95.9866 55.3569 92.0974 55.0844 91.5743 54.5743Z" fill="white"/>
</svg>
