<svg width="361" height="639" viewBox="0 0 361 639" fill="none" xmlns="http://www.w3.org/2000/svg">
<path d="M261.032 52C261.234 52 261.373 52.1328 261.458 52.2561C261.544 52.3793 261.606 52.5218 261.663 52.6858C261.778 53.0137 261.869 53.4275 261.957 53.85C262.044 54.2726 262.126 54.7027 262.208 55.0436C262.25 55.2141 262.292 55.3622 262.331 55.4701C262.37 55.5779 262.419 55.6462 262.407 55.635C262.396 55.6238 262.465 55.672 262.573 55.7109C262.682 55.7498 262.831 55.7916 263.003 55.8325C263.346 55.9142 263.78 55.9952 264.205 56.082C264.631 56.1689 265.048 56.2601 265.378 56.3739C265.544 56.4308 265.687 56.4916 265.811 56.5768C265.935 56.6621 266.069 56.7996 266.069 57C266.069 57.2004 265.935 57.3379 265.811 57.4232C265.687 57.5084 265.544 57.5692 265.378 57.6261C265.048 57.7399 264.631 57.8311 264.205 57.918C263.78 58.0048 263.346 58.0858 263.003 58.1675C262.831 58.2084 262.682 58.2502 262.573 58.2891C262.465 58.328 262.396 58.3762 262.407 58.365C262.419 58.3538 262.37 58.4221 262.331 58.5299C262.292 58.6378 262.25 58.7859 262.208 58.9564C262.126 59.2973 262.044 59.7274 261.957 60.15C261.869 60.5725 261.778 60.9863 261.663 61.3142C261.606 61.4782 261.544 61.6207 261.458 61.7439C261.373 61.8672 261.234 62 261.032 62C260.83 62 260.692 61.8672 260.606 61.7439C260.52 61.6207 260.459 61.4782 260.401 61.3142C260.287 60.9863 260.195 60.5725 260.107 60.15C260.02 59.7274 259.938 59.2973 259.856 58.9564C259.815 58.7859 259.773 58.6378 259.734 58.5299C259.694 58.4221 259.646 58.3538 259.657 58.365C259.668 58.3762 259.6 58.328 259.491 58.2891C259.382 58.2502 259.233 58.2084 259.061 58.1675C258.718 58.0858 258.285 58.0048 257.859 57.918C257.433 57.8311 257.016 57.7399 256.686 57.6261C256.521 57.5692 256.377 57.5084 256.253 57.4232C256.129 57.3379 255.995 57.2004 255.995 57C255.995 56.7996 256.129 56.6621 256.253 56.5768C256.377 56.4916 256.521 56.4308 256.686 56.3739C257.016 56.2601 257.433 56.1689 257.859 56.082C258.285 55.9952 258.718 55.9142 259.061 55.8325C259.233 55.7916 259.382 55.7498 259.491 55.7109C259.6 55.672 259.668 55.6238 259.657 55.635C259.646 55.6462 259.694 55.5779 259.734 55.4701C259.773 55.3622 259.815 55.2141 259.856 55.0436C259.938 54.7027 260.02 54.2726 260.107 53.85C260.195 53.4275 260.287 53.0137 260.401 52.6858C260.459 52.5218 260.52 52.3793 260.606 52.2561C260.692 52.1328 260.83 52 261.032 52Z" fill="white"/>
<path d="M6.44477 460C6.70304 460 6.88036 460.17 6.99023 460.328C7.10009 460.485 7.17841 460.668 7.25176 460.877C7.39847 461.297 7.51601 461.826 7.62799 462.367C7.73996 462.908 7.84433 463.458 7.94967 463.894C8.00233 464.112 8.05616 464.302 8.10631 464.44C8.15646 464.578 8.21861 464.665 8.20421 464.651C8.18982 464.637 8.27777 464.698 8.4168 464.748C8.55583 464.798 8.74676 464.851 8.96645 464.904C9.40583 465.008 9.96022 465.112 10.5049 465.223C11.0496 465.334 11.5829 465.451 12.0056 465.596C12.217 465.669 12.4006 465.747 12.5595 465.856C12.7183 465.965 12.8895 466.141 12.8895 466.397C12.8895 466.654 12.7183 466.83 12.5595 466.939C12.4006 467.048 12.217 467.126 12.0056 467.198C11.5829 467.344 11.0496 467.461 10.5049 467.572C9.96022 467.683 9.40583 467.787 8.96645 467.891C8.74676 467.943 8.55583 467.997 8.4168 468.047C8.27777 468.096 8.18982 468.158 8.20421 468.144C8.21861 468.13 8.15646 468.217 8.10631 468.355C8.05616 468.493 8.00233 468.682 7.94967 468.901C7.84433 469.337 7.73996 469.887 7.62799 470.428C7.51601 470.968 7.39847 471.498 7.25176 471.917C7.17841 472.127 7.10009 472.309 6.99023 472.467C6.88036 472.625 6.70304 472.795 6.44477 472.795C6.18651 472.795 6.00918 472.625 5.89932 472.467C5.78946 472.309 5.71113 472.127 5.63778 471.917C5.49107 471.498 5.37353 470.968 5.26156 470.428C5.14958 469.887 5.04521 469.337 4.93988 468.901C4.88721 468.682 4.83338 468.493 4.78323 468.355C4.73309 468.217 4.67093 468.13 4.68533 468.144C4.69973 468.158 4.61177 468.096 4.47274 468.047C4.33371 467.997 4.14278 467.943 3.92309 467.891C3.48372 467.787 2.92932 467.683 2.38463 467.572C1.83995 467.461 1.30663 467.344 0.883934 467.198C0.672587 467.126 0.488921 467.048 0.330088 466.939C0.171252 466.83 1.71661e-05 466.654 1.71661e-05 466.397C1.71661e-05 466.141 0.171252 465.965 0.330088 465.856C0.488921 465.747 0.672587 465.669 0.883934 465.596C1.30663 465.451 1.83995 465.334 2.38463 465.223C2.92932 465.112 3.48372 465.008 3.92309 464.904C4.14278 464.851 4.33371 464.798 4.47274 464.748C4.61177 464.698 4.69973 464.637 4.68533 464.651C4.67093 464.665 4.73309 464.578 4.78323 464.44C4.83338 464.302 4.88721 464.112 4.93988 463.894C5.04521 463.458 5.14958 462.908 5.26156 462.367C5.37353 461.826 5.49107 461.297 5.63778 460.877C5.71113 460.668 5.78946 460.485 5.89932 460.328C6.00918 460.17 6.18651 460 6.44477 460Z" fill="white"/>
<path d="M63.7312 116C63.9607 116 64.1184 116.151 64.216 116.291C64.3137 116.431 64.3833 116.593 64.4485 116.78C64.5789 117.153 64.6834 117.623 64.7829 118.104C64.8825 118.585 64.9752 119.074 65.0689 119.462C65.1157 119.655 65.1635 119.824 65.2081 119.947C65.2527 120.069 65.3079 120.147 65.2951 120.134C65.2823 120.121 65.3605 120.176 65.4841 120.22C65.6077 120.265 65.7774 120.312 65.9727 120.359C66.3632 120.452 66.856 120.544 67.3402 120.643C67.8243 120.741 68.2984 120.845 68.6741 120.974C68.862 121.039 69.0253 121.108 69.1664 121.205C69.3076 121.302 69.4598 121.459 69.4598 121.687C69.4598 121.914 69.3076 122.071 69.1664 122.168C69.0253 122.265 68.862 122.334 68.6741 122.399C68.2984 122.528 67.8243 122.632 67.3402 122.731C66.856 122.829 66.3632 122.921 65.9727 123.014C65.7774 123.061 65.6077 123.108 65.4841 123.153C65.3605 123.197 65.2823 123.252 65.2951 123.239C65.3079 123.226 65.2527 123.304 65.2081 123.427C65.1635 123.549 65.1157 123.718 65.0689 123.912C64.9752 124.299 64.8825 124.788 64.7829 125.269C64.6834 125.75 64.5789 126.22 64.4485 126.593C64.3833 126.78 64.3137 126.942 64.216 127.082C64.1184 127.222 63.9607 127.373 63.7312 127.373C63.5016 127.373 63.344 127.222 63.2463 127.082C63.1487 126.942 63.079 126.78 63.0138 126.593C62.8834 126.22 62.779 125.75 62.6794 125.269C62.5799 124.788 62.4871 124.299 62.3935 123.912C62.3467 123.718 62.2988 123.549 62.2542 123.427C62.2097 123.304 62.1544 123.226 62.1672 123.239C62.18 123.252 62.1018 123.197 61.9783 123.153C61.8547 123.108 61.685 123.061 61.4897 123.014C61.0991 122.921 60.6063 122.829 60.1222 122.731C59.638 122.632 59.1639 122.528 58.7882 122.399C58.6003 122.334 58.4371 122.265 58.2959 122.168C58.1547 122.071 58.0025 121.914 58.0025 121.687C58.0025 121.459 58.1547 121.302 58.2959 121.205C58.4371 121.108 58.6003 121.039 58.7882 120.974C59.1639 120.845 59.638 120.741 60.1222 120.643C60.6063 120.544 61.0991 120.452 61.4897 120.359C61.685 120.312 61.8547 120.265 61.9783 120.22C62.1018 120.176 62.18 120.121 62.1672 120.134C62.1544 120.147 62.2097 120.069 62.2542 119.947C62.2988 119.824 62.3467 119.655 62.3935 119.462C62.4871 119.074 62.5799 118.585 62.6794 118.104C62.779 117.623 62.8834 117.153 63.0138 116.78C63.079 116.593 63.1487 116.431 63.2463 116.291C63.344 116.151 63.5016 116 63.7312 116Z" fill="white"/>
<path d="M100.364 279.414C100.507 279.414 100.606 279.508 100.667 279.596C100.728 279.684 100.771 279.785 100.812 279.902C100.894 280.135 100.959 280.429 101.021 280.729C101.083 281.029 101.141 281.335 101.2 281.578C101.229 281.699 101.259 281.804 101.287 281.881C101.315 281.957 101.349 282.006 101.341 281.998C101.333 281.99 101.382 282.024 101.459 282.052C101.537 282.08 101.643 282.109 101.765 282.138C102.009 282.196 102.317 282.254 102.619 282.316C102.922 282.377 103.218 282.442 103.453 282.523C103.571 282.564 103.673 282.607 103.761 282.667C103.849 282.728 103.944 282.826 103.944 282.968C103.944 283.111 103.849 283.208 103.761 283.269C103.673 283.33 103.571 283.373 103.453 283.413C103.218 283.494 102.922 283.559 102.619 283.621C102.317 283.682 102.009 283.74 101.765 283.798C101.643 283.827 101.537 283.857 101.459 283.884C101.382 283.912 101.333 283.946 101.341 283.938C101.349 283.93 101.315 283.979 101.287 284.056C101.259 284.132 101.229 284.238 101.2 284.359C101.141 284.601 101.083 284.907 101.021 285.207C100.959 285.508 100.894 285.802 100.812 286.035C100.771 286.151 100.728 286.253 100.667 286.34C100.606 286.428 100.507 286.522 100.364 286.522C100.22 286.522 100.122 286.428 100.061 286.34C99.9997 286.253 99.9562 286.151 99.9155 286.035C99.834 285.802 99.7687 285.508 99.7065 285.207C99.6442 284.907 99.5863 284.601 99.5277 284.359C99.4985 284.238 99.4686 284.132 99.4407 284.056C99.4129 283.979 99.3783 283.93 99.3863 283.938C99.3943 283.946 99.3455 283.912 99.2682 283.884C99.191 283.857 99.0849 283.827 98.9629 283.798C98.7188 283.74 98.4108 283.682 98.1082 283.621C97.8056 283.559 97.5093 283.494 97.2744 283.413C97.157 283.373 97.055 283.33 96.9667 283.269C96.8785 283.208 96.7834 283.111 96.7834 282.968C96.7834 282.826 96.8785 282.728 96.9667 282.667C97.055 282.607 97.157 282.564 97.2744 282.523C97.5093 282.442 97.8056 282.377 98.1082 282.316C98.4108 282.254 98.7188 282.196 98.9629 282.138C99.0849 282.109 99.191 282.08 99.2682 282.052C99.3455 282.024 99.3943 281.99 99.3863 281.998C99.3783 282.006 99.4129 281.957 99.4407 281.881C99.4686 281.804 99.4985 281.699 99.5277 281.578C99.5863 281.335 99.6442 281.029 99.7065 280.729C99.7687 280.429 99.834 280.135 99.9155 279.902C99.9562 279.785 99.9997 279.684 100.061 279.596C100.122 279.508 100.22 279.414 100.364 279.414Z" fill="white"/>
<path d="M79.52 130.734C79.6635 130.734 79.762 130.829 79.8231 130.916C79.8841 131.004 79.9276 131.105 79.9684 131.222C80.0499 131.455 80.1152 131.749 80.1774 132.049C80.2396 132.35 80.2976 132.656 80.3561 132.898C80.3854 133.019 80.4153 133.124 80.4431 133.201C80.471 133.278 80.5055 133.326 80.4975 133.318C80.4895 133.31 80.5384 133.345 80.6156 133.372C80.6929 133.4 80.7989 133.43 80.921 133.459C81.1651 133.517 81.4731 133.574 81.7757 133.636C82.0783 133.698 82.3746 133.763 82.6094 133.843C82.7268 133.884 82.8289 133.927 82.9171 133.988C83.0053 134.048 83.1005 134.146 83.1005 134.288C83.1005 134.431 83.0053 134.529 82.9171 134.589C82.8289 134.65 82.7268 134.693 82.6094 134.733C82.3746 134.814 82.0783 134.879 81.7757 134.941C81.4731 135.003 81.1651 135.06 80.921 135.118C80.7989 135.147 80.6929 135.177 80.6156 135.205C80.5384 135.232 80.4895 135.267 80.4975 135.259C80.5055 135.251 80.471 135.299 80.4431 135.376C80.4153 135.453 80.3854 135.558 80.3561 135.679C80.2976 135.921 80.2396 136.227 80.1774 136.528C80.1152 136.828 80.0499 137.122 79.9684 137.355C79.9276 137.472 79.8841 137.573 79.8231 137.661C79.762 137.748 79.6635 137.843 79.52 137.843C79.3766 137.843 79.278 137.748 79.217 137.661C79.156 137.573 79.1125 137.472 79.0717 137.355C78.9902 137.122 78.9249 136.828 78.8627 136.528C78.8005 136.227 78.7425 135.921 78.684 135.679C78.6547 135.558 78.6248 135.453 78.597 135.376C78.5691 135.299 78.5346 135.251 78.5426 135.259C78.5506 135.267 78.5017 135.232 78.4245 135.205C78.3472 135.177 78.2412 135.147 78.1191 135.118C77.875 135.06 77.567 135.003 77.2644 134.941C76.9618 134.879 76.6655 134.814 76.4307 134.733C76.3133 134.693 76.2112 134.65 76.123 134.589C76.0348 134.529 75.9396 134.431 75.9396 134.288C75.9396 134.146 76.0348 134.048 76.123 133.988C76.2112 133.927 76.3133 133.884 76.4307 133.843C76.6655 133.763 76.9618 133.698 77.2644 133.636C77.567 133.574 77.875 133.517 78.1191 133.459C78.2412 133.43 78.3472 133.4 78.4245 133.372C78.5017 133.345 78.5506 133.31 78.5426 133.318C78.5346 133.326 78.5691 133.278 78.597 133.201C78.6248 133.124 78.6547 133.019 78.684 132.898C78.7425 132.656 78.8005 132.35 78.8627 132.049C78.9249 131.749 78.9902 131.455 79.0717 131.222C79.1125 131.105 79.156 131.004 79.217 130.916C79.278 130.829 79.3766 130.734 79.52 130.734Z" fill="white"/>
<path d="M312.001 374C312.041 374 312.068 374.026 312.085 374.051C312.102 374.075 312.114 374.103 312.126 374.136C312.148 374.201 312.166 374.283 312.184 374.367C312.201 374.45 312.217 374.536 312.234 374.603C312.242 374.637 312.25 374.666 312.258 374.688C312.266 374.709 312.275 374.723 312.273 374.72C312.271 374.718 312.284 374.728 312.306 374.736C312.328 374.743 312.357 374.752 312.391 374.76C312.459 374.776 312.545 374.792 312.629 374.809C312.714 374.826 312.796 374.844 312.862 374.867C312.895 374.878 312.923 374.89 312.948 374.907C312.972 374.924 312.999 374.951 312.999 374.991C312.999 375.031 312.972 375.058 312.948 375.075C312.923 375.092 312.895 375.104 312.862 375.115C312.796 375.138 312.714 375.156 312.629 375.173C312.545 375.19 312.459 375.206 312.391 375.222C312.357 375.231 312.328 375.239 312.306 375.247C312.284 375.254 312.271 375.264 312.273 375.262C312.275 375.259 312.266 375.273 312.258 375.294C312.25 375.316 312.242 375.345 312.234 375.379C312.217 375.446 312.201 375.532 312.184 375.615C312.166 375.699 312.148 375.781 312.126 375.846C312.114 375.879 312.102 375.907 312.085 375.931C312.068 375.956 312.041 375.982 312.001 375.982C311.961 375.982 311.933 375.956 311.916 375.931C311.899 375.907 311.887 375.879 311.875 375.846C311.853 375.781 311.835 375.699 311.817 375.615C311.8 375.532 311.784 375.446 311.767 375.379C311.759 375.345 311.751 375.316 311.743 375.294C311.735 375.273 311.726 375.259 311.728 375.262C311.73 375.264 311.717 375.254 311.695 375.247C311.673 375.239 311.644 375.231 311.61 375.222C311.542 375.206 311.456 375.19 311.372 375.173C311.287 375.156 311.205 375.138 311.139 375.115C311.106 375.104 311.078 375.092 311.053 375.075C311.029 375.058 311.002 375.031 311.002 374.991C311.002 374.951 311.029 374.924 311.053 374.907C311.078 374.89 311.106 374.878 311.139 374.867C311.205 374.844 311.287 374.826 311.372 374.809C311.456 374.792 311.542 374.776 311.61 374.76C311.644 374.752 311.673 374.743 311.695 374.736C311.717 374.728 311.73 374.718 311.728 374.72C311.726 374.723 311.735 374.709 311.743 374.688C311.751 374.666 311.759 374.637 311.767 374.603C311.784 374.536 311.8 374.45 311.817 374.367C311.835 374.283 311.853 374.201 311.875 374.136C311.887 374.103 311.899 374.075 311.916 374.051C311.933 374.026 311.961 374 312.001 374Z" fill="white"/>
<path d="M360.001 556C360.041 556 360.068 556.026 360.085 556.051C360.102 556.075 360.114 556.103 360.126 556.136C360.148 556.201 360.166 556.283 360.184 556.367C360.201 556.45 360.217 556.536 360.234 556.603C360.242 556.637 360.25 556.666 360.258 556.688C360.266 556.709 360.275 556.723 360.273 556.72C360.271 556.718 360.284 556.728 360.306 556.736C360.328 556.743 360.357 556.752 360.391 556.76C360.459 556.776 360.545 556.792 360.629 556.809C360.714 556.826 360.796 556.844 360.862 556.867C360.895 556.878 360.923 556.89 360.948 556.907C360.972 556.924 360.999 556.951 360.999 556.991C360.999 557.031 360.972 557.058 360.948 557.075C360.923 557.092 360.895 557.104 360.862 557.115C360.796 557.138 360.714 557.156 360.629 557.173C360.545 557.19 360.459 557.206 360.391 557.222C360.357 557.231 360.328 557.239 360.306 557.247C360.284 557.254 360.271 557.264 360.273 557.262C360.275 557.259 360.266 557.273 360.258 557.294C360.25 557.316 360.242 557.345 360.234 557.379C360.217 557.446 360.201 557.532 360.184 557.615C360.166 557.699 360.148 557.781 360.126 557.846C360.114 557.879 360.102 557.907 360.085 557.931C360.068 557.956 360.041 557.982 360.001 557.982C359.961 557.982 359.933 557.956 359.916 557.931C359.899 557.907 359.887 557.879 359.875 557.846C359.853 557.781 359.835 557.699 359.817 557.615C359.8 557.532 359.784 557.446 359.767 557.379C359.759 557.345 359.751 557.316 359.743 557.294C359.735 557.273 359.726 557.259 359.728 557.262C359.73 557.264 359.717 557.254 359.695 557.247C359.673 557.239 359.644 557.231 359.61 557.222C359.542 557.206 359.456 557.19 359.372 557.173C359.287 557.156 359.205 557.138 359.139 557.115C359.106 557.104 359.078 557.092 359.053 557.075C359.029 557.058 359.002 557.031 359.002 556.991C359.002 556.951 359.029 556.924 359.053 556.907C359.078 556.89 359.106 556.878 359.139 556.867C359.205 556.844 359.287 556.826 359.372 556.809C359.456 556.792 359.542 556.776 359.61 556.76C359.644 556.752 359.673 556.743 359.695 556.736C359.717 556.728 359.73 556.718 359.728 556.72C359.726 556.723 359.735 556.709 359.743 556.688C359.751 556.666 359.759 556.637 359.767 556.603C359.784 556.536 359.8 556.45 359.817 556.367C359.835 556.283 359.853 556.201 359.875 556.136C359.887 556.103 359.899 556.075 359.916 556.051C359.933 556.026 359.961 556 360.001 556Z" fill="white"/>
<path d="M108.001 287C108.041 287 108.068 287.026 108.085 287.051C108.102 287.075 108.114 287.103 108.126 287.136C108.148 287.201 108.166 287.283 108.184 287.367C108.201 287.45 108.217 287.536 108.234 287.603C108.242 287.637 108.25 287.666 108.258 287.688C108.266 287.709 108.275 287.723 108.273 287.72C108.271 287.718 108.284 287.728 108.306 287.736C108.328 287.743 108.357 287.752 108.391 287.76C108.459 287.776 108.545 287.792 108.629 287.809C108.714 287.826 108.796 287.844 108.862 287.867C108.895 287.878 108.923 287.89 108.948 287.907C108.972 287.924 108.999 287.951 108.999 287.991C108.999 288.031 108.972 288.058 108.948 288.075C108.923 288.092 108.895 288.104 108.862 288.115C108.796 288.138 108.714 288.156 108.629 288.173C108.545 288.19 108.459 288.206 108.391 288.222C108.357 288.231 108.328 288.239 108.306 288.247C108.284 288.254 108.271 288.264 108.273 288.262C108.275 288.259 108.266 288.273 108.258 288.294C108.25 288.316 108.242 288.345 108.234 288.379C108.217 288.446 108.201 288.532 108.184 288.615C108.166 288.699 108.148 288.781 108.126 288.846C108.114 288.879 108.102 288.907 108.085 288.931C108.068 288.956 108.041 288.982 108.001 288.982C107.961 288.982 107.933 288.956 107.916 288.931C107.899 288.907 107.887 288.879 107.875 288.846C107.853 288.781 107.835 288.699 107.817 288.615C107.8 288.532 107.784 288.446 107.767 288.379C107.759 288.345 107.751 288.316 107.743 288.294C107.735 288.273 107.726 288.259 107.728 288.262C107.73 288.264 107.717 288.254 107.695 288.247C107.673 288.239 107.644 288.231 107.61 288.222C107.542 288.206 107.456 288.19 107.372 288.173C107.287 288.156 107.205 288.138 107.139 288.115C107.106 288.104 107.078 288.092 107.053 288.075C107.029 288.058 107.002 288.031 107.002 287.991C107.002 287.951 107.029 287.924 107.053 287.907C107.078 287.89 107.106 287.878 107.139 287.867C107.205 287.844 107.287 287.826 107.372 287.809C107.456 287.792 107.542 287.776 107.61 287.76C107.644 287.752 107.673 287.743 107.695 287.736C107.717 287.728 107.73 287.718 107.728 287.72C107.726 287.723 107.735 287.709 107.743 287.688C107.751 287.666 107.759 287.637 107.767 287.603C107.784 287.536 107.8 287.45 107.817 287.367C107.835 287.283 107.853 287.201 107.875 287.136C107.887 287.103 107.899 287.075 107.916 287.051C107.933 287.026 107.961 287 108.001 287Z" fill="white"/>
<path d="M121.001 443C121.041 443 121.068 443.026 121.085 443.051C121.102 443.075 121.114 443.103 121.126 443.136C121.148 443.201 121.166 443.283 121.184 443.367C121.201 443.45 121.217 443.536 121.234 443.603C121.242 443.637 121.25 443.666 121.258 443.688C121.266 443.709 121.275 443.723 121.273 443.72C121.271 443.718 121.284 443.728 121.306 443.736C121.328 443.743 121.357 443.752 121.391 443.76C121.459 443.776 121.545 443.792 121.629 443.809C121.714 443.826 121.796 443.844 121.862 443.867C121.895 443.878 121.923 443.89 121.948 443.907C121.972 443.924 121.999 443.951 121.999 443.991C121.999 444.031 121.972 444.058 121.948 444.075C121.923 444.092 121.895 444.104 121.862 444.115C121.796 444.138 121.714 444.156 121.629 444.173C121.545 444.19 121.459 444.206 121.391 444.222C121.357 444.231 121.328 444.239 121.306 444.247C121.284 444.254 121.271 444.264 121.273 444.262C121.275 444.259 121.266 444.273 121.258 444.294C121.25 444.316 121.242 444.345 121.234 444.379C121.217 444.446 121.201 444.532 121.184 444.615C121.166 444.699 121.148 444.781 121.126 444.846C121.114 444.879 121.102 444.907 121.085 444.931C121.068 444.956 121.041 444.982 121.001 444.982C120.961 444.982 120.933 444.956 120.916 444.931C120.899 444.907 120.887 444.879 120.875 444.846C120.853 444.781 120.835 444.699 120.817 444.615C120.8 444.532 120.784 444.446 120.767 444.379C120.759 444.345 120.751 444.316 120.743 444.294C120.735 444.273 120.726 444.259 120.728 444.262C120.73 444.264 120.717 444.254 120.695 444.247C120.673 444.239 120.644 444.231 120.61 444.222C120.542 444.206 120.456 444.19 120.372 444.173C120.287 444.156 120.205 444.138 120.139 444.115C120.106 444.104 120.078 444.092 120.053 444.075C120.029 444.058 120.002 444.031 120.002 443.991C120.002 443.951 120.029 443.924 120.053 443.907C120.078 443.89 120.106 443.878 120.139 443.867C120.205 443.844 120.287 443.826 120.372 443.809C120.456 443.792 120.542 443.776 120.61 443.76C120.644 443.752 120.673 443.743 120.695 443.736C120.717 443.728 120.73 443.718 120.728 443.72C120.726 443.723 120.735 443.709 120.743 443.688C120.751 443.666 120.759 443.637 120.767 443.603C120.784 443.536 120.8 443.45 120.817 443.367C120.835 443.283 120.853 443.201 120.875 443.136C120.887 443.103 120.899 443.075 120.916 443.051C120.933 443.026 120.961 443 121.001 443Z" fill="white"/>
<path d="M49.0005 564C49.0405 564 49.068 564.026 49.085 564.051C49.102 564.075 49.1142 564.103 49.1255 564.136C49.1483 564.201 49.1665 564.283 49.1838 564.367C49.2012 564.45 49.2173 564.536 49.2336 564.603C49.2418 564.637 49.2501 564.666 49.2579 564.688C49.2657 564.709 49.2753 564.723 49.2731 564.72C49.2708 564.718 49.2845 564.728 49.306 564.736C49.3275 564.743 49.3571 564.752 49.3912 564.76C49.4592 564.776 49.5451 564.792 49.6295 564.809C49.7139 564.826 49.7965 564.844 49.862 564.867C49.8947 564.878 49.9232 564.89 49.9478 564.907C49.9724 564.924 49.9989 564.951 49.9989 564.991C49.9989 565.031 49.9724 565.058 49.9478 565.075C49.9232 565.092 49.8947 565.104 49.862 565.115C49.7965 565.138 49.7139 565.156 49.6295 565.173C49.5451 565.19 49.4592 565.206 49.3912 565.222C49.3571 565.231 49.3275 565.239 49.306 565.247C49.2845 565.254 49.2708 565.264 49.2731 565.262C49.2753 565.259 49.2657 565.273 49.2579 565.294C49.2501 565.316 49.2418 565.345 49.2336 565.379C49.2173 565.446 49.2012 565.532 49.1838 565.615C49.1665 565.699 49.1483 565.781 49.1255 565.846C49.1142 565.879 49.102 565.907 49.085 565.931C49.068 565.956 49.0405 565.982 49.0005 565.982C48.9605 565.982 48.933 565.956 48.916 565.931C48.899 565.907 48.8869 565.879 48.8755 565.846C48.8528 565.781 48.8346 565.699 48.8172 565.615C48.7999 565.532 48.7837 565.446 48.7674 565.379C48.7592 565.345 48.7509 565.316 48.7431 565.294C48.7353 565.273 48.7257 565.259 48.728 565.262C48.7302 565.264 48.7166 565.254 48.695 565.247C48.6735 565.239 48.6439 565.231 48.6099 565.222C48.5418 565.206 48.4559 565.19 48.3715 565.173C48.2872 565.156 48.2045 565.138 48.1391 565.115C48.1063 565.104 48.0779 565.092 48.0533 565.075C48.0287 565.058 48.0021 565.031 48.0021 564.991C48.0021 564.951 48.0287 564.924 48.0533 564.907C48.0779 564.89 48.1063 564.878 48.1391 564.867C48.2045 564.844 48.2872 564.826 48.3715 564.809C48.4559 564.792 48.5418 564.776 48.6099 564.76C48.6439 564.752 48.6735 564.743 48.695 564.736C48.7166 564.728 48.7302 564.718 48.728 564.72C48.7257 564.723 48.7353 564.709 48.7431 564.688C48.7509 564.666 48.7592 564.637 48.7674 564.603C48.7837 564.536 48.7999 564.45 48.8172 564.367C48.8346 564.283 48.8528 564.201 48.8755 564.136C48.8869 564.103 48.899 564.075 48.916 564.051C48.933 564.026 48.9605 564 49.0005 564Z" fill="white"/>
<path d="M263.001 637C263.041 637 263.068 637.026 263.085 637.051C263.102 637.075 263.114 637.103 263.126 637.136C263.148 637.201 263.166 637.283 263.184 637.367C263.201 637.45 263.217 637.536 263.234 637.603C263.242 637.637 263.25 637.666 263.258 637.688C263.266 637.709 263.275 637.723 263.273 637.72C263.271 637.718 263.284 637.728 263.306 637.736C263.328 637.743 263.357 637.752 263.391 637.76C263.459 637.776 263.545 637.792 263.629 637.809C263.714 637.826 263.796 637.844 263.862 637.867C263.895 637.878 263.923 637.89 263.948 637.907C263.972 637.924 263.999 637.951 263.999 637.991C263.999 638.031 263.972 638.058 263.948 638.075C263.923 638.092 263.895 638.104 263.862 638.115C263.796 638.138 263.714 638.156 263.629 638.173C263.545 638.19 263.459 638.206 263.391 638.222C263.357 638.231 263.328 638.239 263.306 638.247C263.284 638.254 263.271 638.264 263.273 638.262C263.275 638.259 263.266 638.273 263.258 638.294C263.25 638.316 263.242 638.345 263.234 638.379C263.217 638.446 263.201 638.532 263.184 638.615C263.166 638.699 263.148 638.781 263.126 638.846C263.114 638.879 263.102 638.907 263.085 638.931C263.068 638.956 263.041 638.982 263.001 638.982C262.961 638.982 262.933 638.956 262.916 638.931C262.899 638.907 262.887 638.879 262.875 638.846C262.853 638.781 262.835 638.699 262.817 638.615C262.8 638.532 262.784 638.446 262.767 638.379C262.759 638.345 262.751 638.316 262.743 638.294C262.735 638.273 262.726 638.259 262.728 638.262C262.73 638.264 262.717 638.254 262.695 638.247C262.673 638.239 262.644 638.231 262.61 638.222C262.542 638.206 262.456 638.19 262.372 638.173C262.287 638.156 262.205 638.138 262.139 638.115C262.106 638.104 262.078 638.092 262.053 638.075C262.029 638.058 262.002 638.031 262.002 637.991C262.002 637.951 262.029 637.924 262.053 637.907C262.078 637.89 262.106 637.878 262.139 637.867C262.205 637.844 262.287 637.826 262.372 637.809C262.456 637.792 262.542 637.776 262.61 637.76C262.644 637.752 262.673 637.743 262.695 637.736C262.717 637.728 262.73 637.718 262.728 637.72C262.726 637.723 262.735 637.709 262.743 637.688C262.751 637.666 262.759 637.637 262.767 637.603C262.784 637.536 262.8 637.45 262.817 637.367C262.835 637.283 262.853 637.201 262.875 637.136C262.887 637.103 262.899 637.075 262.916 637.051C262.933 637.026 262.961 637 263.001 637Z" fill="white"/>
<path d="M84.0005 116C84.0405 116 84.068 116.026 84.085 116.051C84.102 116.075 84.1142 116.103 84.1255 116.136C84.1483 116.201 84.1665 116.283 84.1838 116.367C84.2012 116.45 84.2173 116.536 84.2336 116.603C84.2418 116.637 84.2501 116.666 84.2579 116.688C84.2657 116.709 84.2753 116.723 84.2731 116.72C84.2708 116.718 84.2845 116.728 84.306 116.736C84.3275 116.743 84.3571 116.752 84.3912 116.76C84.4592 116.776 84.5451 116.792 84.6295 116.809C84.7139 116.826 84.7965 116.844 84.862 116.867C84.8947 116.878 84.9232 116.89 84.9478 116.907C84.9724 116.924 84.9989 116.951 84.9989 116.991C84.9989 117.031 84.9724 117.058 84.9478 117.075C84.9232 117.092 84.8947 117.104 84.862 117.115C84.7965 117.138 84.7139 117.156 84.6295 117.173C84.5451 117.19 84.4592 117.206 84.3912 117.222C84.3571 117.231 84.3275 117.239 84.306 117.247C84.2845 117.254 84.2708 117.264 84.2731 117.262C84.2753 117.259 84.2657 117.273 84.2579 117.294C84.2501 117.316 84.2418 117.345 84.2336 117.379C84.2173 117.446 84.2012 117.532 84.1838 117.615C84.1665 117.699 84.1483 117.781 84.1255 117.846C84.1142 117.879 84.102 117.907 84.085 117.931C84.068 117.956 84.0405 117.982 84.0005 117.982C83.9605 117.982 83.933 117.956 83.916 117.931C83.899 117.907 83.8869 117.879 83.8755 117.846C83.8528 117.781 83.8346 117.699 83.8172 117.615C83.7999 117.532 83.7837 117.446 83.7674 117.379C83.7592 117.345 83.7509 117.316 83.7431 117.294C83.7353 117.273 83.7257 117.259 83.728 117.262C83.7302 117.264 83.7166 117.254 83.695 117.247C83.6735 117.239 83.6439 117.231 83.6099 117.222C83.5418 117.206 83.4559 117.19 83.3715 117.173C83.2872 117.156 83.2045 117.138 83.1391 117.115C83.1063 117.104 83.0779 117.092 83.0533 117.075C83.0287 117.058 83.0021 117.031 83.0021 116.991C83.0021 116.951 83.0287 116.924 83.0533 116.907C83.0779 116.89 83.1063 116.878 83.1391 116.867C83.2045 116.844 83.2872 116.826 83.3715 116.809C83.4559 116.792 83.5418 116.776 83.6099 116.76C83.6439 116.752 83.6735 116.743 83.695 116.736C83.7166 116.728 83.7302 116.718 83.728 116.72C83.7257 116.723 83.7353 116.709 83.7431 116.688C83.7509 116.666 83.7592 116.637 83.7674 116.603C83.7837 116.536 83.7999 116.45 83.8172 116.367C83.8346 116.283 83.8528 116.201 83.8755 116.136C83.8869 116.103 83.899 116.075 83.916 116.051C83.933 116.026 83.9605 116 84.0005 116Z" fill="white"/>
<path d="M339.001 62C339.041 62 339.068 62.0263 339.085 62.0508C339.102 62.0752 339.114 62.1034 339.126 62.1359C339.148 62.2009 339.166 62.2829 339.184 62.3667C339.201 62.4505 339.217 62.5357 339.234 62.6033C339.242 62.6371 339.25 62.6664 339.258 62.6878C339.266 62.7092 339.275 62.7227 339.273 62.7205C339.271 62.7183 339.284 62.7278 339.306 62.7355C339.328 62.7433 339.357 62.7515 339.391 62.7596C339.459 62.7758 339.545 62.7919 339.629 62.8091C339.714 62.8263 339.796 62.8444 339.862 62.867C339.895 62.8782 339.923 62.8903 339.948 62.9072C339.972 62.9241 339.999 62.9513 339.999 62.991C339.999 63.0308 339.972 63.058 339.948 63.0749C339.923 63.0918 339.895 63.1039 339.862 63.1151C339.796 63.1377 339.714 63.1558 339.629 63.173C339.545 63.1902 339.459 63.2063 339.391 63.2225C339.357 63.2306 339.328 63.2388 339.306 63.2466C339.284 63.2543 339.271 63.2638 339.273 63.2616C339.275 63.2594 339.266 63.2729 339.258 63.2943C339.25 63.3157 339.242 63.345 339.234 63.3788C339.217 63.4464 339.201 63.5316 339.184 63.6154C339.166 63.6992 339.148 63.7812 339.126 63.8462C339.114 63.8787 339.102 63.9069 339.085 63.9313C339.068 63.9558 339.041 63.9821 339.001 63.9821C338.961 63.9821 338.933 63.9558 338.916 63.9313C338.899 63.9069 338.887 63.8787 338.875 63.8462C338.853 63.7812 338.835 63.6992 338.817 63.6154C338.8 63.5316 338.784 63.4464 338.767 63.3788C338.759 63.345 338.751 63.3157 338.743 63.2943C338.735 63.2729 338.726 63.2594 338.728 63.2616C338.73 63.2638 338.717 63.2543 338.695 63.2466C338.673 63.2388 338.644 63.2306 338.61 63.2225C338.542 63.2063 338.456 63.1902 338.372 63.173C338.287 63.1558 338.205 63.1377 338.139 63.1151C338.106 63.1039 338.078 63.0918 338.053 63.0749C338.029 63.058 338.002 63.0308 338.002 62.991C338.002 62.9513 338.029 62.9241 338.053 62.9072C338.078 62.8903 338.106 62.8782 338.139 62.867C338.205 62.8444 338.287 62.8263 338.372 62.8091C338.456 62.7919 338.542 62.7758 338.61 62.7596C338.644 62.7515 338.673 62.7433 338.695 62.7355C338.717 62.7278 338.73 62.7183 338.728 62.7205C338.726 62.7227 338.735 62.7092 338.743 62.6878C338.751 62.6664 338.759 62.6371 338.767 62.6033C338.784 62.5357 338.8 62.4505 338.817 62.3667C338.835 62.2829 338.853 62.2009 338.875 62.1359C338.887 62.1034 338.899 62.0752 338.916 62.0508C338.933 62.0263 338.961 62 339.001 62Z" fill="white"/>
<path d="M59.0005 0C59.0405 0 59.068 0.0263318 59.085 0.0507567C59.102 0.0751817 59.1142 0.103425 59.1255 0.135925C59.1483 0.200925 59.1665 0.282936 59.1838 0.366696C59.2012 0.450455 59.2173 0.535708 59.2336 0.603274C59.2418 0.637057 59.2501 0.666417 59.2579 0.687797C59.2657 0.709176 59.2753 0.722701 59.2731 0.720487C59.2708 0.718274 59.2845 0.727831 59.306 0.735542C59.3275 0.743254 59.3571 0.751531 59.3912 0.75963C59.4592 0.775828 59.5451 0.791878 59.6295 0.809097C59.7139 0.826316 59.7965 0.84439 59.862 0.866951C59.8947 0.878231 59.9232 0.890275 59.9478 0.907169C59.9724 0.924063 59.9989 0.951332 59.9989 0.991047C59.9989 1.03076 59.9724 1.05803 59.9478 1.07492C59.9232 1.09182 59.8947 1.10386 59.862 1.11514C59.7965 1.1377 59.7139 1.15578 59.6295 1.173C59.5451 1.19022 59.4592 1.20626 59.3912 1.22246C59.3571 1.23056 59.3275 1.23884 59.306 1.24655C59.2845 1.25426 59.2708 1.26382 59.2731 1.26161C59.2753 1.25939 59.2657 1.27292 59.2579 1.2943C59.2501 1.31568 59.2418 1.34504 59.2336 1.37882C59.2173 1.44639 59.2012 1.53164 59.1838 1.6154C59.1665 1.69916 59.1483 1.78117 59.1255 1.84617C59.1142 1.87867 59.102 1.90691 59.085 1.93134C59.068 1.95576 59.0405 1.98209 59.0005 1.98209C58.9605 1.98209 58.933 1.95576 58.916 1.93134C58.899 1.90691 58.8869 1.87867 58.8755 1.84617C58.8528 1.78117 58.8346 1.69916 58.8172 1.6154C58.7999 1.53164 58.7837 1.44639 58.7674 1.37882C58.7592 1.34504 58.7509 1.31568 58.7431 1.2943C58.7353 1.27292 58.7257 1.25939 58.728 1.26161C58.7302 1.26382 58.7166 1.25426 58.695 1.24655C58.6735 1.23884 58.6439 1.23056 58.6099 1.22246C58.5418 1.20626 58.4559 1.19022 58.3715 1.173C58.2872 1.15578 58.2045 1.1377 58.1391 1.11514C58.1063 1.10386 58.0779 1.09182 58.0533 1.07492C58.0287 1.05803 58.0021 1.03076 58.0021 0.991047C58.0021 0.951332 58.0287 0.924063 58.0533 0.907169C58.0779 0.890275 58.1063 0.878231 58.1391 0.866951C58.2045 0.84439 58.2872 0.826316 58.3715 0.809097C58.4559 0.791878 58.5418 0.775828 58.6099 0.75963C58.6439 0.751531 58.6735 0.743254 58.695 0.735542C58.7166 0.727831 58.7302 0.718274 58.728 0.720487C58.7257 0.722701 58.7353 0.709176 58.7431 0.687797C58.7509 0.666417 58.7592 0.637057 58.7674 0.603274C58.7837 0.535708 58.7999 0.450455 58.8172 0.366696C58.8346 0.282936 58.8528 0.200925 58.8755 0.135925C58.8869 0.103425 58.899 0.0751817 58.916 0.0507567C58.933 0.0263318 58.9605 0 59.0005 0Z" fill="white"/>
<path d="M107.411 374.891C107.554 374.891 107.653 374.985 107.714 375.073C107.775 375.16 107.818 375.262 107.859 375.378C107.941 375.611 108.006 375.905 108.068 376.206C108.13 376.506 108.188 376.812 108.247 377.054C108.276 377.175 108.306 377.281 108.334 377.357C108.362 377.434 108.396 377.482 108.388 377.474C108.38 377.466 108.429 377.501 108.506 377.528C108.583 377.556 108.69 377.586 108.812 377.615C109.056 377.673 109.364 377.73 109.666 377.792C109.969 377.854 110.265 377.919 110.5 378C110.617 378.04 110.719 378.083 110.808 378.144C110.896 378.205 110.991 378.302 110.991 378.445C110.991 378.587 110.896 378.685 110.808 378.746C110.719 378.806 110.617 378.849 110.5 378.89C110.265 378.971 109.969 379.035 109.666 379.097C109.364 379.159 109.056 379.217 108.812 379.275C108.69 379.304 108.583 379.333 108.506 379.361C108.429 379.389 108.38 379.423 108.388 379.415C108.396 379.407 108.362 379.456 108.334 379.532C108.306 379.609 108.276 379.714 108.247 379.835C108.188 380.078 108.13 380.383 108.068 380.684C108.006 380.984 107.941 381.278 107.859 381.511C107.818 381.628 107.775 381.729 107.714 381.817C107.653 381.904 107.554 381.999 107.411 381.999C107.267 381.999 107.169 381.904 107.108 381.817C107.047 381.729 107.003 381.628 106.962 381.511C106.881 381.278 106.816 380.984 106.753 380.684C106.691 380.383 106.633 380.078 106.575 379.835C106.545 379.714 106.515 379.609 106.488 379.532C106.46 379.456 106.425 379.407 106.433 379.415C106.441 379.423 106.392 379.389 106.315 379.361C106.238 379.333 106.132 379.304 106.01 379.275C105.766 379.217 105.458 379.159 105.155 379.097C104.852 379.035 104.556 378.971 104.321 378.89C104.204 378.849 104.102 378.806 104.014 378.746C103.925 378.685 103.83 378.587 103.83 378.445C103.83 378.302 103.925 378.205 104.014 378.144C104.102 378.083 104.204 378.04 104.321 378C104.556 377.919 104.852 377.854 105.155 377.792C105.458 377.73 105.766 377.673 106.01 377.615C106.132 377.586 106.238 377.556 106.315 377.528C106.392 377.501 106.441 377.466 106.433 377.474C106.425 377.482 106.46 377.434 106.488 377.357C106.515 377.281 106.545 377.175 106.575 377.054C106.633 376.812 106.691 376.506 106.753 376.206C106.816 375.905 106.881 375.611 106.962 375.378C107.003 375.262 107.047 375.16 107.108 375.073C107.169 374.985 107.267 374.891 107.411 374.891Z" fill="white"/>
<path d="M276.583 62.8125C276.726 62.8125 276.825 62.9069 276.886 62.9945C276.947 63.0821 276.99 63.1834 277.031 63.3C277.112 63.5331 277.178 63.8272 277.24 64.1275C277.302 64.4279 277.36 64.7337 277.419 64.976C277.448 65.0971 277.478 65.2024 277.506 65.2791C277.533 65.3557 277.568 65.4043 277.56 65.3963C277.552 65.3884 277.601 65.4226 277.678 65.4503C277.755 65.478 277.861 65.5076 277.983 65.5367C278.228 65.5948 278.536 65.6523 278.838 65.7141C279.141 65.7758 279.437 65.8407 279.672 65.9216C279.789 65.962 279.891 66.0052 279.98 66.0658C280.068 66.1264 280.163 66.2242 280.163 66.3666C280.163 66.509 280.068 66.6068 279.98 66.6674C279.891 66.728 279.789 66.7712 279.672 66.8116C279.437 66.8925 279.141 66.9573 278.838 67.0191C278.536 67.0809 278.228 67.1384 277.983 67.1965C277.861 67.2255 277.755 67.2552 277.678 67.2829C277.601 67.3105 277.552 67.3448 277.56 67.3369C277.568 67.3289 277.533 67.3774 277.506 67.4541C277.478 67.5308 277.448 67.6361 277.419 67.7572C277.36 67.9995 277.302 68.3053 277.24 68.6056C277.178 68.906 277.112 69.2001 277.031 69.4332C276.99 69.5498 276.947 69.6511 276.886 69.7387C276.825 69.8263 276.726 69.9207 276.583 69.9207C276.439 69.9207 276.341 69.8263 276.28 69.7387C276.218 69.6511 276.175 69.5498 276.134 69.4332C276.053 69.2001 275.987 68.906 275.925 68.6056C275.863 68.3053 275.805 67.9995 275.746 67.7572C275.717 67.6361 275.687 67.5308 275.659 67.4541C275.632 67.3774 275.597 67.3289 275.605 67.3369C275.613 67.3448 275.564 67.3105 275.487 67.2829C275.41 67.2552 275.304 67.2255 275.182 67.1965C274.938 67.1384 274.63 67.0809 274.327 67.0191C274.024 66.9573 273.728 66.8925 273.493 66.8116C273.376 66.7712 273.274 66.728 273.185 66.6674C273.097 66.6068 273.002 66.509 273.002 66.3666C273.002 66.2242 273.097 66.1264 273.185 66.0658C273.274 66.0052 273.376 65.962 273.493 65.9216C273.728 65.8407 274.024 65.7758 274.327 65.7141C274.63 65.6523 274.938 65.5948 275.182 65.5367C275.304 65.5076 275.41 65.478 275.487 65.4503C275.564 65.4226 275.613 65.3884 275.605 65.3963C275.597 65.4043 275.632 65.3557 275.659 65.2791C275.687 65.2024 275.717 65.0971 275.746 64.976C275.805 64.7337 275.863 64.4279 275.925 64.1275C275.987 63.8272 276.053 63.5331 276.134 63.3C276.175 63.1834 276.218 63.0821 276.28 62.9945C276.341 62.9069 276.439 62.8125 276.583 62.8125Z" fill="white"/>
<path d="M291.965 294.789C292.109 294.789 292.207 294.883 292.268 294.971C292.329 295.059 292.373 295.16 292.414 295.277C292.495 295.51 292.56 295.804 292.623 296.104C292.685 296.404 292.743 296.71 292.801 296.953C292.831 297.074 292.861 297.179 292.888 297.256C292.916 297.332 292.951 297.381 292.943 297.373C292.935 297.365 292.984 297.399 293.061 297.427C293.138 297.455 293.244 297.484 293.366 297.513C293.61 297.571 293.918 297.629 294.221 297.691C294.524 297.752 294.82 297.817 295.055 297.898C295.172 297.939 295.274 297.982 295.362 298.042C295.451 298.103 295.546 298.201 295.546 298.343C295.546 298.486 295.451 298.583 295.362 298.644C295.274 298.705 295.172 298.748 295.055 298.788C294.82 298.869 294.524 298.934 294.221 298.996C293.918 299.057 293.61 299.115 293.366 299.173C293.244 299.202 293.138 299.232 293.061 299.259C292.984 299.287 292.935 299.321 292.943 299.313C292.951 299.305 292.916 299.354 292.888 299.431C292.861 299.507 292.831 299.613 292.801 299.734C292.743 299.976 292.685 300.282 292.623 300.582C292.56 300.883 292.495 301.177 292.414 301.41C292.373 301.526 292.329 301.628 292.268 301.715C292.207 301.803 292.109 301.897 291.965 301.897C291.822 301.897 291.723 301.803 291.662 301.715C291.601 301.628 291.558 301.526 291.517 301.41C291.436 301.177 291.37 300.883 291.308 300.582C291.246 300.282 291.188 299.976 291.129 299.734C291.1 299.613 291.07 299.507 291.042 299.431C291.014 299.354 290.98 299.305 290.988 299.313C290.996 299.321 290.947 299.287 290.87 299.259C290.793 299.232 290.686 299.202 290.564 299.173C290.32 299.115 290.012 299.057 289.71 298.996C289.407 298.934 289.111 298.869 288.876 298.788C288.759 298.748 288.657 298.705 288.568 298.644C288.48 298.583 288.385 298.486 288.385 298.343C288.385 298.201 288.48 298.103 288.568 298.042C288.657 297.982 288.759 297.939 288.876 297.898C289.111 297.817 289.407 297.752 289.71 297.691C290.012 297.629 290.32 297.571 290.564 297.513C290.686 297.484 290.793 297.455 290.87 297.427C290.947 297.399 290.996 297.365 290.988 297.373C290.98 297.381 291.014 297.332 291.042 297.256C291.07 297.179 291.1 297.074 291.129 296.953C291.188 296.71 291.246 296.404 291.308 296.104C291.37 295.804 291.436 295.51 291.517 295.277C291.558 295.16 291.601 295.059 291.662 294.971C291.723 294.883 291.822 294.789 291.965 294.789Z" fill="white"/>
</svg>
