<svg width="127" height="122" viewBox="0 0 127 122" fill="none" xmlns="http://www.w3.org/2000/svg">
<path fill-rule="evenodd" clip-rule="evenodd" d="M95.8678 53.0178C95.6744 53.0178 95.4867 52.9306 95.3621 52.7698C89.3261 44.9578 84.0862 37.3262 86.2324 29.8296C86.9228 27.4152 88.5903 26.0312 90.8064 26.0312C93.0373 26.0312 95.5707 27.4367 97.4174 29.6982C98.7787 31.3651 99.6164 33.3051 99.8723 35.2954C102.026 32.0752 105.824 30.3666 109.012 30.3666C111.004 30.3666 112.644 31.019 113.63 32.2028C114.53 33.2836 114.839 34.7559 114.525 36.4627C113.113 44.1317 105.026 48.6401 96.1476 52.9539C96.0574 52.9975 95.9623 53.0178 95.8678 53.0178Z" fill="#FD6085"/>
<path fill-rule="evenodd" clip-rule="evenodd" d="M29.8745 110.182C29.799 110.182 29.7236 110.169 29.6499 110.141C20.3428 106.642 11.8128 102.874 9.68437 95.3167C9.05653 93.0871 9.67271 91.6313 10.3005 90.8034C11.3353 89.4367 13.239 88.6536 15.5239 88.6536C18.4256 88.6536 21.979 89.9639 24.2639 92.7815C24.3369 90.5886 25.1084 88.4044 26.5273 86.492C28.2967 84.1065 30.7681 82.625 32.9763 82.625C34.9979 82.625 36.5813 83.8334 37.4362 86.0275C40.2857 93.3467 35.7411 101.489 30.4158 109.886C30.2943 110.074 30.0887 110.182 29.8745 110.182Z" fill="#29AEFD"/>
<path fill-rule="evenodd" clip-rule="evenodd" d="M79.3286 21.1502C68.767 15.1412 61.3404 3.85736 49.1673 0.508286C43.2669 -1.11439 36.5798 1.21652 33.329 6.52336C32.9399 7.15672 32.4784 7.27762 31.8297 6.95849C26.243 4.21454 19.3472 5.82065 15.2292 10.3493C6.73527 19.6889 6.49714 33.1956 0.787083 43.9216C-0.545917 46.425 -0.202857 46.614 1.947 48.484C12.0028 57.2326 22.1034 63.8994 35.9661 63.2606C44.233 62.8807 52.7612 60.408 59.9509 56.3071C72.0062 49.4304 76.9731 38.3951 80.7892 25.6248C81.6042 22.8937 81.7939 22.5513 79.3286 21.1502Z" fill="#29AEFD"/>
<path d="M77.2359 22.851C73.4038 25.9785 68.1258 26.1878 63.4137 26.7837C59.0256 27.3391 54.6166 27.5993 50.1942 27.5913C44.6461 27.5803 38.9226 27.781 33.7643 30.0561C30.676 31.4179 27.8314 33.3444 25.0292 35.2015C21.9176 37.2624 18.7527 39.2919 15.441 41.0238C12.2546 42.6901 8.87731 43.7224 5.3926 44.5368C4.78379 44.6785 4.17253 44.8074 3.56187 44.9394C3.49805 44.9431 3.44525 44.9633 3.40659 44.9971C3.29919 45.0726 3.28261 45.2113 3.32926 45.3285C3.33048 45.3334 3.33355 45.3377 3.33478 45.3432C3.33662 45.3463 3.33848 45.35 3.33971 45.3536C3.38205 45.4506 3.46981 45.5279 3.6036 45.5341C8.67907 45.7636 13.6594 45.0584 18.3194 42.9945C18.3304 42.9914 18.3402 42.9896 18.3501 42.9859C21.8704 41.5725 25.1495 39.7817 28.4439 37.9043C30.9577 36.4713 33.5372 34.8995 36.194 33.9004C40.9491 32.1126 46.1614 32.0776 51.1669 31.8401C55.1475 31.6511 59.0888 31.0736 62.9724 30.1929C65.4611 29.6283 67.9614 28.963 70.3831 28.1646C73.2099 27.2329 75.8998 25.7103 77.668 23.2609C77.6833 23.2407 77.6987 23.221 77.7134 23.1996C77.9282 22.8982 77.4722 22.657 77.2359 22.851Z" fill="#074785"/>
<path fill-rule="evenodd" clip-rule="evenodd" d="M126.193 101.635C120.383 90.9632 120.018 77.4596 111.437 68.1985C107.278 63.7104 100.366 62.1675 94.8067 64.9636C94.1421 65.2975 93.6867 65.1575 93.3031 64.5438C90.0013 59.2677 83.2939 56.9994 77.4083 58.6773C65.2683 62.1387 57.9473 73.4925 47.4416 79.599C44.9904 81.024 45.1819 81.3653 46.0233 84.0877C49.9585 96.8224 55.0297 107.81 67.1476 114.574C74.3741 118.607 82.9251 121 91.1968 121.303C105.066 121.812 115.102 115.051 125.076 106.209C127.208 104.317 127.55 104.126 126.193 101.635Z" fill="#FD6085"/>
<path d="M123.518 101.978C118.613 102.617 114.017 100.014 109.698 98.0366C105.675 96.1966 101.791 94.0946 98.0371 91.7576C93.3274 88.824 88.3581 85.9788 82.7751 85.1932C79.4328 84.7231 75.9997 84.8625 72.6396 84.9631C68.9088 85.0754 65.1497 85.1319 61.4232 84.8588C57.836 84.5955 54.4219 83.6939 51.0311 82.5487C50.4394 82.3487 49.8521 82.1363 49.263 81.9258C49.2065 81.8951 49.1513 81.8853 49.1009 81.8933C48.9696 81.9006 48.8824 82.0086 48.8604 82.1345C48.8585 82.1388 48.8585 82.1437 48.8567 82.1492C48.8567 82.1529 48.8554 82.1566 48.8548 82.1608C48.8401 82.2652 48.8738 82.3781 48.9837 82.4536C53.176 85.3227 57.7808 87.348 62.8292 88.0501C62.8397 88.0532 62.8489 88.0569 62.8599 88.0593C66.5963 88.7129 70.3264 88.9191 74.1162 89.0597C77.008 89.1665 80.0287 89.1904 82.8132 89.7409C87.796 90.7266 92.2448 93.4435 96.6243 95.8812C100.107 97.8181 103.761 99.4033 107.526 100.701C109.938 101.533 112.414 102.286 114.893 102.883C117.787 103.582 120.875 103.706 123.669 102.555C123.693 102.546 123.715 102.538 123.74 102.527C124.082 102.384 123.821 101.938 123.518 101.978Z" fill="#074785"/>
<path fill-rule="evenodd" clip-rule="evenodd" d="M102.532 111.378C95.534 115.169 85.6771 114.13 79.5368 109.139C77.4741 107.462 74.8302 110.638 76.9003 112.323C84.5865 118.572 96.2484 119.449 104.898 114.765C107.239 113.497 104.847 110.124 102.532 111.378Z" fill="white"/>
<path fill-rule="evenodd" clip-rule="evenodd" d="M112.359 108.376C110.833 106.192 107.445 108.559 108.972 110.742C110.499 112.927 113.887 110.559 112.359 108.376Z" fill="white"/>
<path fill-rule="evenodd" clip-rule="evenodd" d="M74.9056 104.313C73.3793 102.129 69.9928 104.497 71.5191 106.679C73.046 108.864 76.4301 106.497 74.9056 104.313Z" fill="white"/>
<path fill-rule="evenodd" clip-rule="evenodd" d="M45.178 53.9752C38.3657 58.0902 28.4713 57.5145 22.1039 52.8159C19.9645 51.2368 17.4728 54.5337 19.6196 56.1196C27.5893 62.0015 39.2801 62.3316 47.7016 57.2463C49.9791 55.871 47.4315 52.614 45.178 53.9752Z" fill="white"/>
<path fill-rule="evenodd" clip-rule="evenodd" d="M54.8546 50.5142C53.2277 48.4042 49.9553 50.9266 51.5823 53.0359C53.2093 55.1465 56.4828 52.6229 54.8546 50.5142Z" fill="white"/>
<path fill-rule="evenodd" clip-rule="evenodd" d="M17.2517 48.2089C15.6253 46.0996 12.3542 48.6232 13.9806 50.7313C15.6075 52.8431 18.878 50.3195 17.2517 48.2089Z" fill="white"/>
<path d="M52.8631 13.897C52.5673 13.6116 51.9763 9.60951 51.4386 9.64081C50.9004 9.67456 50.4315 13.6429 50.1799 13.9043C49.676 14.4284 45.9857 14.7997 46.0158 15.3079C46.0459 15.8154 49.6699 16.056 50.1811 16.5513C50.4671 16.8275 51.0673 20.8406 51.6062 20.8093C52.1426 20.778 52.6023 16.8201 52.8649 16.5501C53.351 16.0431 57.0701 15.6522 57.0401 15.1416C57.01 14.6322 53.3553 14.3763 52.8631 13.897Z" fill="white"/>
<path d="M107.377 81.1003C107.042 80.7756 106.368 76.2218 105.756 76.258C105.145 76.2949 104.611 80.8112 104.323 81.1083C103.75 81.7048 99.5524 82.1276 99.5861 82.7064C99.6205 83.2827 103.743 83.5564 104.327 84.1204C104.652 84.4359 105.335 89.0019 105.948 88.9663C106.559 88.9307 107.083 84.426 107.38 84.1192C107.933 83.5429 112.165 83.0973 112.131 82.5167C112.097 81.9362 107.937 81.6459 107.377 81.1003Z" fill="#074785"/>
<path d="M89.9279 102.277C89.9279 103.266 89.1251 104.069 88.1352 104.069C87.1465 104.069 86.3438 103.266 86.3438 102.277C86.3438 101.287 87.1465 100.484 88.1352 100.484C89.1257 100.484 89.9279 101.287 89.9279 102.277Z" fill="white"/>
<path d="M21.1076 15.223C21.1076 16.2111 20.3054 17.0144 19.3155 17.0144C18.3262 17.0144 17.5234 16.2111 17.5234 15.223C17.5234 14.233 18.3262 13.4297 19.3155 13.4297C20.3054 13.4297 21.1076 14.233 21.1076 15.223Z" fill="white"/>
<path d="M35.4904 45.6208C35.4904 46.6095 34.6876 47.4129 33.6977 47.4129C32.7084 47.4129 31.9062 46.6095 31.9062 45.6208C31.9062 44.6309 32.7084 43.8281 33.6977 43.8281C34.6882 43.8287 35.4904 44.6309 35.4904 45.6208Z" fill="white"/>
<path d="M65.2951 39.8245C65.2951 40.8132 64.4923 41.616 63.5024 41.616C62.5131 41.616 61.7109 40.8132 61.7109 39.8245C61.7109 38.8346 62.5131 38.0312 63.5024 38.0312C64.4923 38.0312 65.2951 38.8346 65.2951 39.8245Z" fill="white"/>
<path d="M37.7241 19.6214C37.7241 20.6101 36.922 21.4129 35.9321 21.4129C34.9428 21.4129 34.1406 20.6101 34.1406 19.6214C34.1406 18.6315 34.9428 17.8281 35.9321 17.8281C36.9226 17.8281 37.7241 18.6315 37.7241 19.6214Z" fill="white"/>
<path d="M99.5919 45.3636C99.5919 46.3517 98.7898 47.1551 97.7999 47.1551C96.8105 47.1551 96.0078 46.3517 96.0078 45.3636C96.0078 44.3737 96.8105 43.5703 97.7999 43.5703C98.7898 43.5709 99.5919 44.3737 99.5919 45.3636Z" fill="white"/>
<path d="M116.436 93.1833C116.436 94.172 115.633 94.9754 114.643 94.9754C113.654 94.9754 112.852 94.172 112.852 93.1833C112.852 92.1934 113.654 91.3906 114.643 91.3906C115.634 91.3906 116.436 92.1934 116.436 93.1833Z" fill="white"/>
<path d="M15.3335 34.1761C15.3335 35.1642 14.5314 35.9676 13.5415 35.9676C12.5521 35.9676 11.75 35.1642 11.75 34.1761C11.75 33.1862 12.5521 32.3828 13.5415 32.3828C14.5314 32.3828 15.3335 33.1862 15.3335 34.1761Z" fill="white"/>
<path d="M66.7091 76.4099C66.7091 77.3986 65.907 78.2019 64.9171 78.2019C63.9278 78.2019 63.125 77.3986 63.125 76.4099C63.125 75.4199 63.9278 74.6172 64.9171 74.6172C65.907 74.6172 66.7091 75.4199 66.7091 76.4099Z" fill="white"/>
<path d="M92.7951 75.9177C92.7951 76.9064 91.9923 77.7097 91.0024 77.7097C90.0131 77.7097 89.2109 76.9064 89.2109 75.9177C89.2109 74.9277 90.0131 74.125 91.0024 74.125C91.9929 74.125 92.7951 74.9271 92.7951 75.9177Z" fill="white"/>
<path d="M66.7091 98.0589C66.7091 99.0476 65.907 99.8504 64.9171 99.8504C63.9278 99.8504 63.125 99.0476 63.125 98.0589C63.125 97.069 63.9278 96.2656 64.9171 96.2656C65.907 96.2656 66.7091 97.069 66.7091 98.0589Z" fill="white"/>
<path d="M34.1382 91.3949C34.1382 92.3836 33.3361 93.1863 32.3461 93.1863C31.3568 93.1863 30.5547 92.3836 30.5547 91.3949C30.5547 90.4049 31.3568 89.6016 32.3461 89.6016C33.3367 89.6016 34.1382 90.4043 34.1382 91.3949Z" fill="white"/>
<path d="M21.1076 99.8474C21.1076 100.836 20.3054 101.639 19.3155 101.639C18.3262 101.639 17.5234 100.836 17.5234 99.8474C17.5234 98.8574 18.3262 98.0547 19.3155 98.0547C20.3054 98.0547 21.1076 98.8574 21.1076 99.8474Z" fill="white"/>
<path d="M110.38 34.1449C110.38 35.1336 109.578 35.9363 108.588 35.9363C107.599 35.9363 106.797 35.1336 106.797 34.1449C106.797 33.1549 107.599 32.3516 108.588 32.3516C109.578 32.3516 110.38 33.1549 110.38 34.1449Z" fill="white"/>
</svg>
