<svg width="50" height="48" viewBox="0 0 50 48" fill="none" xmlns="http://www.w3.org/2000/svg">
<path fill-rule="evenodd" clip-rule="evenodd" d="M14.4843 47.676C14.1483 47.676 13.8233 47.505 13.6343 47.206C4.42831 32.623 -3.42469 18.484 1.53731 5.82898C3.00931 2.06898 5.72431 0 9.17931 0C12.9793 0 17.2353 2.55899 20.2843 6.67899C22.8033 10.079 24.1363 13.97 24.1953 17.865C28.1363 12.861 34.3783 10.537 39.4593 10.537C43.4103 10.537 46.6963 11.889 48.4763 14.245C49.5523 15.668 50.6063 18.169 49.5183 22.001C45.8033 35.076 30.9933 41.576 14.8363 47.611C14.7203 47.655 14.6023 47.676 14.4843 47.676Z" fill="#A089E4"/>
<path d="M42.6633 23.2545C42.6633 24.8085 41.4023 26.0695 39.8473 26.0695C38.2923 26.0695 37.0312 24.8075 37.0312 23.2545C37.0312 21.6985 38.2923 20.4375 39.8473 20.4375C41.4023 20.4365 42.6633 21.6985 42.6633 23.2545Z" fill="white"/>
<path d="M17.381 31.9029C17.381 33.4569 16.121 34.7179 14.565 34.7179C13.01 34.7179 11.75 33.4559 11.75 31.9029C11.75 30.3469 13.011 29.0859 14.565 29.0859C16.121 29.0859 17.381 30.3469 17.381 31.9029Z" fill="white"/>
</svg>
