<svg width="170" height="159" viewBox="0 0 170 159" fill="none" xmlns="http://www.w3.org/2000/svg">
<path fill-rule="evenodd" clip-rule="evenodd" d="M106.546 95.8916C104.475 97.3204 102.286 98.5891 99.9457 99.6515C94.4156 102.162 88.6977 104.157 82.5966 104.806C81.8411 104.886 81.0931 105.039 80.3428 105.159C74.1278 105.493 67.9268 105.055 61.9413 103.502C53.0089 101.186 44.7721 97.2424 37.7162 91.1598C28.6068 83.3055 19.5601 75.3786 10.4933 67.4755C9.72224 66.8042 9.0401 66.027 8.24012 65.3962C7.2162 64.5889 7.1766 63.8089 7.95879 62.8021C10.6887 59.2852 13.4363 55.7808 16.0736 52.1952C19.9539 46.9195 23.7667 41.5929 27.5701 36.2609C35.0249 25.8084 46.0857 21.73 59.0703 25.0489C62.7994 26.0022 66.3341 27.7615 69.8993 29.2904C71.8278 30.1178 71.7474 30.2313 73.0805 28.5096C75.3032 25.6381 77.4027 22.6492 79.8362 19.967C84.2918 15.0572 89.6479 11.6345 96.4548 10.9501C100.729 10.5211 104.773 11.4741 108.823 12.6986C117.205 15.2325 124.842 19.4384 132.732 23.0848C136.028 24.6074 139.418 25.9296 142.79 27.2798C144.487 27.9589 144.767 28.2581 144.207 30.1294C143.489 32.5279 142.736 34.9289 141.798 37.2474C135.179 53.6045 130.532 71.3834 118.598 84.9018C115.011 88.9663 111.019 92.8054 106.546 95.8916ZM62.6648 77.0886C65.5144 77.6433 68.3483 78.5643 71.2166 78.6859C82.2511 79.1516 91.9305 75.7659 99.8535 67.8656C102.616 64.5419 105.677 61.4169 108.074 57.8471C111.847 52.2254 115.194 46.3168 118.675 40.5016C119.734 38.7326 120.639 36.8727 121.736 34.8306C120.843 34.6874 120.263 34.5946 119.683 34.5005C114.237 33.2953 108.884 32.6841 103.21 33.0441C97.4349 33.4088 92.1277 34.9132 87.2902 38.3262C85.6618 39.4744 84.0461 40.4577 82.2955 41.3972C79.8312 42.7211 77.1552 43.9727 74.5291 44.8998C70.6719 46.261 66.2729 46.1067 62.3404 45.4536C55.8016 44.3685 50.7816 45.4899 45.5577 49.4704C41.8226 52.3162 37.9353 54.704 34.306 57.6862C33.9502 58.0088 33.3106 58.2536 32.836 58.6839C41.9182 66.4702 51.5036 73.0466 62.6648 77.0886Z" fill="#FFA4AC"/>
<path fill-rule="evenodd" clip-rule="evenodd" d="M74.7055 96.3382C78.0187 97.2453 81.3946 97.6285 84.8257 97.5519C83.7493 105.969 82.6667 114.386 81.5965 122.804C80.2657 133.272 80.3734 132.66 79.0388 143.128C78.7429 145.449 77.4068 147.027 75.4007 147.506C73.1585 148.042 70.7369 147.246 69.5357 145.59C68.8526 144.646 68.6037 143.594 68.7516 142.451C70.4474 129.313 70.7257 127.259 72.4223 114.122C73.188 108.195 73.9452 102.266 74.7055 96.3382Z" fill="#F9D555"/>
<path fill-rule="evenodd" clip-rule="evenodd" d="M74.523 125.653C73.3651 125.64 72.6785 126.529 72.5447 127.585C72.3173 129.389 72.0383 131.185 71.8102 132.989C71.6763 134.047 72.7691 134.956 73.7427 134.968C74.9005 134.98 75.5871 134.091 75.7209 133.035C75.9483 131.231 76.2273 129.435 76.4548 127.631C76.5885 126.572 75.4963 125.664 74.523 125.653Z" fill="white"/>
<path fill-rule="evenodd" clip-rule="evenodd" d="M74.7348 120.308C72.2967 120.949 73.2914 124.73 75.7294 124.089C78.1674 123.447 77.1728 119.667 74.7348 120.308Z" fill="white"/>
<path d="M113.32 120.115C120.056 116.292 103.931 104.502 103.931 104.502C103.931 104.502 106.894 123.763 113.32 120.115Z" fill="#7BEFE5"/>
<path d="M128.008 106.071C131.495 99.1544 111.539 98.2812 111.539 98.2812C111.539 98.2812 124.681 112.669 128.008 106.071Z" fill="#7BEFE5"/>
<path d="M92.6487 127.707C100.408 128.484 94.9343 108.249 94.9343 108.249C94.9343 108.249 85.2463 126.965 92.6487 127.707Z" fill="#7BEFE5"/>
<path fill-rule="evenodd" clip-rule="evenodd" d="M103.148 32.5431C97.3734 32.9091 91.8882 33.86 87.0506 37.2724C85.4222 38.4206 83.7787 39.5767 82.0281 40.5163C79.5632 41.8404 77.0724 43.1964 74.4475 44.1231C70.5897 45.4844 66.5256 45.1134 62.5918 44.4606C56.0537 43.3754 50.1588 44.7052 44.9357 48.6861C41.2 51.5321 36.4677 55.7011 32.8372 58.6837L76.2673 52.2339L121.736 34.8299C116.293 33.6235 108.822 32.1839 103.148 32.5431Z" fill="white"/>
<path fill-rule="evenodd" clip-rule="evenodd" d="M99.852 67.8689C91.929 75.7692 82.2496 79.1549 71.2152 78.6892C68.347 78.5682 65.513 77.6466 62.6642 77.093C62.9563 76.8387 63.2111 76.4358 63.5449 76.3526C75.1736 73.4721 86.8089 70.6168 98.449 67.7847C98.8843 67.6788 99.3833 67.8352 99.852 67.8689Z" fill="#F7F5F7"/>
<path d="M121.578 34.8125C121.62 34.8193 121.669 34.8276 121.726 34.8364C121.698 34.8318 121.641 34.8224 121.578 34.8125Z" fill="#074780"/>
<path d="M121.359 34.7734C121.381 34.7769 121.423 34.7836 121.474 34.7921C121.414 34.782 121.378 34.7765 121.359 34.7734Z" fill="#074780"/>
<path d="M32.841 58.685C41.9231 66.4706 51.5085 73.0471 62.6706 77.0902C62.9626 76.8359 63.2175 76.433 63.5512 76.3498C75.1799 73.4693 86.8152 70.614 98.4553 67.7819C98.89 67.6761 99.389 67.8325 99.8579 67.8668C102.621 64.5431 105.681 61.4182 108.078 57.8484C111.851 52.2267 115.198 46.3181 118.679 40.5028C119.738 38.7339 120.644 36.8739 121.74 34.8318C121.74 34.8318 93.964 45.4639 76.0527 49.414C54.3452 54.2 32.841 58.685 32.841 58.685Z" fill="#074785"/>
<path fill-rule="evenodd" clip-rule="evenodd" d="M132.697 41.5261C131.155 45.8032 129.977 50.2459 127.604 54.1652C126.297 56.3255 129.704 58.2416 131.009 56.0873C133.549 51.8885 134.827 47.1029 136.479 42.5217C137.335 40.1442 133.544 39.1754 132.697 41.5261Z" fill="white"/>
<path fill-rule="evenodd" clip-rule="evenodd" d="M136.544 33.4949C134.115 34.1709 135.163 37.9369 137.592 37.2609C140.021 36.585 138.972 32.8185 136.544 33.4949Z" fill="white"/>
<path fill-rule="evenodd" clip-rule="evenodd" d="M125.802 60.0262C123.373 60.7021 124.421 64.4687 126.85 63.7928C129.279 63.1168 128.231 59.3508 125.802 60.0262Z" fill="white"/>
<path fill-rule="evenodd" clip-rule="evenodd" d="M50.9211 28.1222C47.814 27.9883 44.6731 28.1021 41.6709 28.979C38.4359 29.9238 35.6482 31.8969 33.4011 34.3723C31.7137 36.2315 34.4682 39.0076 36.168 37.1353C37.9854 35.133 40.0725 33.5864 42.6656 32.7597C45.3103 31.9161 48.1303 31.9138 50.875 32.0323C53.4004 32.1418 53.4312 28.2312 50.9211 28.1222Z" fill="white"/>
<path fill-rule="evenodd" clip-rule="evenodd" d="M56.8754 29.683C54.4374 30.3244 55.432 34.1051 57.87 33.4637C60.308 32.8223 59.314 29.0414 56.8754 29.683Z" fill="white"/>
<path fill-rule="evenodd" clip-rule="evenodd" d="M30.2269 39.0268C27.7889 39.6682 28.7836 43.4489 31.2216 42.8075C33.6598 42.1667 32.6649 38.3854 30.2269 39.0268Z" fill="white"/>
<path fill-rule="evenodd" clip-rule="evenodd" d="M41.5283 84.0762C38.0266 81.9935 34.9599 79.2395 32.0904 76.3677C30.31 74.5856 27.5419 77.3479 29.3275 79.1346C32.4243 82.2336 35.7807 85.2056 39.5578 87.4527C41.7269 88.7432 43.6957 85.3652 41.5283 84.0762Z" fill="white"/>
<path fill-rule="evenodd" clip-rule="evenodd" d="M24.3055 71.8469C21.8669 72.4885 22.8616 76.2692 25.3002 75.6277C27.7376 74.9864 26.7429 71.2057 24.3055 71.8469Z" fill="white"/>
<path fill-rule="evenodd" clip-rule="evenodd" d="M44.8124 87.6519C42.375 88.2931 43.3697 92.0738 45.8071 91.4326C48.2463 90.7909 47.2517 87.0102 44.8124 87.6519Z" fill="white"/>
<path d="M90.4569 23.8409C90.2029 23.6827 89.0302 20.8428 88.6747 20.9614C88.3184 21.0816 88.7714 24.0851 88.6529 24.3214C88.4151 24.797 86.0018 25.7229 86.1209 26.0927C86.24 26.4605 88.7262 25.9945 89.1666 26.2692C89.4125 26.4215 90.5937 29.2685 90.9499 29.1503C91.3053 29.0318 90.8496 26.0382 90.9724 25.7928C91.2026 25.3337 93.6304 24.3875 93.5112 24.0171C93.3926 23.6465 90.8816 24.1059 90.4569 23.8409Z" fill="#074785"/>
<path d="M116.676 57.7003C116.422 57.5427 115.249 54.7022 114.893 54.8208C114.537 54.9403 114.99 57.9438 114.872 58.1807C114.634 58.6558 112.221 59.5821 112.339 59.9515C112.458 60.3194 114.944 59.8546 115.385 60.1287C115.631 60.2811 116.812 63.128 117.168 63.0099C117.523 62.8913 117.067 59.8973 117.191 59.6515C117.421 59.1926 119.848 58.2465 119.73 57.8759C119.611 57.5067 117.1 57.9653 116.676 57.7003Z" fill="#074785"/>
<path d="M22.8243 55.1462C22.5702 54.988 21.3967 52.1477 21.0419 52.2661C20.6856 52.3862 21.1386 55.3897 21.0202 55.6267C20.7817 56.1019 18.3691 57.0282 18.4882 57.398C18.6074 57.7658 21.0931 57.3005 21.5333 57.5746C21.7794 57.7276 22.9604 60.5739 23.3166 60.4558C23.6726 60.3371 23.2163 57.3437 23.3391 57.0982C23.5694 56.6392 25.9977 55.6928 25.8784 55.3218C25.7593 54.952 23.2483 55.4114 22.8243 55.1462Z" fill="#074785"/>
<path d="M43.8554 72.9425C43.6013 72.7843 42.4284 69.9438 42.0732 70.063C41.7173 70.1823 42.1697 73.186 42.0513 73.423C41.8134 73.898 39.4004 74.8251 39.5193 75.1943C39.6379 75.5622 42.1242 75.0968 42.565 75.3708C42.8111 75.5237 43.9923 78.3706 44.3479 78.2527C44.7044 78.1332 44.2474 75.1399 44.3715 74.8942C44.6012 74.4359 47.0288 73.4891 46.9102 73.1185C46.7904 72.7483 44.28 73.2075 43.8554 72.9425Z" fill="white"/>
<path d="M106.723 19.8799C106.468 19.7218 105.296 16.8819 104.94 17.0005C104.584 17.12 105.037 20.1235 104.919 20.3603C104.681 20.8355 102.268 21.7624 102.386 22.1318C102.505 22.4997 104.992 22.0349 105.432 22.3084C105.678 22.4608 106.859 25.3077 107.215 25.1896C107.57 25.071 107.114 22.0776 107.238 21.8312C107.467 21.3723 109.895 20.4262 109.777 20.0556C109.658 19.6857 107.147 20.145 106.723 19.8799Z" fill="white"/>
<path fill-rule="evenodd" clip-rule="evenodd" d="M72.9813 109.737C76.2338 110.617 79.6628 110.958 83.1396 110.687C83.6995 106.31 84.2609 101.933 84.8208 97.5564C81.3897 97.633 78.0138 97.2498 74.7006 96.3427C74.1282 100.808 73.555 105.272 72.9813 109.737Z" fill="#074785"/>
<path fill-rule="evenodd" clip-rule="evenodd" d="M111.03 67.7809C115.268 83.8886 105.646 100.383 89.5372 104.621C73.4289 108.858 56.9346 99.2359 52.6968 83.1275C48.4589 67.0192 58.0823 50.5253 74.1906 46.2875C90.299 42.0496 106.792 51.6725 111.03 67.7809Z" fill="#A089E4"/>
<path fill-rule="evenodd" clip-rule="evenodd" d="M56.3429 66.1521C55.5405 68.7998 54.9397 71.4966 54.8159 74.2686C54.6917 77.0591 55.1993 79.8714 55.8927 82.5623C56.522 85.0041 60.3024 84.0083 59.6735 81.5676C59.0556 79.1716 58.6586 76.7946 58.7265 74.3145C58.793 71.8836 59.4083 69.5154 60.1098 67.2012C60.8435 64.7814 57.0727 63.7447 56.3429 66.1521Z" fill="white"/>
<path fill-rule="evenodd" clip-rule="evenodd" d="M59.4769 86.4252C57.0389 87.0666 58.0338 90.8479 60.4718 90.2065C62.9096 89.5645 61.9149 85.7838 59.4769 86.4252Z" fill="white"/>
<path d="M72.2225 95.0987C71.9685 94.9406 70.7958 92.1007 70.4404 92.2192C70.0839 92.3388 70.5369 95.3423 70.4185 95.5793C70.1807 96.0548 67.7676 96.9813 67.8865 97.3505C68.0058 97.7189 70.4915 97.2537 70.9318 97.5278C71.1777 97.6801 72.3588 100.527 72.715 100.409C73.0711 100.29 72.6146 97.2962 72.738 97.0506C72.9683 96.5915 75.396 95.6454 75.2768 95.2749C75.1576 94.9045 72.6466 95.3639 72.2225 95.0987Z" fill="#074785"/>
<path d="M87.8265 81.8045C87.8265 81.8045 81.9016 81.9118 78.0278 81.073C78.0278 81.073 75.8368 93.324 82.4939 93.457C88.5836 93.5775 87.8265 81.8045 87.8265 81.8045Z" fill="#074785"/>
<path d="M80.5099 88.3424C83.085 88.6809 84.8542 90.212 85.3618 92.3144C84.6348 93.0368 83.7022 93.482 82.4991 93.4581C79.6611 93.4018 78.4344 91.1415 77.9573 88.5679C78.6709 88.3188 79.5228 88.2214 80.5099 88.3424Z" fill="#FFA4AC"/>
<path fill-rule="evenodd" clip-rule="evenodd" d="M80.9167 70.0617C81.8038 74.9883 78.4887 79.6812 73.5115 80.5446C68.5353 81.4065 63.7807 78.1122 62.8939 73.1868C62.0074 68.2599 65.322 63.5672 70.2982 62.7054C75.276 61.8424 80.0287 65.1365 80.9167 70.0617Z" fill="white"/>
<path fill-rule="evenodd" clip-rule="evenodd" d="M74.2585 62.8791C71.5549 63.657 69.3065 65.7713 68.5048 68.6576C67.284 73.0554 69.8849 77.5801 74.3149 78.7647C75.2835 79.0232 76.2611 79.1005 77.2083 79.0169C79.9981 77.0591 81.5516 73.62 80.9114 70.0608C80.2666 66.4836 77.5845 63.7696 74.2585 62.8791Z" fill="#074785"/>
<path fill-rule="evenodd" clip-rule="evenodd" d="M103.038 71.7011C103.668 76.6684 100.115 81.1831 95.0994 81.7854C90.0841 82.3884 85.5074 78.8527 84.8776 73.886C84.2468 68.9203 87.8017 64.4065 92.8162 63.8031C97.8315 63.2001 102.408 66.7366 103.038 71.7011Z" fill="white"/>
<path fill-rule="evenodd" clip-rule="evenodd" d="M96.7659 64.188C94.0265 64.8249 91.671 66.8182 90.7214 69.6589C89.2731 73.9867 91.6342 78.6404 95.9985 80.0521C96.9518 80.3628 97.9245 80.4889 98.8746 80.4566C101.763 78.6445 103.494 75.2933 103.038 71.7027C102.579 68.0989 100.04 65.2498 96.7659 64.188Z" fill="#074785"/>
<path fill-rule="evenodd" clip-rule="evenodd" d="M103.953 63.2906C102.763 61.2286 100.751 60.0062 98.3611 60.0233C97.1627 60.0325 97.2726 61.8846 98.4652 61.8763C100.212 61.8633 101.54 62.8197 102.393 64.2956C102.991 65.3355 104.547 64.3225 103.953 63.2906Z" fill="#074785"/>
<path fill-rule="evenodd" clip-rule="evenodd" d="M70.2592 57.6804C67.8845 57.5068 65.7439 58.4863 64.4174 60.4735C63.751 61.4715 65.3467 62.4207 66.0085 61.4279C66.9791 59.9763 68.5146 59.4127 70.2156 59.5359C71.4114 59.6224 71.4465 57.7672 70.2592 57.6804Z" fill="#074785"/>
<path d="M72.0107 84.2396C71.8729 85.6542 70.1283 86.6416 68.1144 86.445C66.0996 86.25 64.5785 84.9447 64.7167 83.5288C64.855 82.1135 66.5988 81.1255 68.6141 81.3224C70.6267 81.5193 72.1478 82.8247 72.0107 84.2396Z" fill="#7BEFE5"/>
<path d="M101.072 85.7783C100.935 87.1932 99.1901 88.1809 97.1769 87.9841C95.1619 87.7885 93.6422 86.4834 93.7785 85.068C93.9168 83.6527 95.6607 82.6648 97.6759 82.8617C99.689 83.0578 101.211 84.363 101.072 85.7783Z" fill="#7BEFE5"/>
<path d="M78.9093 68.1382C78.2396 66.9896 77.3855 66.0201 76.1723 65.436C75.6269 65.1738 75.2813 66.0445 75.8203 66.3052C76.7955 66.7744 77.5142 67.5927 78.0517 68.5149C78.3509 69.03 79.2132 68.6613 78.9093 68.1382Z" fill="white"/>
<path d="M74.7462 64.7101C74.6046 64.6635 74.4641 64.6134 74.3227 64.5675C74.0801 64.4881 73.8133 64.5774 73.7125 64.8263C73.6224 65.0506 73.7288 65.3571 73.971 65.4352C74.1134 65.4822 74.2535 65.5331 74.3953 65.5783C74.6382 65.6589 74.9041 65.5685 75.0061 65.3193C75.0956 65.0952 74.988 64.789 74.7462 64.7101Z" fill="white"/>
<path d="M79.407 69.8364C79.3254 69.5939 79.007 69.4996 78.7901 69.5956C78.542 69.7057 78.4684 69.9705 78.5489 70.2112C78.5493 70.2052 78.5499 70.2024 78.5503 70.1964C78.5352 70.4497 78.697 70.6836 78.9617 70.7142C79.2047 70.7427 79.4655 70.5579 79.4802 70.3027C79.4903 70.1331 79.4605 69.9945 79.407 69.8364Z" fill="white"/>
<path d="M78.5431 70.2106C78.5438 70.2183 78.5451 70.2259 78.5459 70.2336C78.5464 70.2282 78.5469 70.2202 78.5464 70.213C78.5036 70.0857 78.5362 70.1794 78.5431 70.2106Z" fill="white"/>
<path d="M78.5494 70.2317C78.5464 70.3004 78.5521 70.2672 78.5494 70.2317V70.2317Z" fill="white"/>
<path d="M78.5474 70.2128L78.5475 70.2108L78.5474 70.2128Z" fill="white"/>
<path d="M100.659 68.7081C99.9885 67.5604 99.1343 66.5909 97.9217 66.0067C97.3768 65.7437 97.0314 66.6151 97.5702 66.8751C98.5442 67.3446 99.2621 68.1626 99.8004 69.0851C100.101 69.6005 100.963 69.2312 100.659 68.7081Z" fill="white"/>
<path d="M96.4963 65.2812C96.3547 65.2347 96.2147 65.1838 96.0739 65.1377C95.8301 65.0587 95.5637 65.1472 95.4617 65.3964C95.3724 65.6211 95.4794 65.9275 95.7216 66.0056C95.8627 66.0529 96.0034 66.1037 96.1453 66.1488C96.3888 66.2293 96.6548 66.1395 96.7556 65.8906C96.8461 65.6656 96.7387 65.36 96.4963 65.2812Z" fill="white"/>
<path d="M101.148 70.3989C101.068 70.1568 100.749 70.0626 100.532 70.1581C100.283 70.2676 100.211 70.5335 100.292 70.774C100.291 70.7696 100.292 70.7654 100.293 70.7593C100.277 71.0127 100.44 71.2464 100.704 71.2772C100.946 71.3058 101.208 71.1203 101.224 70.8654C101.232 70.6969 101.202 70.5583 101.148 70.3989Z" fill="white"/>
<path d="M100.285 70.7736C100.286 70.7811 100.287 70.7883 100.288 70.7958C100.289 70.7904 100.288 70.7825 100.289 70.7744C100.246 70.6485 100.278 70.7422 100.285 70.7736Z" fill="white"/>
<path d="M100.292 70.794C100.288 70.863 100.294 70.8298 100.292 70.794V70.794Z" fill="white"/>
<path d="M100.29 70.7763L100.29 70.774L100.289 70.7734L100.29 70.7763Z" fill="white"/>
<path fill-rule="evenodd" clip-rule="evenodd" d="M72.2877 50.3157C72.6954 52.0736 75.4214 51.4436 75.0142 49.6849C74.6074 47.9254 71.8818 48.5574 72.2877 50.3157Z" fill="#7BE1D7"/>
<path fill-rule="evenodd" clip-rule="evenodd" d="M97.5611 55.9559C97.9673 57.7155 100.694 57.0839 100.287 55.3252C99.8811 53.5668 97.1534 54.198 97.5611 55.9559Z" fill="#7BE1D7"/>
<path fill-rule="evenodd" clip-rule="evenodd" d="M78.0597 50.1308C83.7904 49.4109 90.225 50.1229 94.8435 53.8799C95.916 54.7517 97.2195 53.0555 96.1503 52.1862C91.1005 48.0789 84.0612 47.2205 77.7846 48.0095C76.417 48.1806 76.6915 50.3021 78.0597 50.1308Z" fill="#7BE1D7"/>
<path fill-rule="evenodd" clip-rule="evenodd" d="M118.494 74.712C117.847 74.7557 117.303 74.2917 117.253 73.651C117.203 73.0044 117.689 72.445 118.339 72.4028C118.984 72.3597 119.53 72.8303 119.577 73.4705C119.625 74.1281 119.156 74.6673 118.494 74.712Z" fill="white"/>
<path fill-rule="evenodd" clip-rule="evenodd" d="M119.752 27.4703C119.104 27.5141 118.561 27.0493 118.511 26.4086C118.461 25.7628 118.947 25.2032 119.597 25.1604C120.242 25.118 120.787 25.5881 120.835 26.2281C120.883 26.8869 120.413 27.4249 119.752 27.4703Z" fill="white"/>
<path fill-rule="evenodd" clip-rule="evenodd" d="M73.9086 39.5327C73.2604 39.5766 72.7172 39.1118 72.6674 38.4711C72.6169 37.8253 73.1037 37.2657 73.7529 37.2229C74.3988 37.1803 74.9434 37.6506 74.9911 38.2906C75.0397 38.9494 74.5697 39.4874 73.9086 39.5327Z" fill="white"/>
<path fill-rule="evenodd" clip-rule="evenodd" d="M39.1037 44.2821C38.4557 44.3266 37.9125 43.8618 37.8628 43.2217C37.8122 42.5753 38.299 42.0157 38.9482 41.9729C39.5941 41.9303 40.1389 42.4012 40.1864 43.0406C40.2349 43.6988 39.765 44.2374 39.1037 44.2821Z" fill="white"/>
</svg>
